<mxfile host="app.diagrams.net" modified="2022-07-11T20:44:38.757Z" agent="5.0 (X11)" etag="ViNefRzKiz67KtOuC18Q" version="19.0.3" type="github">
  <diagram id="ad-lsBwaoq_hX-LNnD97" name="Page-1">
    <mxGraphModel dx="3220" dy="1248" grid="1" gridSize="10" guides="1" tooltips="1" connect="1" arrows="1" fold="1" page="1" pageScale="1" pageWidth="850" pageHeight="1100" math="0" shadow="0">
      <root>
        <mxCell id="0" />
        <mxCell id="1" parent="0" />
        <mxCell id="Xq1n-c8aseyyMUb2qtHi-80" value="" style="rounded=1;whiteSpace=wrap;html=1;fontSize=18;gradientColor=none;" parent="1" vertex="1">
          <mxGeometry x="-330" y="470" width="120" height="100" as="geometry" />
        </mxCell>
        <mxCell id="Xq1n-c8aseyyMUb2qtHi-69" value="" style="rounded=1;whiteSpace=wrap;html=1;fontSize=18;" parent="1" vertex="1">
          <mxGeometry x="-630" y="650" width="420" height="180" as="geometry" />
        </mxCell>
        <mxCell id="Xq1n-c8aseyyMUb2qtHi-60" value="" style="rounded=0;whiteSpace=wrap;html=1;fontSize=18;fillColor=#f8cecc;strokeColor=#b85450;" parent="1" vertex="1">
          <mxGeometry x="-20" y="700" width="320" height="460" as="geometry" />
        </mxCell>
        <mxCell id="Xq1n-c8aseyyMUb2qtHi-58" value="" style="rounded=0;whiteSpace=wrap;html=1;fontSize=18;gradientColor=none;" parent="1" vertex="1">
          <mxGeometry x="150" y="720.44" width="120" height="359.56" as="geometry" />
        </mxCell>
        <mxCell id="Xq1n-c8aseyyMUb2qtHi-44" value="" style="rounded=1;whiteSpace=wrap;html=1;fontSize=18;" parent="1" vertex="1">
          <mxGeometry x="465" y="160.81" width="40" height="40" as="geometry" />
        </mxCell>
        <mxCell id="bWGEidWGkiljW06ko3HO-1" value="" style="rounded=0;whiteSpace=wrap;html=1;fontSize=18;fillColor=#fff2cc;strokeColor=#d6b656;" parent="1" vertex="1">
          <mxGeometry x="-40" y="60.96" width="760" height="609.04" as="geometry" />
        </mxCell>
        <mxCell id="bWGEidWGkiljW06ko3HO-2" value="" style="rounded=0;whiteSpace=wrap;html=1;fillColor=#ffe6cc;strokeColor=#d79b00;" parent="1" vertex="1">
          <mxGeometry x="80" y="142.5" width="450" height="480" as="geometry" />
        </mxCell>
        <mxCell id="bWGEidWGkiljW06ko3HO-3" value="&lt;div&gt;&lt;font style=&quot;font-size: 18px;&quot;&gt;EKS&lt;/font&gt;&lt;/div&gt;" style="text;html=1;strokeColor=none;fillColor=none;align=center;verticalAlign=middle;whiteSpace=wrap;rounded=0;" parent="1" vertex="1">
          <mxGeometry x="461" y="226.75" width="60" height="40.19" as="geometry" />
        </mxCell>
        <mxCell id="bWGEidWGkiljW06ko3HO-4" value="" style="rounded=1;whiteSpace=wrap;html=1;fontSize=18;fillColor=#f5f5f5;fontColor=#333333;strokeColor=#666666;" parent="1" vertex="1">
          <mxGeometry x="100" y="240" width="140" height="80" as="geometry" />
        </mxCell>
        <mxCell id="bWGEidWGkiljW06ko3HO-5" value="" style="rounded=1;whiteSpace=wrap;html=1;fontSize=18;fillColor=#f5f5f5;fontColor=#333333;strokeColor=#666666;" parent="1" vertex="1">
          <mxGeometry x="100" y="505" width="140" height="80" as="geometry" />
        </mxCell>
        <mxCell id="bWGEidWGkiljW06ko3HO-6" value="" style="rounded=1;whiteSpace=wrap;html=1;fontSize=18;gradientColor=none;" parent="1" vertex="1">
          <mxGeometry x="100" y="370" width="140" height="80" as="geometry" />
        </mxCell>
        <mxCell id="bWGEidWGkiljW06ko3HO-7" value="" style="endArrow=classic;html=1;rounded=0;fontSize=18;entryX=0.5;entryY=0;entryDx=0;entryDy=0;" parent="1" source="bWGEidWGkiljW06ko3HO-4" target="bWGEidWGkiljW06ko3HO-6" edge="1">
          <mxGeometry width="50" height="50" relative="1" as="geometry">
            <mxPoint y="440" as="sourcePoint" />
            <mxPoint x="50" y="390" as="targetPoint" />
          </mxGeometry>
        </mxCell>
        <mxCell id="bWGEidWGkiljW06ko3HO-8" value="" style="endArrow=classic;html=1;rounded=0;fontSize=18;entryX=0.5;entryY=0;entryDx=0;entryDy=0;exitX=0.5;exitY=1;exitDx=0;exitDy=0;" parent="1" source="bWGEidWGkiljW06ko3HO-6" target="bWGEidWGkiljW06ko3HO-5" edge="1">
          <mxGeometry width="50" height="50" relative="1" as="geometry">
            <mxPoint x="179.5" y="490" as="sourcePoint" />
            <mxPoint x="179.5" y="540" as="targetPoint" />
          </mxGeometry>
        </mxCell>
        <mxCell id="bWGEidWGkiljW06ko3HO-9" value="Nginx" style="text;html=1;strokeColor=none;fillColor=none;align=center;verticalAlign=middle;whiteSpace=wrap;rounded=0;fontSize=18;" parent="1" vertex="1">
          <mxGeometry x="140" y="240" width="60" height="30" as="geometry" />
        </mxCell>
        <mxCell id="bWGEidWGkiljW06ko3HO-10" value="&lt;div&gt;Todolist app&lt;/div&gt;" style="text;html=1;strokeColor=none;fillColor=none;align=center;verticalAlign=middle;whiteSpace=wrap;rounded=0;fontSize=18;" parent="1" vertex="1">
          <mxGeometry x="120" y="367.5" width="100" height="30" as="geometry" />
        </mxCell>
        <mxCell id="bWGEidWGkiljW06ko3HO-11" value="MongoDB" style="text;html=1;strokeColor=none;fillColor=none;align=center;verticalAlign=middle;whiteSpace=wrap;rounded=0;fontSize=18;" parent="1" vertex="1">
          <mxGeometry x="137.5" y="500" width="60" height="30" as="geometry" />
        </mxCell>
        <mxCell id="bWGEidWGkiljW06ko3HO-14" value="&lt;div&gt;ECR&lt;/div&gt;" style="text;html=1;strokeColor=none;fillColor=none;align=center;verticalAlign=middle;whiteSpace=wrap;rounded=0;fontSize=24;" parent="1" vertex="1">
          <mxGeometry x="598.5" y="460" width="60" height="30" as="geometry" />
        </mxCell>
        <mxCell id="Pfn9qGPlzArYa6WnRj2U-8" style="rounded=0;orthogonalLoop=1;jettySize=auto;html=1;exitX=0;exitY=0;exitDx=0;exitDy=0;entryX=1;entryY=1;entryDx=0;entryDy=0;fontSize=18;" edge="1" parent="1" source="Xq1n-c8aseyyMUb2qtHi-3" target="bWGEidWGkiljW06ko3HO-6">
          <mxGeometry relative="1" as="geometry" />
        </mxCell>
        <mxCell id="Pfn9qGPlzArYa6WnRj2U-11" style="rounded=0;orthogonalLoop=1;jettySize=auto;html=1;exitX=1;exitY=0.5;exitDx=0;exitDy=0;fontSize=18;" edge="1" parent="1" source="Xq1n-c8aseyyMUb2qtHi-3">
          <mxGeometry relative="1" as="geometry">
            <mxPoint x="580" y="548" as="targetPoint" />
          </mxGeometry>
        </mxCell>
        <mxCell id="Xq1n-c8aseyyMUb2qtHi-3" value="" style="rounded=1;whiteSpace=wrap;html=1;fillColor=#f5f5f5;fontColor=#333333;strokeColor=#666666;" parent="1" vertex="1">
          <mxGeometry x="300" y="505" width="140" height="85" as="geometry" />
        </mxCell>
        <mxCell id="Xq1n-c8aseyyMUb2qtHi-5" value="" style="rounded=1;whiteSpace=wrap;html=1;fillColor=#f5f5f5;fontColor=#333333;strokeColor=#666666;" parent="1" vertex="1">
          <mxGeometry x="300" y="372.5" width="140" height="85" as="geometry" />
        </mxCell>
        <mxCell id="Xq1n-c8aseyyMUb2qtHi-6" value="" style="rounded=1;whiteSpace=wrap;html=1;fillColor=#f5f5f5;fontColor=#333333;strokeColor=#666666;" parent="1" vertex="1">
          <mxGeometry x="298.71" y="240" width="140" height="80" as="geometry" />
        </mxCell>
        <mxCell id="Xq1n-c8aseyyMUb2qtHi-10" value="" style="shape=image;imageAspect=0;aspect=fixed;verticalLabelPosition=bottom;verticalAlign=top;fontSize=18;image=https://i.imgur.com/NCVpXOi.png;" parent="1" vertex="1">
          <mxGeometry x="324.99999999999994" y="275.73" width="87.42" height="33.03" as="geometry" />
        </mxCell>
        <mxCell id="Xq1n-c8aseyyMUb2qtHi-12" value="&lt;font style=&quot;font-size: 18px;&quot;&gt;ArgoCD&lt;/font&gt;" style="text;html=1;strokeColor=none;fillColor=none;align=center;verticalAlign=middle;whiteSpace=wrap;rounded=0;fontSize=24;" parent="1" vertex="1">
          <mxGeometry x="340" y="505" width="60" height="30" as="geometry" />
        </mxCell>
        <mxCell id="Xq1n-c8aseyyMUb2qtHi-13" value="&lt;font style=&quot;font-size: 18px;&quot;&gt;Prom + Grafana&lt;/font&gt;" style="text;html=1;strokeColor=none;fillColor=none;align=center;verticalAlign=middle;whiteSpace=wrap;rounded=0;fontSize=24;" parent="1" vertex="1">
          <mxGeometry x="300" y="372.5" width="140" height="30" as="geometry" />
        </mxCell>
        <mxCell id="Xq1n-c8aseyyMUb2qtHi-14" value="&lt;font style=&quot;font-size: 18px;&quot;&gt;EFK&lt;/font&gt;" style="text;html=1;strokeColor=none;fillColor=none;align=center;verticalAlign=middle;whiteSpace=wrap;rounded=0;fontSize=24;" parent="1" vertex="1">
          <mxGeometry x="338.71" y="240" width="60" height="30" as="geometry" />
        </mxCell>
        <mxCell id="Xq1n-c8aseyyMUb2qtHi-20" value="" style="shape=image;imageAspect=0;aspect=fixed;verticalLabelPosition=bottom;verticalAlign=top;fontSize=18;image=data:image/png,iVBORw0KGgoAAAANSUhEUgAAAKAAAABSCAYAAADTld8/AAAABHNCSVQICAgIfAhkiAAAH4BJREFUeJztnXl4XNWZp99z11q1WZIXyZu8YvCOjFmCsdmMwxogEBNwFggDPCQTejKd/mPSk+5JJpkknUnohAQITJol7KsNBoKNjQ3e4h2MdxtLtmztqr3q3nvmjytLLqskq0ol26T1Pk89j3TvOd85VfWrs37nu6KtrU0ywABnCO1MVyB15BD2sVrsYzXYR4/gNNaCZSGT8bR0wvAgistQAsVoFaNQBg1Gr6xCCQTPUM0HyAenXYCpIzVY+3aQ3LUZa+cGnEQUmYwjkymwbXAkSIl07LR8QlGRQiBUDaGrCF1HmF5EoAR93HTM87+EPmIcitd3ut/SAH1AnI4u2ImESGxZQ2LjB6Q+W4m0TZx4HBJx4HjxAoQCQnRvSLanlc4J+VSEx4MS8CM8Poxp8zBnXoI5YWr/vaEB8ka/CjBVV0N81Tsk172NHWpGxpLIeCsoRrvYlO4zOw4yGUF4TtXFui0m7S2m8AZQgn60ivF4vnQt5vSLUDwDreLZSr8I0ImEiLzxNIm/vYPd0oqMtLk3VA3ooYVrR6biqIEizIvmE1v+WnaFS8cVo2agBPyoQ0bhu+p2vBdekf0bGaDfybsAo8teI7rkd9gtSWQ0DIrac0t3Mo6D8Hgo/uHD2E0NtPzyQYSnIIeaSLAtECpKUSFG1RT8X70ffcSYHGwN0F/kbRJiHdpL+IVHSO7ejN18FKF6QNWztiPDBym89wmM8VMJv/4fHV1r9gi3fClxmptIbPmI1Ocb8F72TQI3faM3DfEAp4G8CDD20XuEn/8pTlMcaaUQuj8nO9JKYMy+CXPWPPd/26bPShGuEKXjYB1tJLLkCVI7NxD81g/RBlf2zfYAfSaLvjEzoRcfJfTML7Dq6pGO0z7Oy5FkDN81d6J4vQBoQyrbZ7x5QAiEHkBGIyS2r6Pl598gtnZ5fmwPkDM5C9CJx2h95J+Jvv0UTlMjQg/0vIRyKqSDWlaBOXF6xyVt3LmntCmtRHYiVXVAkKqtI/TEPxFd/maOFR4gH+QkQBkJ0/b7HxH76B1kLJrTWK+LTSuJOnxC2kKyVlKOMXWOK7JMeRJhjKmXohQUZyfC9tbQbgkTfvG3RJa+0Nfq/91g1ew/reVlLUAnHqP5V98nsXm1u3ORrfi6E4p0UAYNTbskVA3f5bdAMpYxvVpWie+qW3Baj5HLWFHoAZzmRiKvPEJk6YtZ5/97I7L0RVp+fS/RJ3+KE8/wmfcDWQnQicdo+8P/JLF9rTtBUNTsSpMOwvQi421d79kWSrCoy2Vz+oUohYO6CFeGDxH46gMIw4OMhXPv/lUDJ9RK5NVHiK54KzcbfwdEV7yFteQ3KEcPYX38OqEnf3Zays1KgOFXHie+fhlCM3P6wmUigu/q2wjcej8y9PlJNx2UYGHXCvqDeC78MjIR6UxqJdDGzsJzwTxkKnP3nBWqgdPWQviZH5PYsanv9r5gWDUHSL32C0S4Bc30g5XEWfsS8ZWv9nvZvRZg5L2Xib33nLsFm23LdxwhkCj45i/EvPhmZCLceU86qIXFGbP5Lr8JmajvvJCKEbj2Wyje3JZ7MqIa2C0h2v7437COHc6f3S8A4VcfQzTUguJxLwgVVQhSbz7a42cho5Fu7/WWXq2ZJPftIPzc/0bGHVCN3EsTCnbjMdTCEoILHyK56SO3axUKIFFLBmeu5Igx6ONmYx+ta7ejYlbPBUAfPCL3+pxcPaMAq/YwbY//hKKHfoni8ebN9tmIdewwqZ1bYev7cPLareJBNtYRf/Qh1PJx2GVj8VTPAcMgvvo91M83EGs8gveG7+KdeWnOdTilAJ1EjLbHfozTFkGYXbvIbBHt64R65WjMWVcS/+hNhOk6HGiDKzLn0Q28l95E6OlfgGqgn3sRSsDdnlPLh6AUliFTVnZbft3VzyggsWkF0XdfJnD91/ts70wioxHsSCsAqr8Q4XNFZtUfJrZiMWLncpzWCIqdAJGhVxMqzp7tOJ8fQJqriW9bAqqKXXcUJ9IM0RasZa9AfwowsuQvpHZvQ5i57MeehJ1EH9m5F+uZcy2xZU8iDD9KYRlKSVm3Wc3quYT+/FOQDp5ZczuuC91AnzSbxN+WIXRP3+soBEIziLz2a4zzzseomth3m6cRq/4I8RWLUev3IEP1OO1LWIpmIkpG4FRMQm56Hbu2BiXSCIqeWXzHUT1gW4hIM07oGACiPY/mK0Lu39in+vYoQKv2INE3HkYYvr4tMrcjk01oIyd0/G9OnIbwDkJaSfSxUxF69927NrgCrWoyqV2r0Ksmpd3zzrmO+KpnEfqoPtcR6JiUhJ7+NYN+9Mf82DxNJD/diPXe4ziWDXanV7kDYOxA+j5GtNSiKLorro4ECaTlLr0Io4iUpwTd1CAWgnhL5z3N2ylYoXb6aOZIjwIMv/IoTjiG8HRdHska6aAWVaKPHNtxSfEF0EZNJfXZB3hmX9ljdqHpaKPPw9qzHnVIeldtTq5GHTwOGU3kpRsGEGYhyW2riG1Yiff83LuY040TakG01YJvSLrAAOwUou1YRuE5I2djjJ2INmIsSnAQpuZBUVSwEzjhZpyWBqyavchdm5GNe10hKiYkI1i1n6NV5DYW71aAiV1biK9dmpdxH7g7HeZFC1B8gfQKDB9HavsSjGkXntKGVl6JUjQc9aT1QsUXIHDjfbQ9+gNEcHhe6osQCEUj8vJjmJOrUcwvxoRELS6jR/+hE7pbmWyFSZfjqb4UKiahlQ5GKRyEMNJ7ImmlkMk4WksT1B/C2r2J6PuvooUPIfQAiaf+BfV7v0HksCrRbXMRffMpSFl56XoBsBJ4Lpnf5bI2uAJ90jy0siGnNKGWlaMOG4PQuu6+eL+0AG3UVKSVzEt13cp5SO3ZSGLLmvzZ7Gf0keN7lU4mW9Gv/jbeWx/EuPQWzHOmoZYN7SI+cHsfxRdEHzYSfeolmFfdif/uf0adchkyFcbe8RGhZ3+bU30zCjB5YBeJdW+AlodBPbjdb3F5mqPBcYQvQPD2hzKK6mTUkqGow0ZlvKcUFBFY+ANI5XEL6Xgr+Pr/y5/NfkYtH4oI9PxjlslWjOsewFzwLYyx52YUXU8oBUV4Zs7Bc+v30ebegbRi2Kv+QnL31qzrm1GAseWvI5N23lo/mYxiXjAfxd/1fIc+aQbmlAt6ZUcEC1CKSru975l+EdqYfmgFd20geWBX/mz2I8IwEdXXu91rBmSyFWXWDZjzF6GWlPepLG3UJMxr70GZfTNKvInkS7/tPCvWS7oIUMaixFc8g/Bm3pXIBRmvxzvn2oz3jBFjEYbZKztKsKjbtUJwP3z/VbflvRVESmLL38ifzX7Gs+BOhFmAMGTXV9EwPDc94HoQ9YB15BDxLWuIrV1OfNNqkru3YTUc7ZJOK6/Ac9MDyLGXYn+6guTB3VnVtcskJP7JBpzmBkQwT97C0kEtH4M+KvPYpDddb0darw+leFCPaTzVcwj9pQwZj+dvRmz4iK94huDCB74QkxG9cjTxWdfBlsdBnNDKyWNol92LXjm627zJPdux176MbPkM60gcHBURCIFdjFqmkyqfgTrzWoyR49LK837tByT+7Q6sdW9hjPper+vaRYCxFW8gPCW9NnAqZDKK97I7et3K9YiioBT0LEClsARj6peIf/g6wgz0mLb35Wo4zXWk9u/EnDgtPzb7Gyfmju1EpxeRVMsxL7uh2yyJD1/FWv9nZM0BkG2IhAGKjohFkAkDpykJ+/fgHFqNnHwL5tzbO7zgzEnTsebcgbPlKbj1e732jktrIpxEnNTWVaDl71cuEw0Y1XPyYksxTPSKUadM55l5GeRzHAigF5BY90F+bfYTTiIOe5eAGgRFgiKRTj1K1VzUQZn32xOrXiP1118gD21FOvVITyXKqOkoo2cggxNAD7n27CjywEZSy35F/LXfuGW1Y161CNmyCxmP9rquaS1gqnY/Tlsjwt9zK5MNQqiYY8/Njy3NQAROPWPTq84h69HwKcv2EF/3HgV3/de82u0P7JYGiH4O3hO6WiuEOvnyjOmtuhpS7/0C2upADaLN/ibqyJkIfwkoKjIWQjbswNq0Cqd2JUIvhUgjqVW/Q6om3uv/CwDa4ErEiHnYLY1ovQyRki7AndvyNm4CXB+/8nEogfwsZvcWtaQsL8cE0o3qWIc2I2NRxFkef8Y5uD3jda1qcsbrqTVLoO0IqEH0Bd9Hn3EdSlF6IyQTF6MMm0Fy/TCczc8htFKEHcJa9TuS516KMcbdHtUuuAvnpMBSPZEuwD1bQclfvCJpp9BHZ37T/YkwTXf/usPVKx9GBQJI1R7AGDvplMnPBE4yTmrtWzhb/uTOcrXO8Z8wihEFXR1KnGQcZ/sTCD2BMuNOjIu/hjC7jteFaaKfeyGipJJE82E4shK8JQi7DWvl/8WoehQEGNPmZHUyMu3bsQ585no75wvHRhs6Mn/2skB4/H3eKO+CGsD6/OxcD3SScZIrf4+97pfI1q0oRX6UgN35KvRnnsEnEghrB8IXQrvkjoziOxFt6HCML/8jwhfqsMvhxdgN7mEmpWhQRs/27ugQoJOMYx+ryXvXlcv+YF7KzWJ5p9coGqnP9+Xfbh5Irv4zzqZHEPYhhCcAmuzykk6GA2GOAwYIXyHa4FG9KksfPw0xdHanbRHG2rM2p3p3CNBuaURGW/O399uOE85wAOk0kJezIichNBP7LHTXT+1ch/O3hxFOHNTMS08y1QLJrp+JVNslYPh7dIfrwtArXZuAUAtx9n6cdb3hBAHKWBQcKycj3SEUDfvw6W8xZCyGE2nJ74QKQFHbj4CePTjJONaqnyDsVjBP6G3Uk4YfTgT76IEu+RXTixh0ATLVit1c3+V+dwhvGTjtZ0K0ALK1NofanzgGTOV53QzcmeP+bfm3ewrsxjpIxfPemgM4rU15t9knovXIo8td8Sm4wlNl+t+qRHjA2vNBl+xCN1Av+D6kIiTXPNvr1SvptM90j9v35uYz2jkGzMMJpy4IgdNST6rmQP5t90By19b8L8O0IyOZN/nPFML0oky5B7RW0CWY7a8T/zYl+IJQ+yJ2c0MXG/o581wb+/5EauNjbpr2ILR2cwMylmFvPbQZ4Q922pefYTcczLr+nV1wvncOjqPqxFYu7h/b3RD/+B1EvlzJTkKmUv1iN1eEtxTj4ofQZnwXzGIQbQhTdrxQcf82/Ai5j9TmJ7raMD0YFz+Ecs71WHs/JLX2x6Q++hGpj39EautbXQLGy1gMmj5ABP0dZZDaj7Xl11mtAcIJAlT03JdfpJ1CJiPIVAxpp9KiGAjdS2z5Mxl/ef1B6uAukp+uTW8BpePWMRVz65nsh9b+DKIUV6DN+D76rO+jjLkdGZjYMUMVJ86EDT8ceoHUrlWZbZz/D+jTv4FWNhqpeRFmEWpZBeKk5ZvUZ0sQoi2tDGH4kbVLsGs3Z1X3jhXDrGZAJxG8/hvYkVbsY4exm5twGmpxjndVqo489jmxFYsJ3PiNnMvoLeGXH0MmYh3BKQEUfyFKsBitfBhKYRFaSTlWKERs2cvugnUWKN48OTjkGeHxoJ13G0rFxTj1O5Hh7djHDsKxk6N/tWJv/XeEx4s2YmbaHbWgGArmAW7ECZGhUbJrNuHseiJ9wqN1Dhyd3S/C6Nm9rnfnkrWe25hJJqMYs69CLSnDrj+M3dyIrK/BbqrDbjqG3dSI3XCYyFuPoU+YhnlO/3mTxFa9Q3zNO6jDxrhiKyhCLSlHLRmCKChBLa9ACRajFpcSXvx0TrN+ETy7n0uiFFeiFFciU5cg6muw1+xEhk9aPI/+DWvLw8jIbahj5qFk8FTKLL7NWFsfhkQ3Pn96Ccqg7M7kdAhQKSjOaeAukMTXvk/B7fejFna6ccl4DLu5AbvpGE7TMeyarTihZneW1Q/hcZ1kAifUSvDWe1GHVLliK3DFJk6KcCDjMWIr30Do2Xn9SMdCKejeI/tsQugm2rAxiCnfxVp/f9cE4Q+xPz0Kic3IIVehFE3q8jkdx25pRDZ+hL3vFWhdiThxdMMglMqLEXoBomAC6uieTzeeTIcA1aISFH8R0soywoDuI7bsWfxXfAW1tPMsgvB40YYORxt6/BdxDXZrU7/FZhYCPBddkfYj6I74xtXYh/dmH/zcSqAOq8qxhmcGtepqZOg7OAcf6XJPsAN5YAd26FNk4STwlCECY0AtBEsF0YQM78VpPQCNaxDxPXCSRpXR96KOvswVoLf7wALdccIY0EQpG+4uHGcjEiFw6muJLn2e4Nd79oTtjThyRegmauGpJ1J2axOR1x6DLFs/wN3b7sGb+KxEAWXUQpzDv++8pkqwRedidWQFTttKpAyiFI8BpQBpaeA0QWwPEHLT6SI9/6BbUM/5esYuvLekuS2oFVXYNbuzjn4lfGVE338Bs3ouxoQpOVfmdBBb+RapvdsQ3hxCjVhtaJVfrBYQQMZr03ZGhCbdkdAJkwd3ZNQGMTfUhgCkJbqkcQmiVFyHGPFAn8QHJ3nD6KMmIK3s1nEAEApOJET4hYfdbvYsJblnO9Glz4CRm8e3hC/kc0aclsPuUsnxZRnSxXf8/0zXMqWRJV9HHf8QaknfgwCkCdA8dwbYuS20CsNHYuvHRF57ss+V6g/s1iZCz/4f7PpaRC67JHYKrWIyalH+vMVPGz24pUkr+1m9MmoRwte3I53HSeuC9eHjEL4Ct8I57KMKw0d06bPoE2fgvWDuqTOcJmQ8TuS1J0luWonwnzoCQ0YbqTjG9LPnPWWDUjwM55BI64alFUSUX4LinY5QW5DxRqTVBsfDJyfrwNrb1Zg2Jq8/wjQBCq8XY9IFJLesgiwXaF0DChKb8HO/dUN6nSUBHu3PdxN957m+/WpTLXjOoh9VNiiFVdjmFLdLVYKIQAVCH4My9AqUovHggIwfRSZbkTHXxYpkDc6hP0H8hGgHtkBULOzzuO9EujwrLrriLVr/7Tt9OhcsUzHUIaNcr+SzAOfYIWSyD5GzpAQlxuBH1yK8Z8ePKlvsmvfcP9QClMJRCF/m03En53GOvIZsXI4QYaQ5BX3Wn3qVt7d0cd43p8xCFBS7D47O0Z1J6F7sI/v78Jy3/CIMX+5xrQFSUTyX3/qFFR+AWpndAnFHHs94pH8iJI+ilF6aV/FBBgGqxaV4Lr6F+LKX3M3rXLAttBETUXxnx+kx68gh98mdOf6gZCqBd96Nea5V7oTbooTa99oLi4rw9eMPQy0dCaUPImOxfhlSZTy+5Lv6NmLLXkLkOBmRqSi+eTejjRp36sSngfCrfyK17WPQcnC4sBJoVef1OuxZfxKNxdi0bhM7d+1C6JJkNIXHbzJt2jSmTu3bE+Lr6+vZs2cP8UScimEVjB+f/n77q/XPKEBj9ESMc2eT+mRtbpMRO4VeNRFjYt8+lHwRW/k2ScdCkL0AZTKG/7pvoRj941/YW2KxGK+//jr7PtuH4dcZPXo0MRln74G9HK49wvjx4/H2QSTPP/88oVAIRVO55CKjiwD7i24PcPpvuofmTz7OuRU8m5C5HjewEmgjJ+K9IHNEgdPJ6o9W89f33uWuuxYxY+ZMggHXLaympoaNazdh2b0bb8disS5Cra9vYMmSJfzwhz+kqLiYqqqqtPRAt+KWqSRxy+72fqbyTqRbAXqmzMKcPpfkphW5tYJfdKR0W78b7j7jk49YLMYLzz/P/PnXMGdOepydyspKKivTVyzeeP0NyksHc6zhKLquc82Ca6irq+OTrZ9S11BH0Btk1NiR1B9p4KIvXUjt4VoMwyAaidLa2sr4ceOIxWJs2biVvQfdtcDhw4fjMU1KSkoYO3Ysq5Z9hGaq1B35nEgyxbixY5k1a1ZHHfYfOMC2LVsJRcIE/QEmnTuJT7ftYMGCBWhm54SwxyPsga/eR/PODciU84VvBbMmFUM/53w8F11xpmtCWyjEoUM1zL+6M8Tx+vXriCfSj1l6TJPq6lk88odHOHfCeXgLvAwrL6OhoYHnn3+e+roG/IV+om0xtny6he2btnPetPM68h/Yt4dEIo41dy5/fXcZ69euI1ji7pTs2PEpzU1NzJkzh7Fjx/Ly06+gFghKSksQmmDLls14vV4mT55MXV0dzzzzDI0NDZQPHkw0GmXb9q18+MFHXDHnCrQTPKx7FKAxZhKeOTcRXfw4wpudJ4u0Uu45EyfP0QmyRRFgZ+l46lgIr4/A7d8742O/4yiKgnZCyIvdn+4hHOuMQrVrz2f4fF6qq2dhGAajxo/ixutvYFhZKa+99TZbt23l/vvuY/z4CbS2trL07XdZE0s/y3vvPfcAUN/cynN/eY6FX7+NeZe7w48NGzbw+4d/n5Z+0NBB3Pft+1BNhSeefIKnn3man//s53zw/gqO1tVx9913U1VVRWtrK48//jimT8ex0g/HnzKIh//6RaS2L8eqPdL7mNGaSXzd+1gHP0HYeXrieY5IVcE+cjCrmDcyGcX/5XvxTK7ux5r1Hq/Xi+M47N63hymT3Vg7V195TVqa//Xzf6G0tNMf75KLL+nomj/8YCWzZ89m5szzAQgGg9x808089/yzaTYU0/1+9+3fhONY3HD9jR3eAnPnzuXFv7yUln7G9BkUlbphOGZVz+JnP3OfsLlh/Qbmz5/fMTMPBoN85aabWb9+fZf3dspvRRs0mMCd/4PWf/8n9+F0vfgihRkg+u7zYHcz+O+PBWqhdDtMEIYP0cslGJlowZg0i8BX7sln7fpEQTBIdXU1SxYvpqKigkElJQwa1hlid+PGjRypreOuby7KmF+gYMXTe4GU033kCFXTcGxJLNE5gbCTNspJH2FBN8cTzIBBNJoeI9BKWDgZQoP0qlnwTLsI68uLCL/yx17vkAjNyLzuJiUiUJCbR0oPyETMDYzYl7GqFUctLSN4138/60KwLVq0iJ/85Ce8/NJLXHLJJZSWlhKPx6k9fJhnnn6aGbOmM33qNJBgWeliW7DgSt585R0+XrOGimHDCIfDrFq1Cr2bc0BDhwyhcFABby9dyvRp01BVld3b91B3uHdRIS688EKWvr2UsWPHUFFRSUNDA++8vxQjQzT+XvdLvgVfw6k/TPT9F92uONcv2orjvewu1KLs3bd7Ir5hGalP1uW22AxgJRGBAgK3/yPG2PNOnf40M2bMGBbesZC/vvdXEskEJSUlRMNx6uqPMK5qFN+8594OT3aPJ32oNO+yOXzyyW7eXPwmwyuHEw61EYlEGTLE9QwydQ/+QOdpv+HDh7PwjoUsfXspDfXHsB1J09EmJk44x316EqD50rc2VU3rsHHppXP4ZPsnvL10KSNHjuRwbS2KolAULEao6brptQAV00vwzoewGg6R2PgBwizKbZckGcWcehHmpK7PDOkLiU/XI6XM7ciJY4Fp4L/u2/jmfDmv9conV1x+BePHjWfnrp0cqaujKFDIlKnnUT1tSlrotRtuupGS4s4uWjG9fPPuRaxdt5YjdXWUl5VRXV3N+vXr8Xo8DCkbwvxr5ncpq6S4hP379xOJRbnyiitoa+sMNDV77izKyjobkSGDB3fYKAgGue+++zrKq6oaw5VXXsk7i99F96W3ul28YU6F1VBH228eJLlrV04toYy1Elj4DwRvvjurfD3aTCaof3ABTjiUvceLlQSvH/9VXyX4tQfzVqcBekfW/kla6RAK7vsVxpRZbsuRbRBI3Ut85Ss4kVC2RXdL8rOt2A2HcxBfAuEP4r/ylgHxnSFycpDTho2g4Dv/ijlzDkLTsprVCs3AOrCF2KqluRTdBbu5nvBrj0KWzwqWiTaUokH4r11EcGHvn2sxQH7JOYCeVjaEovv/Fe/F17hRkqzeB4QUgQoiL/+BxCd/y7V4wH00aWTxUyS3ru59aGEpkck29JEj8N94L4GbvtWnOgzQN7IeA2Yi/PLjxD5ajF3bvuDbC+dPaSXQKscR/Nr9GOOnZxVXGNyHacdXvUroxUfdB9L0pvu1EghvAK2inMCdP8KccHZ46/xnJi8CBIhtXEV86VMk9+/Gaa1D6MFTTlCklUDxFeBfsBBjyoVoQ0f2KESZSuK0NWHV7CO24k1i7/8HIlBxavE5NjgW6tDhmJMvwnfdIrSyobm8zQHyTN4ECCCjEcJvPUNizSvYx9rcuHKq3rMQpYNMhtHHVeOdeTHqyHEohaVpwc1lIo6MhnAaDpM6uIv4mvexG2sQ5ikOlzs20oqgFFdgjBiF56o78FZflp83O0BeyKsAj5Pct4PYO8+R2rcdu+EYTqQRofl77JqllXC7SDOINvIc1NLyjjiDdqgVp+Ew9tGDIJ2eu1wpwbGQdgylaBjaIB/mrJvxX30Lwnd2HJIaoJN+EeBxEjs2kVj1Nsldq7FbE8hQMyDdx8Z3t3fbHkwS6Dwkr+ru1l1PopMOSBsUDaWkFK3IizHjOjwXX4VWPqxf3t8AfadfBXgcq+YA8XXLSX66GqelEbsthAy3uoKBTkHCqRe2j4sNOvILjx/hC6IWl6AWD8Gsnofn/EsRvrMzmOQAnZwWAR7HicdI7dtBasdmUnu34bQeRSaiONEE0kpBPIpMdcamkba7tCPUziUWYfpBVRD+AhTTQPEH3YCUI8/BnH4hWnn3D7Qe4OzjtArwZKxjtdgNR7EO7cVprsepr8FpPYa0bZASJ3IUoRsIo9h9VpuqopSNQCksRR06Eq1iFPqwkQMt3ReYMyrA7nDiMYRtY4dbUduftClVFeUsCfUxQP44KwU4wH8e8vwsqwEGyI4BAQ5wRhkQ4ABnlAEBDnBG+f+2WCEHy3H9pwAAAABJRU5ErkJggg==;" parent="1" vertex="1">
          <mxGeometry x="323.71000000000004" y="408.87" width="90" height="46.13" as="geometry" />
        </mxCell>
        <mxCell id="Xq1n-c8aseyyMUb2qtHi-21" value="" style="shape=image;imageAspect=0;aspect=fixed;verticalLabelPosition=bottom;verticalAlign=top;fontSize=18;image=data:image/png,iVBORw0KGgoAAAANSUhEUgAAAHkAAACHCAYAAAAyYvYgAAAABHNCSVQICAgIfAhkiAAAIABJREFUeJztnXmcHNV177/3VvU6Pbs0i0b7DpKQBiQQSKxmsZFjgwnB2E5s7Dwb7LzgYGObJPbHz07eJ3lxFsdxghwHLyS2icExGCRjwBiwWARoGe0zo20WzT6arfeue98f1VVdPRoJrVZPw5nPfLq7qvvWrfu759yz3VNiZGREU+SktUZrjRCCnpFuxlKjzK2ej5QSpRRSyvPdxXNKxX135ADOfqJjtIOtR7aSttIu8LnzxUlFDbIDYu5fcmS4g1+3PcOR0U4QuUlQzEAXLcheLnXetw21sbn7Zfb3H+C5/c8hFO4EQJzvHp87KkqQxwMspWQgNsiPdz5M29AhpkZq2Nj8S/b17XW/JyhesV10IHsBVtpWqtqH2lj/5r/Q1LcFU/hAa+LJJD/Z8QiWstBolFJFuz4XFcjjATakwYH+/Ty49Vvs7NtGQAfcddgvfbzRuYWn9j6BIQwbaF2cQBcNyONFtCENWvqaWb/127QdPURQBG3wNEgpMQ0DieRH237CpkO/xZDGMe0UCxUFyBOJ6Ja+ZtZv/xfaRw/hw49Go4VGC1vZ0kJjSpN4Ksm/vvYgrx5+GSlknqJWLEBPepDzOdgW0UdGjvDdpgfpHGknKMIoYQEgEAiwAdcCpRQ+w8fR+FG+8/p32dLxhu0g0aqogJ70IOdr0QZHY0f5QdN3aRs+SEiE0drKgpuzkQQCkf2otCJshuke7eG7rz/Evr69GNJAFxHQkxpkryNDCEE8HedHu35AU+8WG2AUCBBaoDkWKCFs8B2gDw4d4lubvk3n8BGkNFAqB/RkpkkLspfLHIfGU3uf5OWOlwgRsgHG5lotdB4n57UjtLuWR8xSmgda+OdX/onRxCiGYaC0As2k5uZJC7JXjAoheLPjdX51aAOmMnFkscDm4OMB7HzH4VRLZyjzlbKraxcPvvZvpDMppJCT3rSadCB7RbTjzeoe6eax5p8ST45l11N9UgA75Lo2ASUUfiPEi4df5Mndv7DFvJjcptWkA9kBRGt78JOpJBuaf8HhoQP4pM89fiKANfni17uuo21BIJTBL5qfYmvnm5PetJp0ILsRIwFSSLb1bOGVzk348dlKlhDHaNPjSUCeMuWdOM6r3/AzMDbAI9v/m57hbqTMB3oy0aQDGXJcODDaz5PNjxPLjCCy3AZMqEl7SQLGBDgJkRXxwta4fYafXb172NiyEUtZeaHJyUSTCmQvJ0khef7wb9g7uItA1lwSHoXrRCQEx+VG72+11piGyc93P8Gunp1IIfP6MVlo0oDsNZUQ0DPSxXOHNxA2w0DWzHkLDs619dYmkcPVPuEjY6X5z6aHyVhpTx8mj8ieNCC72q9WCASP7nqUo8kBDG3adrA48Tqc39bxOdkhZxIorQiYQZqO7OTp/U974s+Tx3aeFCA74tFSFoY02Ne1j+0Db9qhQ7Lm1Ely8clS3iTQ4NN+ftr0KP2xvmwCoDVpNO1JAbI3e8NSFpuOvMRYcgRDmq6idLJcfKrXBdsr5jf9DMeGeLbl2WyiweSxnQseZNfxge346BntpuXoXkxtgBbnDGDn2pDzilmWZnP7a/RHezGkkRetKmQqeJC99isamnq30TN6BEOYIPQpKVync21vlMtn+jgweJgXDryIVirPSVLIVPAgu1o1gtHEKFs7tpC0EggpXZfjueJk5/qQ86ClMile69hMT7Rn0mR4TgqQHaD3D7ZyJNppJ+OdpF/6TMmbt61QhHwhOobb2dG1A6Hz49mFSgUNstc2VpZi38BeBlK9duLd73BQXRC1HZseSY7xattrjCZG8yZBoVJBg+x6sIRgODFEy9G9Lvdq8bsD2QuiRuOXAXb17qRtqC0nzt/h5NMj7wB2jXVxYLAZHz7g3K7Dx6NcAqDBaDpKU0/TOybUmZK7HiPY1bOTpEwhkSfM9DjX/bENZDAx2Nq1jVQm5bpACxXsggXZux5b2mLf4C502tamz6XZdCLyxrHRgpaBFnb17MweVwW7LhcsyF77uGuoi+7YEQykzUnn2Gw6mX75DB/pTIqtR7baJwo4D6xgQXaS67TWHB49yJgVtd2Y4uz7qU+FvNxqKU1TVxNDsaNIabr9LTQqWJDROa328NABEskEUsi3zPo4593yuFkDZoDDw20cHmrDCZQUosguWJC10EghSafTHB45mA0xypNOzjtX5HV1+qWfofgIbUNtx7hAC4kKF+QsV0QzMWJWDMPxE3N+xTXkpwNLYdBytAVLZVxfdqFxc0GC7LWP+6J99MX68UkTx5V5PjnZ6ZcQ9l6qiC/Ewb6DDCdHXDv6HU4+CXIT6hD0jnXTM9qLz/Cfk+SA0+0fZIMWQjIYH2QoOpTL934H5Lcmx+mghSZuxVAqg9DynMaOT4ccvSGeTtA52m73TxeeH7tgQXYGbCwzgmFIO/nuPHm6jkdC2zFuS2Toi/VlD57fPk1EBQmyEMJNZu+P9edVASgEcQ3kPF8AAo7GhwpOTDtUkCCD7dFKqTSjyVHbX63PTi7X2QIiL2PFAktbBRtyLEiQHWd/Op1iJD6CIQTiLIQW86sSnFlbXpBTVoaekZ6CtJGhQEF2EueEkPYuRWEbT2fcbt5+5jNryzthDCFJJFOk06l3OPlkyVl3LW2RtJJIJJzFtfhs4OBN15VIFBZpnT7zhs8BFTTIaZUmlhpDCoOzAfLZ5GS3TYQtabyKWIFRQYKcr1yJLL5nPoJnc032kpPQV0jmnZcKEmSHXKf/WRLV3pyxs7l0Fp6qlU8FDXJABqgIVGKROd9dOS7Zrs3C3s5akCA7/l8pJX5/wPUJFxK5W2i0QGswDRNDmue5VxNTQYIMtkj1SZMSXxil7Qp6hSQXx5efqCwpJ+gLFiQ3FyTIjugzDINSf2nWm5Qr+FIIlL+jUROQwYKMJUOBguzU7BBCUB6swFLKrQlSSGLbVeSkpjQQAQozma9gQXa4eWqoBkOYdk0Qzp6mfabk3QhnGCY15TUFm2hfkCB7c65rS6ZRW1pLSiVzSeznGeh8e1tjaIOaUC1AQQJdkCB7k+LqS+qoCdeQVmmcYsbnW2TniroJpBQEzAC1kTo3FFpo63JBggyABoUiHAxTF6pDebijEDgZARKBpTPUl9dRFijLc7YUEhUsyF5xuKh6KaFAEKWt87ZFZjw5+V3DiTHmTZlPaTCSS1t6R1yfHAkhkNmQ44IpCynxlZDJVtw538n14PjXBQLF3MrZCCELNnGgYEH2KjcNZQ0srlqCNpS7q/B8cbPXCZK0EkwpncKs8lnZTheeqIYCBtkerFxppwurltsGlD79OiHefO7TlagOwIaQJNIJFlQvZF7VfNsN66nvWUhUsCCDR8sWmkVTF1JpTsUSlvu4gVPl5rMRT3YmmaUVpmHSWLcCvy+ApQpTVEOBg+xyhYapJTU0NqwipVI4MeZT5ebczofT42RHqggtSGfSTI1Us3rW5VkuLkyAocBB9mrYQV+QlfWrqAhWkRHp03KMnGnSgCNVEJAmzbL6pTSUNeT1tRCpoEEGTy6V1sytmMf8ioVYVga03fVT4eYzFdeOqNbaLpG8dvaVHiXwHU4+bfJmh0SCEdbOuoqQvxSL9GmtzTbQp2bLehU2QxskMgkWVy1icfVikBTk1hgvFTzIbvguu03mopoVLKxeZD/KJ1s/5FTXZnESpZCPuT45cR30+7lhwfWUBsvcfhWqqIZJALJXxCqlCPlDXDPzenym33U+nOr2mVPhZG/7UkhSVpKltUu5pOGS3H7kAhbVMAlAhvzSh1prLp1+KQvLl5IkCTr7cK/jPMVtIlKAdZJzwqvhW8oi7AuxZtYaqiNT3GcuFzpNCpAB19kgAATcdcldlPrLyOgUUp9aba+TrbnlfkeAIQwyKs3sqjmsmbkm594sYNPJoUkDck5s2oNfW1rHrQtvBzNr1ng4eSKO9ipPjng9EdB5azGCtEpjmAbrFq8jEizNe+pbIa/HMIlAhvw4s9KK6+fcxMVTLiWWidlPenEZ71jO8q7tllIodeK4r3ctFgjiVpwb5t/AlbPXYinLliqeZaSQaVKBDB7xqMFv+nn/Bbcys2wOKZU4oRKWt0FN2sH+4y3h3jJOUkiSmSTzq+bxweV3YEeR31oSFBJNOpC9qUFKK+ZUzeOWxR8gHIygPM+GOsZ+zlby00ogLIm04x/HbR/sddiyLCKhMB+/5GNUh6egtTrme4VOkw7kfK+VDfSqhtXcMGcdaSvt2s3OnwO0/TuFYQapkdUYGYkax8pebhfCrumJAbddeBuNDZfYtjmTQ9ny0qQDGY59LoXf9HPzvHWsqF9JVEeBnCfM6xXTQNCCShHI1iHxpBTl5VHbFLcSXD37StYtXoeQubyuyQQwTFKQIQe0FNK2XwNh/tfFd7OgahFJHUdiuN4oJ3LkcGfIMqkQ4RyoenwBNkk6k6axbjl3XHQHIX8YrXLSY7KsxQ5NWpAh65oUuEBXhCr505Wfoz4yk6gVRQgjl3MlHFtbEBEh+0E0jjQQ5AEcS8dYXLeQz6z5DNPKG2xtWsp8CTKJaFKDDDmgpJAopagpreXuFf+bOZXzSOiYXY/T8S0LgSkElTJEpRk5ZjeiFIYNcP0C/nTNnzK9bDpq3KOBJhvAUAQgj1fELGUxv2YeH132x8wtX0iCGIY2skqaRigDraBOltv2dFZRM4RBIh1jcd0C7lvzeaaXzSCjMnm28GQEGIoAZMgH2hHdi2sW84fLPsaiyqVE1VjWWSLwWQEkghrKKDH9qGwSQDQVZXn9Rdy3+nNML5tuPxdSGJNyDR5PRQEyTAz0oprF3L3yT1g2tZFRPYrUELF8ICSmMLjYnEVcJYimo1wxZzV/csVnmF41w33w52Rdg8eTGBkZmdzTdBzlpfhkPVYj8WF+0PQ9th15ncusBUxV5VhYGEheTrcwf2Ejf7T8I4T84WMiS5MdYChCkCHfG+VwZSqT4pndT9G9cxuVvnIUCixFff18Llvze5imD8vKadHFREUjrr3kjQ5JbNHtN/2srltNlb/K9lxpjWH6mT93OaZhA2wYxbEGj6eiBBk8nikBzgb2ktIyppTXoZSFshShUAnVtTPzdiIWwxo8nooWZIfsvVM2BYJhIpXVWFYGISAQjCB95jE+62Kjogc5L1lACMKhUkzDrtJjGj6kyI9sFSMVPci5TEsbzFCkHF8gZHuyDAM9zm9djFT0IIPDzTanGtJEagkCwuEyN9G+WLkY3iYg2wDanFpeWuVGlZxjRczEwNsQZMPnQ5pmnpJVxEwMvE1AdsS1894NZliZ7LHz2LnfAb0tQPZyMmhS6SRKZYjHxuwj74BcHKS1zcmmL8D0GRfg94dJZ5xK88WNclH6riei8XuTB/qPYGXS1E2bbZtTsnjn+9sGZIeK1at1Iire6TuOxmdmTobtLWeL3jYgnyhGXOxgF2ap9XNI3g3l448VK73tQD7b5F3jbYlwslJBTBje9G6JPfn2PJUQJtA53gH5DOlYoE5eKnhTjbzg5rd9smUv1DHBFqetd0A+Q/J60BLxGJlkPOsnnYgDRbbOicbnDxMIhew27IaOiYal0ymSsVGEmOgJd3ZgRSmFL1hCMJhtSylE1hx0+vYOyGdIzkDGY1Fe/Pm/M9zfiS8YRmR1Wo3GslJoS9npSFKAEIRLp1AzfS41DXOZNvdCTNOHsizw5Hi/8dzPaG95E38wjLNlVgNWOgHS+awoKa1ixoKLmX1BI5GyStfud3dnPvDAA189byNUJCSEIJNOk8lYCCnoaWuhu72FocEu0JpFjdfSMG8ZJRXVmGaA/q7DdLQ2cWjPG7S3bmegq52ahnkES0qzE8EpOKNBmAx2t3Hk4C6O9nYipGDesrX4A2HSyQR9nQfo2L+Lzv1NHDmwh9qZCykpq0ApC2fd/507Q8bvHnyrtJuJvu8cd+hcpu6can8Bdr3xAi/9z3oSiSjL16zj2g98Mu98JpOmdfsmtm3aQG9bMxkrTU3DfG7+w/upqp3urtXONToO7OXJ73+d2MgQjWt/j2t//263rcGeDl584vsc2d9EKhllQeNV3PjBz2KYPrtYs5RIr2NgvJPgVI6PPz9+oCZ6nej9W33neJ+9GZrHu7b9ryZ0hkx0f8fr4/FeLSuNUopwuBR/MPsIIcOH1hplWfa/sjAMk8WXXMP7PvGXLLr4KoLBEnram3n+f9YTj8ezW3I1lmWhlMIwTYSQtgg2JFopLCtDJpOmqnY6V7z3o5RV1yENk4HuDkaP9rvSAEC6g6NUnhLhDMj4fUDjb857/lj1fzwA+e3lX+vYPCuVvUnvdcZ/dgbk2L7ngMn/jcz7nrIsLMtyFZ/x1/K2O34cjuVyGwillMuN7jkpEVIgpQGAlUkTLinjshs/RFXtTAL+IN2Hm9nz+nP2/WDrbw5Yuf9sW8JuSylFaUUVFVPrUUqD1u79ZmMyNidLKZGGkW0Q4vF4dvG2yynE43ESiXhuAD0LezweIxqNuonp42/ee6NSGmgglUoxPDLMyOgoqVTKDQ54wRFCIA3DzYWOx2KMjY641x0eHqKzo51oNJqnTU4EtvObVCpFLBolkUhiZe/BvYYnQKGzXCSlA5rO9neEZDKZHeDj73T0Tob8ievZymOYWFaGiil1XLDqBgxfALTFwd2vMTI0gMhOFrcN1662J6ZWVjYerskkE2RSSZKJKJHKqZRW1WTXdI8JNdDfRzwaZWBwgE1PP8mcBYt4z20fZMvmV9n07C8Z6OvBHwix+upruO497wOg7dBBfvvMRvbt2kEqnWbRkqXcfNsd1NTW53XOC1rrvr1sePS/2N3URCo+RrikhAVLVrD66uu4dO01OPU4ABLxGIODg3R1tNO6ewcH9u3l3R+4g3mLL2DDY4+w9bVNjI0MU9cwnff+wYdYfslleSLKISklA/0DPPP4o+xqepPhoSEksPSSVSxrXMW0mbMQho/WPTtYvGQZddOmo7X9dLloNMpvn32aF57eQPeRDlQ6ybwLl7HggqWsvf4mps+clX+virck7+R33k+ft4RIRRUDvbaoTcTGKKucklfFyNl+a5g+pGEABkb2XE/HAboON1NeVcPyK95NIBBAWRYiOx4mwH9/bz0bf/J9QuXVHDnYwnvvvIuWffv45WM/xhf0M3jkCIY/wOYXnyGVTJFMxvnht/6OVDpDb3sHfr+k6dVN9HZ18ukvfIWSSCRvlqfTaX728Pf42Q/XM3vRhVxz/buJR4f47bMbefShB/nNL5/gxvfdxj1f+LL7m/0tzfzjV+6n/UAz/mAEwzTQWnGwpYWOw/sR2mKkv5fm0nKad2zn83/1DVasuixPGkgp2bF1C9/86ucprajiplvvIJVM8OwTj/HI+n9mY9VUyqunMtJ/hJKySr78Dw+i623Ob9m7m/X/769pbzvA2utuZMUlq2jetZ0XNjzGc48/wgtPP8U9X/oKFzVe4hGPp1bK0eHwsuqp+P0hUJpMOsnY0AC10+fkO0a0Ldn6uw6xb+tLJBIxUJpkYoyWbZsIhEt4z0fup37WQrttrwn1pS996asz58yjftYc9u/ZSTqVpre7h/kXLuGT932RP/joJ7n0quvoOHyQ/u5utrzyIiOjUe6461N89DP38YE/+ji93b0cbt1HX1cbsy+4iNlz5rlrkpSSR3/4H/z7332VlWuu5i///t9ovOxyGldfyTU330o8EaO5aRtNb7xGuLySJcsbsSyL8vIKLlq5iqHBAQ61tOLz+xkbG+XWD3+MT33uS9z6kY8za9FiDra20nmoFYVg1Zqr8fl87kB2th/mG3/xZxzat4u/Xv8wK6+4ikVLl3PxFVexf99e2lqaCQTDXLz2Gj7wkU9wwfJGTNOkp6uLL338g7QdOsAX/vof+P0/+jhLLl7JVTetY9kll7Hrzddp3bOTQ63NXH7tDYRLSuy6YNjr5dG+Lg7t2UwqGadu1mJmL27MA9j7qrXCNH3s37mZof4jGFIytWE2tTMXukvN2PAge9/8DagMsdEh2lub6GjdTtveLXTub2J0qA8BDPV3EgxXUDm1Pi/dRQoBdQ3Tufn2D7Nk1Rp62nu56vpr+fT9f86Fyy+mrmE6q6++jhtvuxMhJSVlFdx9/59z0y23M3PufOYuvID7vva3TGtoIDoW5cDuHWQyGZeTDrQ08/P/XI+Ukg/dfR+hUIhMKkUmk6a8ooI/vOezLLyoESlMNj76Yzra2uxH6gYCLLjwIm67627CpWHiI8Pc8fFP8747Psz02XOpnz6DW+78GFdefxMaONyyl2Q8ljeIb776MnuatrL88muZWjcdK5MhlUpSWz+N1dfdhEIzpbaWT973AFdcez0yq2z9+Lvf5uD+Zq597y2sXLMWrRTpVAqlLBpXr+WOu++lsrqafTu28tSjP8pypnV6Dz/Rjhg2bRFr+AiWlNv3kMf+YFkWc5at5vZ7/5477/tnbrnna1z/oc+zuPFqEJL9O19n48N/w54tLzqJ5jYOINBKkYiOoZTCQhMIhwGwMhkymQxaKZYubyRUUkI6nUJZyr3xTCZNbf00Zi1eSjKZpK+7E8uy3A5u37yJzsMdzFvSSKQ0a+ybpqvUVVVPYcVlqzFNyUBvN63Ne2znQsY2R5RlV6kXEkyfbY5kMhmsTAatNTPmzSdcEmGgt5dUMumKQaUUA709aKXRVhorncwqlwZaKUrCJRiGj2QyQSwWtdcun4/B/n72bt9CMBxm1vzF+P0BVPac1jbnrVpzFbXTZ5FOxNn95iYspe129cmDrF0N2nZZphLZCSol/kA4T59xXpVShEIRKiqnUFpeSf2MhSy6aDU33HkvjdfcSlnFFDKpBK8/8xj9Xe3umizBlt8Ip5oOpFLZwcpqtghbBVBao5SFRtnHnEHTmpJIJKuNGnalHWm3191xmGQsTjAYzluHbEVFYRgGM+cuxJ/l8FQ8Zn/PKRTuFHbROfNJZpcB+72tHaeTcZLJRN465vMHKImUs795HyPDQ665JaRkZHiIRDJGZdUUqqunuObSQF8vw8PD9k7H7ETKN58E4XAJcxYuRgiIR8dIJhO2Bq/ztewTkRAgtF3HJBodJREdQQiIRCqorLEfeZCrQZZbX+3nZ9g42ExgYZg+VqxdR1l1HUKajB49Qlvz1pwm7w1T2bPHY4N6bjAQCLg36QAgPJqzUp7SZyLXRiaTxjAlY6MjaGvcoGVnWmlpGX5/0P6pYw6JcaaJyA5MdtK5E8WtfkmeKSWlZPGSJZRWVDDY08XGn/2EZCqJ6fMx0NfH5hefI5Axuf2uTxIMhWxbGRCGzJl0HvHr7bdhmATDYVvUKpX9pnYVr7dyrNifc5O2t62VsdGjCGlSPW0OJaUVeQyRjI1gpdOuCeWYVM54aa3xB4JUTJkGaFAWidhYtr/jolCOAe52yivX3fIK46aj90DWELdnmkYIqJ46DV8wTH9PF8PDw0ybwHtkZSwsZeELBgmGS/Jugjybl2NI4Ii8Yz1Ty1ddzrXr3s8T//UQP3/4B+zbsZ3aGXNo3tVEdKCHv/i39Vyy+oq8vcnhUJhQMIjWis5DrYyNjhApLcsbdK1V1uEBkbIphIIhez11FykxrofHhhIdE0cIweHdrxMbGaKkvIoLV70LXyCYZ04qK5PnSNJa244OnT/5nOsI00c4Up6zMpwTSqmsEgBGVgR7/zOO6HJmrXPOaRhb0QoEQwiZu/iCpcuorpnK6NAgz298yuYST7tCCEZGjhIfG6N22gzmL1qc50RRGdsd6MxixzPneukAraxsX/IdMT6fj09/4S+592t/hy8YIJ1MMHa0n0vXXsnfP/xzrrnpZpSnuoCyLKpra6ltmEE6bbGvaRud7W0e75eti2il6e3qxhf0s/Ka6/Mmvw2OcvsLExc+l1mJsfv159nzxq/RQrD8yvczY/6S7D1kJ272AeF2XVCV/SxA5SaBEHaYc2igm3Q6RVXdbBZefJU7DqYj2oLBEH6fH60hGA5nucmu8i6E/RwkKSTSkPgDQXf2SHd2KRCSkrIy/P6A28GljatYvuoynt/wBM8/9Rhrrr2OxsuusG9USlKpFFtffZlYdJT33PYH1E/LOuizA5/JZEjGUxiGD5/P5zjc3bXV7/MjpUAYJgF/MN/TphR7du1k28svUFZexgPf+Ffq6qeNG2zDfW9ZFqFgiOvfdxtvvPQc7Qda+eXjjzFrzjxCWWUU4MCB/ezZ8gorLr2cd627xeNVs6VKMhkjlUxgGgaD3QcZ7O2kqqbBqeGK0pCIjrJv60ts+sVDIA2ufO9drLz2lqz4t8nIbrG1LIVh+EgBw4N9JBIJgsGg2148HuPVX/03PW17mFo3i8tu+CChcIk7IYwHHnjgqwO93bzywnO89PRTDPR0EikrZ9a8hfgDQaSU9HZ38epvfs1rv3kOpS2qp9ZQXlFJSWkZqWSC3Tu2seGnP2agrwefP0D11Br8/gChcBi/30913TQOtTRzcO8OdmzbTHXNdAwJ/X19/Ozhh/jtsxt5/4fv4o67PuVOmlQqxaHWFp7f8DjbNr+C6TPxB/xESkspq6hESIPtr7/KS889TfPOHaAUZiiEaRqUlVfg9weIJxJ88+t/zsZHHiFcWs6BfbvYu7OJXTua2Ld7Jx2HDzI8fJRAMEi4JOIqn7Pmzmfw6FH2NW2lZWcTfX29hCOlZNIZ9u1s4j/+8W+IlJZxzwNfZ8bsOTmJNDzEwT1vsO+N5xnosSXA8EA3fZ0HOdrfw/BAD31dbXS0NPHyUz+gdccr1M1Zwsp33caKNe/J854B9He10bJ1E83bXmS4vxMQjBztoae9mVQyTU/7fg7v3cq2Fx6nddsLTFu4gitv+WNmLVjmrr1CCMTw8LB+5KEHeeShb1ESLMEMRUjFokyZ1sBH7v4sCy5Yyr/+7dfYsflFfD4/QvqIjQ2y5NIrufcv/oqDrc1882v3Y6U1/kAkb+oUAAAESElEQVSITDpBxtJ8+J4/Y90Hbndn+e7t23j8kR+y+flnSCeTzL9ohT1bpY+bb7+Ta258D4ZhuAHvnu5OvvHAF2nZsoXKWbWojCY1dhR/KMwXv/EgM2fP5hM3r8EMlGD6gkgpGDnay4y5C3jgG+uprasjlUqx6ddP8+gPvsvura9jZSwMw1Yj0skUwZIwpRXVLL/sCu76k88xe94C9/pjo2M8s+Fxnn/ipxzYuZ2ymgZqG6YTHR3m4suvZN3tdzJj1py8sOCuN3/Dy09+HyENTNOfVQnBsjJYVhqEgc/no7SsiikNC5g290JmLVhOIBTKivl8l+emDf9F6/YXMH0BlFKkM2mEkKRTCXvsfH4i4QhTGhZQN3sxsxc1ZmPJ+eu3GB4e1gP9fcRjUfz+oLseRKMjTJlSgz8QoKujDaQkHI6glEUykcAwTeobphMdHWFkeJhAKISybDGbiEUJR0qYWlOXUway7s2OtsN0d3aQSMaZWlPH3HkLCEcitoLhyXlKp1P0dncDGp8/kNVkNRkrw9SaWoQUdHV2EgyGsm48gZWxUNqitrYewzRdLfkrn72btpYmrrzx/Zj+IKlEjN72g+zdtZsj7YcBwR2f+t987J578WVtcee3Q0cHOdLRzkB/Hz4pmbvoAqbW1dtid9xgxsaGSSbjCGmQS9fx+J+zJmowVIIvUIIhJ07ec14T8ShWOokQklQmnZsA2OasAILBEL5ACaZpuEukV1kV4hwnDXg7f6KtKOOD5GfjukIIBvr6+ObXv8hATy9f+afvUDtuPT7Q2sw3/88DbNn0Etfd8vv82Zf/iorKqpyWrrFLIJ/gvrzXO51+Ou1MBPTZaAuwFS/0xA45701MRCc6P5Hd6tqIjsbAiePRp3Nd51rRaJTv/MP/5YUnf8Y//uhJauunkUwmME3bt21ZGebOX8jtd32Kzc8/QzAQJJAN9Lt9IBebddXn4/TX7c9x+jzuBvLuJd88O06K7/GaPUFbDplej9bx+3TiWXUy5/MuLo49N76dk+Hsic471xns66F1zw4ilbWo7AAZRs716NzxYF8v/nCExtVrCIXCeaYd5IL2eQ6YCfrrfj4Njh5/3/nvjx2zk23Lod/ZNhnhGaR8N+FbT5LToUhZOTPmzGewt4ef/+f36OnqxDR8mKaJaZr4/H4OtLbwk3//Nu++7YOsfde7jwF4oj6fq/6eSyq6lFyHyyqrqrl23a3s3dHES796kmhsjFVrr2FKbT1CSg7u281vf7WBlVddxyfuvZ9IpOSs6waFQkW3ddW7lmcyGZr37OY7f/tlXn7uVUJ+P4bpAzRLVi3n9j/+FFe+692u6ZZndhQR0EUHMhybrptOp0glkh7FT+MPBQkE7KCIt3BqsQEMRSquvdqp7cP24/P5J/wu2ArZ+N8WExUdyF7t16HjmWLjzxcjwFCEIEPxgnW69LapNPB2pndAfhvQ/wfBIEGPJzbKBwAAAABJRU5ErkJggg==;" parent="1" vertex="1">
          <mxGeometry x="140" y="528.1" width="51" height="56.9" as="geometry" />
        </mxCell>
        <mxCell id="Xq1n-c8aseyyMUb2qtHi-25" value="" style="shape=image;imageAspect=0;aspect=fixed;verticalLabelPosition=bottom;verticalAlign=top;fontSize=18;image=data:image/jpeg,/9j/4AAQSkZJRgABAQAAAQABAAD/4gIoSUNDX1BST0ZJTEUAAQEAAAIYAAAAAAQwAABtbnRyUkdCIFhZWiAAAAAAAAAAAAAAAABhY3NwAAAAAAAAAAAAAAAAAAAAAAAAAAAAAAAAAAAAAQAA9tYAAQAAAADTLQAAAAAAAAAAAAAAAAAAAAAAAAAAAAAAAAAAAAAAAAAAAAAAAAAAAAAAAAAAAAAAAAAAAAlkZXNjAAAA8AAAAHRyWFlaAAABZAAAABRnWFlaAAABeAAAABRiWFlaAAABjAAAABRyVFJDAAABoAAAAChnVFJDAAABoAAAAChiVFJDAAABoAAAACh3dHB0AAAByAAAABRjcHJ0AAAB3AAAADxtbHVjAAAAAAAAAAEAAAAMZW5VUwAAAFgAAAAcAHMAUgBHAEIAAAAAAAAAAAAAAAAAAAAAAAAAAAAAAAAAAAAAAAAAAAAAAAAAAAAAAAAAAAAAAAAAAAAAAAAAAAAAAAAAAAAAAAAAAAAAAAAAAAAAAAAAAFhZWiAAAAAAAABvogAAOPUAAAOQWFlaIAAAAAAAAGKZAAC3hQAAGNpYWVogAAAAAAAAJKAAAA+EAAC2z3BhcmEAAAAAAAQAAAACZmYAAPKnAAANWQAAE9AAAApbAAAAAAAAAABYWVogAAAAAAAA9tYAAQAAAADTLW1sdWMAAAAAAAAAAQAAAAxlblVTAAAAIAAAABwARwBvAG8AZwBsAGUAIABJAG4AYwAuACAAMgAwADEANv/bAEMAAwICAgICAwICAgMDAwMEBgQEBAQECAYGBQYJCAoKCQgJCQoMDwwKCw4LCQkNEQ0ODxAQERAKDBITEhATDxAQEP/bAEMBAwMDBAMECAQECBALCQsQEBAQEBAQEBAQEBAQEBAQEBAQEBAQEBAQEBAQEBAQEBAQEBAQEBAQEBAQEBAQEBAQEP/AABEIAOEA4QMBIgACEQEDEQH/xAAeAAEAAgIDAQEBAAAAAAAAAAAACAkGBwMFCgQCAf/EAEQQAAEDAwQCAQMCAwQGBgsAAAECAwQABQYHCBESEyEJFCIxFUEjMmEWM0NRJFJxgZGhFxhCYpOUGSU0Vldyc4LBw9L/xAAUAQEAAAAAAAAAAAAAAAAAAAAA/8QAFBEBAAAAAAAAAAAAAAAAAAAAAP/aAAwDAQACEQMRAD8AtTpSlApSsCvWv2hON5AcSyHWrA7XfEupYVbZuRw2JQcUeEoLS3AsKJ9Accn9qDPaV+ULQ6hLrS0rQsBSVJPIIP4INfqgUpSgUpSgUpSgUpSgUpSgUpSgUpSgUpSgUpSgUpSgUpSgUpSgUpSg1ruVgZ9dNv2odv0uflNZZIxyci0qiLKJBfLKuEsqHtLpHIQoEEKKSCPzVcGD/I5t22+6a27QC37eX8gx1qzRU3CambGUm9vvxkKkuyWltn+Ip1TiFoWolKklHA69RbTVMvy76XaK4/rRiTelFtgxM+yr6h7JbVbeqUOOOON/TSHGwQlt55S3uT6K+AtXs9lBM34o8oyLKttVzlzo0+LjcXL7nGxCLMkqkriWYJaU3HDqvucS04p5sE/6pA4AAqZtVHfHz8gKtKNNIe2yfoTm2Z3THZE16ErDYyLjIcZckLdd8rPI4CHHVDyJUpJCk/jjlW7738yWjmK5FIxrLtD9UrLNgu+KbEmwYrMuMr8kLYcfSUq4IPCiPzQWBUr4bFerbktjt2RWd/zwLrEZmxXepT3ZdQFoVwfY5SoHg+6+6gUpSgUpSgUpSgUpSgUpSgUpSgUpSgUpSgUpSgUpSgUpSgUpSghh8mm7bU3a9pzY4ml+PuN3LMHpMP8AtK6x5Y9p8aEkISCCgyHApSkd/XVpw9VcHrRnfL7e8mu8vIMkvE67XS4Oqflzp0hb8iQ6r8rccWSpaj+5JJq5P5k9WMFs+gVv0ikzIkvK8gvEWfFhBYU9DisdyuUpI9oCj/CTzx27r456q4qPwEaQtInztUV5hKWwgfQ2uwIixxLUfz5Zr5c+nA/7sV7n/u0HcbebdqbkurFjwHSbUGXh1+zCQiyN3Bm6SIDag4oENvOMfeUFSUfaArkhPonith697Fd2ei6bjl2ouAXC8WxtS5E3ILZJ/UmOPalvPKSS62n8krdSkf5mvvt247a5YsXkWnG9m0i035JRItmUxtRJRulumNqC2ZLa1xVNhSFpSrqlCUnj2Kn9pjvxz3dBtov+LWDSzUdjVd60PwLfd8XtLirY9c0tnwyPrOUtRElwJLiHVBIBKQV8hNB1W3j5iNFnsTs+K604fdMQudtiNRFzLRF+rta0tpSgKShKvOzyB6b6OAAfzn1UsdON8W07VedFtWGa4Y67cJqw1Hhzlrt77yyeAhDclLalKP7JAJNVbRPiX3Jz7FeNRtV8twLA40eNIvFxE+aVmMhKVOvLcEVtTDaEjsT0WUpA9DgCoKUHqopVV+1X5e8ExrDsU0u1yw+/QxY7bGtS8qjzP1H6jxI6B+Qz0S6n0lPJQXlE8ng1Zthua4jqHjcLMMFyO332yXFvyRZ0B9LzLo/BAUk+iDyCk+wQQQCCKDuqUpQKUpQKUpQKUpQKUpQKUpQKUpQKUpQKUpQKUpQKpb3wb8tzGXbhcm0Y0fyO/wCL2bH7s7jsK32BtbVxuUlpZaccU4geZRW4FdEIKR06eirlRsX3k729OdoOMR3Lywq+5heGlrs2PsOhC3UpPBffXwfCwFeu3BUoghIPVZTSnq3vH1w1bzm7Z9JvNvxa4XcBt84tb2rY6pkJCQ0uU0BKfTwP8Z1f5I9J4ADBNVsQ1VxbIUytY4t1j5HeG/rH271L8lzI9AKktrWX2lEccB4JUQPQIFZQ0/tew9phRgZzqPckEKdDjzGPWwEp5KeqRJkvJB9chccnjn1+DrrG8ayrP8miY1itluN+v13fLcaHDZW/IkunknhKeVKPAJJ/YAk+gTUosH+KvefmTyfr9PbdisVQB+qvt4jtpH+1tlTrw4/q3/zoMMwfeRO0tlNytM9vGjVjdjr7sSXrBJucxHvn/wBpmyXnQf8A5VJH+QAAA3NkPy46+ZDjmMGPBtuOZHi19ZuJcsqVt229QA2tDkOXGWpRAJKT2Qvj2SAhSUqrOsR+LjQbC28auW5Dd9jkJrK1FNoi2SVHis3BSOvk8EySVB1IK0DkND+ZPvlQFTCxnYJpnp3Phs6JaXYPYRFd/wBNybM4DmS3N/rxwqEwt5LMfsD6dKhwQf4BHCiHS6s7ub3rptqs2TbRMayq9Z7e7lALFtasT7rdu8a0uS25zqkCMGFNhbJKl9XPMOvPspg238Um7fUzJLlkzmA4XprDukt2W3apd9DjMJK1dvG0IwfUGxyQlKiSAACeRzVpGHaMbkbFqAm95Lu9uV8xCO+h1nG0YTZ4iltge2XJTbXfpz+ChKFceu3Put7UFFW3v49MG3BQMtmWXdZYLerB5DjN7Q5YHusdpJX/AKV3deaBjqDbhDh44CT2Cal5tN2KZPg1l/t9tt3yZJEs9zecQ4BhRTbp6m1dFOCNLd6OpPXhL6U/cn+RfB5qWun+0HbjpTc7/esA01j2WTkrsd66KZuEtSHixIEhsBC3ShtAdSFFCAlKgOqgU+q+HV/ezth0RgTX8z1csT9wg8pVZrTKROuK3APTfgaJKCfxy50SP3UPzQaf143o5zsgvuJ2DcHEt2otpytmY7HveMW/9JmxjHW2FodhvPutPch5BC0utD8jp67Hc2he8zbhuLCIumepMB67qH3WSeDDuKSACerDvBdABHKmu6B+O3NQM3H7Qt6e/W9QdeZUDE8SsS7clvGMSu13eRcYsBRLiFvJQwppL7vYLWFLCkjqhQHQCoRZxtf3A7cckt181f0XyWNabZNZlSJER0mK8024FKQmfG8jbKlAEBXPZPPPHIoPR5SoK7PN7mmmV3TC9M7VqRkF/i5h9dCt0HLHmXshsU+I2h36aQ+0AJcR5paixIWPIFMqQtTilcMzqoFKUoFKUoFKUoFKUoFKUoFKUoFKUoFKUoKH8c001D+TXeVmV0YyA2+x/Vuy5N0ebU4i2WZtzxRWWm+QFOFASAjlIKvIs/8AaqWW0fSfZJk+p+Qaa6ObapWpULDHEQ7/AJ7l8qPJhLdKlpSWYznLbgUW3Sktsp5CCT66k60203IbKd6WsO3nLVs2qFnMKSxjM9TnRCnOXHrWAs8AeRt5TX59PdUAk+6jRs73G6gbRl3LWXGLnjF1sdxms2S9YfLuyWbhc0pQp1uQ00lKltpb7KAfKSkFak8K5IoN576djW47Ctf75rTodhE6djM2SxPtDuGteOXZ1IZbR4hGjhLjZQpB6raSpPXqSQolIs42v5/eNUNAbNd3LLnWP3dmIq3rVnUL/wBYLkIQB9QvhLQktkkEOBKO4SeQlXNV37rflxZ1E03sdp22OZtg2UpuSJN2mS2IgbEUMuJVHbUFuFfLi21duqCA3/Xio/6QfJrud0jg5MXMnezW65G4wpE3LbhLuDdtS35ORFj+VLbRUXCVcDg9UDr9tBYPF0W1xwXO02beTkOE66aHPpkXBeTZLDgwHcTmpbUoPrbeVwhhz210QtxI5QR4wClfSa0fMNoJpo4cW0Uw2dnjsAJjpkNKFrtLaE/b1aWpCnFhITwOrSUEcdVkVWJqBr3rFucydy7a451lmQWu2svz3Y1sjJXHt6EpUELbipKGGk91ttqdP3BKuSVkBJ+nbbtS1s3BZfao+E6ZS7nY3JCfrLpcWn41paZCuFlySkp54HJ6NqLh4PVJ4NBLqV82msc1t1ix6IYm3IIWpsuS5UgJSEkklKSkngAknkegfxXbaLbu/kq3n3C4WnRa8acYq3bOhnTUMRm/pQfwS1KVJfUlXsdktKSDyOQeKmZop8cm2TQTUiFqpg1kvbl9taHRANwuin2oqnG1NqWlHA5V0WtIKirjtyByARuqToppDLzOFqM7pljKcrt6/JGvjVsZbntngg/6QlIcIIUoEFXBClAjgmgg5e/ji3baxwudet9d4eMltKZVptcOQ/biePYS3547R9/9rwgkfkCsN3Z/GFoPoxttn6iYJ+vSb1hRiz7nIlzitV2ieZKJSFIHDbZCFlaPGlPHQglXPItKqAOsu8Cwa4bNddJzkCNbGHTf7XihQ8pz9Zs8ORb4huHbjqns/cWk9f6gDtwTQT9SlKUhKAAkDgAfgCikpWkpUkFJHBBHoiumwq5JvOG2G7pc8gnWyLJC/wDWC2kq5/513VB0trwrDbHcXLvZcSs1vnPApclRYDTTywfyCtKQT/vNd1SlApSlApSlApSlApSlApSlApSlApSlApSlBV582GjLcqxYNr5bIY88F9eMXdxDZKlMuBT0VSiP5UoWmSnk/kvJHr96mq9Ge+PTEaubUNScQbjLfmIsrt1gNtjla5UPiS0hP9VKZCP/ALzXnjvt/F2ai26HBbh22B3MSPwhbiCsJLnZ4IStwFSSoBRPXkgce+Q2Bott6uWtdgzDILfqXgOMowy3/qUuNkd3VEkSWffKmEBtRWAQlJPrhbjafysVsbZ5j23zKbpNxXcJi+ERGUttz4l0v+V3XH5L7CiQsMuNpdiO9eElKFoaUrseHFcEJ1podpXqzls1/UPTfSRnUOLhj7Uu5WlyOJza0nkpD0NtxL7rR4PPUcHggn8immmH6nbrdXMP0mhZCuXdZzYs1oVdJjrke129hDr3hQVFSkMMth1SW088AcJHugsR2PapbWNHN6WW6MaCXe4XDDdRLVDatl3uRUQLxDVIUqLHWtCVKjuNur6rX/M40lIKwpJqynLsmtOD2WXmGQS/prVAShU99xwJaiR+/C5CyfSUICu61EgJQlR/bgwP29fEtA0p1SxTVDUrWqTmX9jnWZVqtTdtciNMyGl+Rjh0yFq8bbp7hsJAUfz6JBkDrNuE0hv+RZNtSusK5XjIr3bXbTcbAzKZtc6ZDmxuO8B2atmPK5Q44CG3u4Ugjqrg8BuVGf2hzPo2nrcC7LlTLIq/MXBEBxVtcYS8lpTYlAeMvAuIV4+e3RQV+DWTVFPYbh1r0jsWTaP2fUGbkNttk0TrZEvypsK+2yOslBjSLZKSAy0hSPskMcMvlSiEJKey5WUHw3yJJn2W4QYbgbkSIrrTSyeAlakEJP8AxIqqnHNoG4KR8fWdY/qLHRhtxxa3Pot1mkRkvvTLfBmyrpKJWhwBtcmQuOhKvuT0t7RCSHAoWpX2e3aYiLtIkOtRYjqVyfGgKBbVyglfP8qElYcUR7AbP7cg41rjLYgaK6gTpXHhjYtdXXOfx1TEcJ/5Cg6rbFdhfdt+ld4BJ+rwyyunn88mE1z/AM+a2ZWh9iF2/Wtnmksznnx41Gif+Byz/wDrrfFApSlApSlApSlApSlApSlApSlApSlApSlApSlB+HWm3m1svNpW24kpWlQ5CgfRBH7ivOffsc0r0R1f1l0m1Zwm43NmG3d7FjcyG+fPap7b/aDM6lxKXW1JQgLSok9HCRyfR9GdVE719scDM/kRFhbnIt8/UrGW77japbIVbpd9iNFCYUkq9eN0QuquPYVIbPBB6kIhaA5JpXh+n2oN/wAys4k5IIiI1hn2vLZlovdrcdSpvzR2EAR5rRWtHkbUvyJSlR69eVCQPxb7s9DtvMzMce1rEa0N3PxXW1X821clbTrLbiHIxLSFuJKkL5RwOOQ4CeVJB0JvS0ShaM6wqfxi1SLfiGawWcnx6M+gpXCYkc+aC4CPscjPpdZKCSoJQ2Ve1Vlfx74dt+1F3CWxO5LNY8aPAEY2O03NJ+kvUxHCGY77yvsS2gJRw0vgO/a3yRyhYWYaxb7dA810aut/xSVBzHDZEJTV0dW2/wBIcokhqDc46UCZARJKS3HnoQttEgJJIAR5dPbbtJsM3s4qnMNWXIObad21T9sx+7X28PxM3xaW2UKNuflMJS3cY486XGnHVlX8YEoBPROV7s8s0zi79tF9MoGnSv7R35lFryWfyhEG8Y5cEyIq7dJj9f8ASQkthxKlEBHXgBR4KN6aA2TaLDwmfpJonhLU3E1ZDe8PnFyC/JYemKiJeuDTj8nlbjSm0IZKiSlZaSgchINBtPRrTLItLMcGKX7Uy7Z1EgK8dnuF9YbVdI0bqAWX5KOBJ4IBCyhKv2UVcDjYNRl1z3TzdBsjukSDYW8nsllsEW/Kjx5gVLdhRJa417QytR4VJiIft0jxuq5WgvglPHcbuxjK8L1s01jZRhORIuWOZXbVmJcIa+qi04lSFccjlDiT2SUqAUhaSlQBBFBlZAI4I9VjGpuCQ9T9OMl01uN0lwIuUWiVZ5MqL187bL7RbcUjsCnt1UeOQRz+1Q8+QndXlG1DV3QzJ4DM+548lrIXLvZmJv0ybqfp2GWUuK6qH8NT3kHKT7qU2c2u8y5FpzeDlAx6HGjqXcHJikoZhRxHfd8rvKkhQD303dPIHVs8njmg0v8AGDKd/wCpxilikyQ/Ix65Xm0vOJPKCpu4vqHU/unqtPFStqF3xk2K1aaYzq9oLasxRkzGn2ocuKzcEoDfdlyMwOOgUrqQ6y+DwSOwVxU0aBSlKBSlKBSlKBSlKBSlKBSlKBSlKBSlKBSlKBVf/wAwWn15XpThW4HEHHYl+0wyFp0TmV9XIrElaAh0fsSmU1F68/grPH5PNgFYhq9ptZtYtLsq0tv5KYOUWqRbXHQkFTCnEEIeSCCO6F9Vp5B+5IoKnvkK1BsmvG0bRXXS344pDl2uspK5cZtIYt8x1pX6lBd5PfsqXGW80rjhaPIft6pK4I6b2C+ZlkCcFxbBxk17yJP0cFlpl56WwoHupyOhDiEqcCEK/vApIT2/B+4S923WHK8j0e122JZ3aJTFzEt+4Yu74iW28qt3LjtuQ4oEByS1EPRPAJQ1II9n1BiguLgZDt1umn2Da4XdrVHIM+2pCPa8mgN26L/aBLCEqQozY63uioyFhTgcbeWW0hzsT95GucZ+RfA9vW3bLIumeLXqRleVZ1lE7HRc7Y5HiNRnpiltSnXFDo6ptDjaVMoUVBaeqihJCjFP46tc7VoJulxzIMovbNqxm+sv2C9yX1cMtx30gtrcP4ShL7bClKPpKQongA1sLexfNs+Oa8Wq5bZM/tdxiWWcJc7HpUcXHD2npRT9SYfUrbU0tIT9Q0hHTj+RRKeiAyvT/OL1ui0ByFOJ44xE3C4Pd5ufvNR4A65nbZ0NuDc1IjAdPI8wltLzLSEpeKEqSCt5fEmvia0c3J6PWHJbdqzHk2HErtGh3az2C4MkyA++OTJQoK4Y5QgodYWnyBQbKkt/4mebP9LdsWP6u5A9jWENYrrDidsah3W0M5BKuNvagSktvIlWtTyuHIboWgpISC2VdClHI7TMoIpfIvtLm7qNF22sSQV5rh7rtysLXZCRN7pCXohUshKPIEoIUSAFto5IBJrYeX6QZhqVtktOkGpF7eu16m2u0R8sksvJYXclMqZcnNJcSAEB8tONdwAUpdJHsVuqvytCHE9HEBSeQeCORyDyKCG+huMYnoT8gOqWk+JWC3Y/Zc8wayZZbLdb46Y8Zr6NxyG4ENoASkqWtxZ445PY+ySamVUN92bTmjm4zbpuDTJkLtyL/LwPIH3OFKMa6pP06nFeuG2nPKv/AHJ49+lTIoFKUoFKUoFKUoFKUoFKUoFKUoFKUoFKUoFKUoFKUoK9Nzuk1uwLdzCu0me9ZcQ3ExY9lfusdZbNizW3qQ9Z7k2ofyu+RtpKQCArvJKuQoiqldZ05A3qxl0fL7LCtOQx7xKj3qLCBSwm4NuqRJU2n8ISp1K1dU8JT24SEpCUj0L7r9CY24vQzItNkviJd3G03CwzgrqqHdGD3juBX5QCodFEe+ji+PdUs7p8XvOrWLR91LFrcYvrEpvEtVLYGily05JGT4Uy1oH8jMtttB5A6pfS4gqKlAUGldC8sy/A9YMRzXBMedv18sV0ZuMW2NxTIVMDR7uNdEpUohTYWCUjlIJUOCARc9K0s+Pj5DbKm/2M2CTkbjAckSbDIFtvkQkcHzslKVOAHkBTzS0njlPIqkjT6z3bIMytlksOSwLBcZrimY1wnXH6BhpwoVwlcg8BoL/k7KISCsdilPJHE6jMdM8xeYTIuOPZLj01bKnI0hTEmHJbUUq6uNnlKgQfuSf9hoLmMv0cc28b6dBtSLXKukbTtzEE6czrm+ryhMtmO8zCbnPcADzqXDShRA7OtAf0EyMqzvFNNolyyvUPP7PZsfbejMB64ONxmoLjh6BLjxUBwtRSR244PPsgjipDb98hGvOpuE5BovrLordteMUftS412ds8Nz9YjQ3P4fkcLKFJd4JT1WUocCgFFwkCoVXHUPUXH8fyvSj9ZvEOwZBdI0662u4oH1Dr8XyBgulSe6VpDh7AEBRCOQeieA9LVtv9vuc7xQr1apjMmG1PhiNIC3HGFkjy+iQpskDqtPo8kftye2qkLTbUrUfbfoM0bjndjtWaYI/EzbTSS3eo1xiX2y3B1Ma8WblpxSS33DL64/ZLvdpTiQkoC6tv22a747uS0Zx3V7HIyobd4ZUmXBWvuqFMbUUPsFXA7BK0nqrgdklKuBzwA1P8gjeJ6gaE5xorLekN5UrEZuc2RCWFHyi0OtOuhpY9eT7kI6/zFLpI54PGydpWsbevW3TBdT1yUvTrna0M3QgcEXBglmTyD7HLrayP80lJHog1ybiot3smIuaqYFpX/bvUHFIcqPjduCwjuZgQ1ISslSezPVCHFo5BV4UgfdxVe3xPbkJ+K6tZptp1GtSMaeye5yr1aLUYiobduuqefqoKWV/c0C2hJQ2eOv05T+VewtipSlApSlApSlApSlApSlApSlApSlApSlApSlApSlAquHeNisTahuJa3IO42m86O6wsjFdUrCGytlTix6l+MHjuUJ8iVABXdt4dkl/mrHqxDVvS3EdatOL/AKXZzAEuzZDEVFfTwOzSvSm3kE/hxtYQtJ/ZSAaCg7c5tbtmh+tduxm251b16e5vFTfMPyl/u7Fctr4JZ8y2kqJ6EoStaEq5QpLoSAoIGrbdf7LjFoyLAc10+tV5krcWmLdWJpbnWyW2OgU1IaUpmRHPH3NqStKh7bW2T3M8NLtMMeyK85F8a27giNkONOyX9KsxKOrkcPcKDLJJBcYe+15LKiQeHWyUrQ30r41AwfIdM84v2nuWRRHvGOXF+2TUJ5KfK0soKkEgFSDxylXHtJB/eguM+Iqfplk2iEsY9ppCsN9sNxCp81u6ImmXIdZS0uQhC3FSIhcQwjyNEJaVwlTZIKko0j8x2qd3GTQ9LY8fETbTGjPOmVi0hN7S7z5CuPcJDPhVGI8SSYjvcK8rbnrsKiDtF3OWrbfmKL1dsPkzG1vpcF4ss36O8QkHqHG0qUFMSo60pHaNIbUgqSlSVNqHarZsxv8Att+ULQW8ad6fagxGL22lqfHRNgI/U7LJQoFK1MOfd41f3a1sq4KVqSF++CFMOgdn0NyLUGHYNfsiyPHsbnqSz+r2UNLMNwqA7PIcQolojnlSeSn89VDnj0L7dtINMND9JLHgmj7pk4yhszY05UtMpU8vfeZKnU/avvyCCkBPHASAABXnitGg+o2Sar3rRXFbfAvOV2WZOgqiR7kw2JjsVxSHUxVPLR51HqpSUI5WpIJCTweM/wAR1y3gbP3YON2vNcjw9oOqkjGLi+lxDJQ6ruHbe8VKjeRXYnshsuAhQ7Dqqg9EM+KZ0GRCEl+MZDS2vMwrq432BHZB/ZQ55B/zFRD3L/H3j2rmQvat4FeXrDqlarLC/RL+XiguXeC6hcaTKKR/EWtCA0p0pUpIS2QD06nZOy7dNad2mjEXUBqA3bb7b5CrXf7c2SW481CUqKmir2WloWlaeeeOSgklBNbY1Ax2+5XiFwseL5dJxe8PBt2Bd2GQ8YshtxLjaltFSQ80VICXGipIW2paCR25oMD2161XPVvEJVrzyxnHNScOdatOaWBZT2hTi2FpdRwSFR30EOtLSVJKVEBSikmtvVELePbc20hvVs3o6MR0XG8YMyLXqBZWiUN3zHeQ452A54djlXkQv8oQtSiVJR0VI3STVjB9b9PrPqbp5d0XCyXpgOtL9BxlY9LZdTyejiFcpUn9iP3HBIZhSlKBSlKBSlKBSlKBSlKBSlKBSlKBSlKBSlKBSlKCJ+/na1fNZ8VtOrmkLjlv1e0zcF0xuXH4S7MQ2sOqiHkcKV2T3a7AgL5SeEuLNVo7wMDyjcn+kbxdKcHn3KJlURi15vbLVGckP4/ksRtLL7T7SQVttLbSypC1D32+7qVJCr3qhnrjYLxs31ekbtNNbJJmae5Y+2xqzj8JvsWPfDd9jtj/ABEFSvMB6UFFRHK1uICiRSVIUULSUqSeCCOCD/lUh9F9IdRMowW36k6D6aapzMssFwWiVlOMPrEe2rSvsUNx0MF2Q/4HEnhqQjgKSFIPblUiPkN2YXzKsyZ3QbYMZkZrg+oTKbpORjcf6tUWavju+lloFamnv7xSgk9XPL36cpBjRti3la27Q7tdE6ey4Mq2XNY/UbFeGlvQnHkeg6EoWhTboAKeyVDkcBQV1TwHaayyTd9fI43GXu7QJX0KRNyqx4c9a7m5I9qalzIEpMbyutqIS4pHRSkpBDjih92cXvd1keKSLNi2pt8xvcbhcZtT1lvE+JLt17hNju0pDc15lL7azwQtLqZLSh65UPxJ/M/lP0XzvA7XB3B7RZt1iXiN9XEZdeh3KA+QeCtl11KSlSVejwO6D6Puop2Td3Y8cut8jxNujF1263qauO3gd6nOTY9tmqQFLdhT3GyuHIV9zvRs9eFK49pStITm+O3WLYtpvablgunOUZDhmSZTOalSrXqBKbZkuuDltlmO8lKI7ieVKCEg+VXb2CeOLCqph1q3AX+w6L2W7WDT3P8AULTjIimUiPrBaouQWqEhZPRMO9QZCJTTiF8Nhh5YWkfkpPYL1xo98m2seid/iNYhjttTgjTLbLuGyblPmxW+voriyZjz8mKSngBAcUyOOfGSSaC23dHnWc6NRce1is9uXe8Es8l2HqFZW43mV+jyQ2lVzQlKStS4hbClJ4KVMuPdgAAtEU7rYsp+MnWaTqphjMu+bY9RJrar1b4nLxxeW8QG30JHP8McgIWPS2yGV/xEsLVLfa/uz0j3bYW7f8CmqZuMJKW71YJ3UTIC1A8d0j040rg9XE8pV7B6qCkJyzXbSoaw6JZfpFCuabMcjsz9sjyUMpWiMpSeEEo44KAQAQOD156lJ4IDL8cyOw5hYLflOL3eLdLRdY6JcKbFcDjT7KxylaVD0QQa7KqWtue63NfjryNjRTVlOQ3WAm5zmsnxd6ElH6BwtH08y1yC4RJQ+lTjikcIQeEqSeVFRt80z1QwHWLDYGf6aZPDv1huSOzEuMo+j+6FoUAptxPPCkLAUk+iBQZTSlKBSlKBSlKBSlKBSlKBSlKBSlKBSlKBSlKBXDMhxLjEft9wisyYsltTL7DyAtt1tQ4UhST6UkgkEH0Qa5qUFemo+KaxfHFf7hqRojaHs029XWSqXkeFOrU49jiln+I/EWeShn9+TykDlLg9JdEWtffj8Gq0SFuC2IQEZdp7lLDk16xsymmpVlkJI8kdDbqwpQBJHiHK0FJTwodSbrXmWpDS2H2kONOJKFoWkFKkkcEEH8gioT6j7aNYdrN+u2tGxBuK5bri59Xk2lswFVuncfzP29IKSy6B/hpUn0OEcgJZIUeXW1XSxXKVZr3bZVvuEF5UeVElMqaeYdSeFIWhQCkqBBBBAINdjjVhs17bui7vm1qx5UGC5KipnsS3P1B5P4jNGOy70cV74U50b547KSOSJAb2t0mLbpL5Zskf0L/sFnto88DIZSLh5fr0o6pbQ62WW1BxopWnlXKgD0JISnrpNleO2zTJ5F007kSL1e5x/S8kXdVoZjsM9PMyiKlPVbhKhytayAlwcI54VQboxHDdML1p607pfunuWN/WxmTmuBX+cbO7MQkD6kQ5ZUmDM7dT4m3y0eOvb3wmvk2nQtpFx10mYzuEg3Z/T2+JkQrHep8tduVb5AWFMuS/p3ClIUj7FEKUhClpUeE8qTpjGpeKYrljb2X46xmFoZTw9DjXJ2Gl7skHlDyU9klJP+qRyPwRXYMW3Sa44FkN6fym92jMY09C7RYf0tMmBLhLWgFJm+ULbdQFOKPZrqoNpAPKz1CWuoOhmvW07cKzqps80wzWXisJ3m03i3SxksK8xFAKWl76NoFDKwOC05yocBSV8hK6t32/6vydbtM7ZnFzwDJcLurqQzcrLfra/Eeiykgdw2XUI87JJ5Q6kcKBHISoKQnzgYZmub4jcUDDM7vGMOSnEockwLk/DCeTx2Wpog8D9/z6FWtfGZOzeVrTlVoz/dLetVpFqx9h+Gxb8ylXGxxQ+4excblqQ49JAbAHiaW00lau6wtaAAmHuJ2p6d7iWbZd7o/OxvNMdcS/j+XWZYZuVtdSrskBX4da7fltXr2opKFHtVaF32/b/NgGbyNRNIo8nLrG84t+7S7M25Ng3ZJdUoGbbBw4yoJPBW2OEAnq6OTVzFKCH+1n5LtE9wTkbD8udGn2eqPhXZ7q9xGlOggERpKgElRJ4DS+jnPIAXwVVMCtR64bVtDtwVnuFv1CwGzvz50VyMi9M29hNzjFSSEuNSSguJKDwoDnqSAFBQ5FVn3jXLfX8Z2Wt4Bncj/pA058xasky7ocdiTI4HKUxpQJdjOhI4MdalpR1PVKkkLUFxlKhFot8tm2nUYs2jUb9T00vx4beZu7Zfg+X32SmU2n0AQfuebaqYmKZph+d2hq/wCEZVaMgtj4Cm5lsmtymVA/jhbZI/50Hc0pWK6l6m4bpJir2YZxeYtvgpeaiMeeS0wZMp1QQywhTqkIC1qIHKlJSkcqWpKEqUAyha0NoU44tKEIBUpSjwAB+STX8aeZkNpeYdQ42r2lSFAg/wCwivPrvN3qa0bjs7u9jvd9VZcQtcx6HDxy0XIPQFBtZT5XXWj0mLPXkOnlHBPjCQo82s/Gvopn2kmgrV11JjJtV3y0QprdhZYMZq1xGYbUdnyMfyolPBsvyFcBanHT5PvCqCWlKUoFKUoFKUoFKUoFKUoFKUoFKUoIo7uvjq0a3SiRlDCRh+erSCMggMJUmYQnqlMxnkB8cAALBS4AlI7FI6mvax7X4W03L49s3Jaeww45Oa/TcjuL7y8cuTjbndgxrkwnva5CfZLcyPIZeCD5EsoHc3b18V5stmyO1SrFkNph3O2zmyzKhzGEvMPtn8pWhYKVA/5EUFJeTbHLZCu14vOltlkahG92Ga7asLv9xRZ7/CkONgt3CEuMTDvjDBUFEw3FNr7BHANQmvthvuL3eVj+S2WfabpBX4pUKdGXHkML456rbWApJ4I9ECr18++Pti0NyJe2XUV/BmHpCZr+GXuMm9YpLfSvuFiHI7GK4VcfxWiSgAeNKCOawS5Xa84tDh49ve2b3W9w7LKQ/bs8xR1/J4sEpPk8yVOKVcoTKVp56rWsc+gkJ6igpmsOS5His4XTGL/crPMCSgSIEpyO71P5HZBB4/31yxsuyuHkjWYw8nuzF/YeTJaurU11Mxt0fhxLwV3Chx6UDzVl+QbDNue57Mrjqnt43GW3Nnbs67cLri0u4x7ZO7u9iC26zFUqFwQeEuwXOQkgnnlQ1Jql8dmCYRJ8V41evumEh1QQwxqDjijbFq5IHW+QFOwlduCQlQbc4I7ISTwAxPZLv/zvb7qu7cNU8tyfKsJyJJZvUaVNcmvR3ieUTWQ6onyJPIWAod0KPPZSUcSV1F+YGTeMlv07RvCZ8iJZIbgske7yGokR7hCi9cpvVfleKT1bZhIUgHstxa1uFptmGeUbTdSNHoMbVqLK0x1XxOxyEypzmN5O1dYKktrTyiS0041ILRPpfQDhIVypHo1oOZMiymGUNWxiM8hTinXW1L/i9lcpBSSUpCR6HUD+vNBaHt11a+UPcnmrVyxPV7FImOJSl+6yv0qBJtdrKvaYhU0ypTsko6ueFDyloC0eVTRUBWzMY3yaoS7tqTpnuZ20NZtiOnU+dAyfLccgg2xtEVz+d2LMUW1EoAc6pe8nHHVtRIqszSjeJuI0WjY3bMB1DlQrTijk9622otIMPyy0LS6480ABJUPIVI83cIUAUgccVkC92WVX/bxlul+oEidlVwvN8VOhv3C59GIi5Ti5EqX9K02kypBdSeHX3Vpa8o8aEnkkLOLBoN8aO5/H77edIxhQyK+xX0iY3Kc+ut0uQlQRIVb5Dg+8OEqAW31UUnjmohZR8VG8/RS9u5PoZmkO+OsAojTMfvTlnuZbJBPKXFISn8A9UvK/AqNeT5zt/wAyx3Dl3bFLnY5lnC4My04tAixG1Qmmj0cemPBbsubIeIUuQsdGUJ6pZXyAM7yLdPm+3+RBw3bHubzm8QYjTguT8j77K2skeOPbY8xK3A00nlBecCC6QFBtsD2GaS98PyPbXLtHxnVafeELKeY8TMrGh0SUJ4ClNyeqXH0+wCpLqhz+4PNfrU2xfId8i8Wy6hyNKJUnGIbHW0RYKmrZbCrjhyQymY+FOqWRwXOyh66pIA4qJeo+rGper17/ALR6n51esnuIBS29cpa3vCk/lLaSerafQ+1AA/pXdWjcjuHx+zxMesOvGodttdvaRHiQomTzWWI7SB1Q22hLgCEAAAJAAHH4oN86R7V91e2zV3G9Ws12e5HnUDF5aparJGKJKZD3iWllYVGD5BbdU26CEKHLY5qYOcfL3n2EdXb1soyyzMNkCQ5fLs9B6knjqO0HgeyACT+f2qu+x7393ePNJZt24jOFoR+PrLouWf8Ai93JrotUt0m4bWu0t2DVHVzIb/a23A6ID8jpGU4P5VqabCULUP2KgSOTxxyaC2fTv5gtvF9hQjqni2XaeTJkZMpCpMFU+E8glSSpl5keRxAWhaexZSCQf3BAxrVX5e8agXWPctB9L7rm+GY/IZVl98mNOQW2mX+zbDcfsCUOKc4UFPJAIbUgJ+7yIp5ut+vt9TCRe71PuCbZERAhCVJW6IsVBUUMt9iejaSpRCE8AFR4Hs18PZXBTyeCeSP60F4WMfLpoXlsTyWPR/WK4Sh9pjW/H48olXA5CVNySD+f34Pr8CuSb8t2hmP3aHAznSLWDEo81fREy848wyhIH8yikSCtQHPvolR/pVZWkU/5Cc5xm243otetbpmNxkiNBNnn3Fq3R0IHAbS+lSWm0DjgJ7ADjgCtu4/8Ze/PXC7RpmsN0XZ46F+52V5J+pSENq47KbbaceV29fyqKOSPZH5oLVv+uNtc/wDjnif/AJ0UqK3/AKGbRb/34uv/AJYf/wB0oLDaUpQKUpQKUpQKUpQKUpQKUpQar1M2s7etYJP6jqDpNYbhc+yVpujLJiXBKknlKky45Q8CD7HC/RrXU7ZnkVmjyI2lO6vVjGYz6QhFtu82PkduaT6+1LM9ta+vr8FwipM0oIB5XsX3BPsrU81tl1MlkcGXlWm/6PKdHv8AmdthBHHJPrj3Wrbz8f8Ad4YDt4+P/Er26tzh5eF6uzYP5PtaGbjygD9wnsngeqtOpQVSwtjuh9mcTKzPYxuGbAUA6xbcltV0aSP8wWJSHFf7q4M52ibHMiYiph6JbnNMn4zfVxTGHXSa3IPP8zhcakjt/wDTWkf0q2GlBSkdpew61PLj33U/cB5k/wCCnAJcdY/oQuGf/wAVjWYbb9o5gvR9M8c3Y3q5EcMupwqO/H59+1JUhhZH+z37q9KlB5y7TtG1rvmKuC06BaxP5T+qBDaHMReYtot/j9LU8v7/ADlz1069An33J9Vldg+M7e5kKmixofLhNOFPLtwu0CMGwf3Ulb4X6/cBJP8ASvQTSgpMtXww7q58VMidlGnNtcUQPA/dZa1pH7kluKpP/BR/3VuHTT4RGUyW5OsOtq3I4/vIWNQAhZ/2SZHYD/wTVqVKCPumGwbaPpPGbbx7RSw3CUghap19Z/VJClgAdgqT3DZ9fhsJT+fXs1kuS7RNr+XXSBer/oLhD822yESWHm7OywStB5SHA2Eh5Hv+7c7IP7g1t2lBxsMMRWG4sVltlllAQ222kJShIHAAA9AAftXJSlApSlApSlApSlApSlApSlApSlApSlApSlApSlApSlApSlApSlApSlApSlApSlApSlB//9k=;" parent="1" vertex="1">
          <mxGeometry x="137.5" y="394" width="56" height="56" as="geometry" />
        </mxCell>
        <mxCell id="Xq1n-c8aseyyMUb2qtHi-27" value="" style="shape=image;imageAspect=0;aspect=fixed;verticalLabelPosition=bottom;verticalAlign=top;fontSize=18;image=data:image/png,iVBORw0KGgoAAAANSUhEUgAAAGgAAABwCAYAAADymTVXAAAABHNCSVQICAgIfAhkiAAAG61JREFUeJztnXmUVcW1/z9Vdc69PdHdDDLTzQxPQAyIxBEVlwZRMZoYXfpUkmjUvMToiz4TNXl5icZHfkZZmsToE43Gn2MiRpziEA0gTxEFBGSeZKYZeqL73nOq6vfHOff2ubcHGuiG2/z89mJxu+8ZdtW3au9du4YtqqqqLB0I1lqEEOnPQPp3bTQASqomv4/e21Egj7QArUW0sq216coWCDztM2fjx0x64Tou+uu/8dGmT/G0jwh/otenPncUiFzvQdnEpD4D+EazuXIrt87+DW+smYUs7AtYTO1Wzh88hWmn3ULvkl7IaI8TpEnrCL0ppwlqpM7CygXYVbOL6Z88zQMLH4N4AcIpwRoPACljGG83Qlt+Nf6HXD3iQorzixueQ8dRezlJUDYxFtK9oKq+hnc3fMB//HMaWxNbcArK8bUH1oAMNbYxCCGRykXXrKessJwHzrqD8b3H0CleGFxiLYLcJyqnCGpMjEUiQUCdV8+yitXc8f59fLD1PVSnIVghMNoDKQABKdsiBGDBWKRyEcZHV6/izLJzufv0WxncpZw8Jw6AsSawVDlKVE4RlEJ26161ez0Pf/IMjy5+HIq6oZxStE4EF4tsYsj8PfysVBzt7YXaXdw45jquP/5b9C/tG16eqfZyCTlBUNTDMliUCFTVlurtvLluNje9fw9IjZvXC99orNUN6szaBmIaP7jhO2MQQuFIhVe3hZgq4ben3sQ5A06nZ1F3ALQ1yLA35UpPOqIEZbi+WGRITFVdDR/vWMid/3yQJRUfESseiragrRdWuGiZmMYvalB71qKkC1h05SqO73Eyvzj1Bk7sOYbCeAGQqfaONFFHhKCoSolWhtaaBTs/Z8anz/F/l86A4oG4bjGeXx9K24Q6a/1LGz3DdfLwvEqoWsd3Rt/A5cddzNhuw1FKZjSaI6kCDztB0V6jrcEJR/1LK1Yza8Vb3D3/d+AqYgX98P0EBnNoxDQWoOE5NnBCHCdOsnYjGMUdY69lyvBJDO86AADf+CihjlhvOmwEZRKjcaQDwKaqbby3cQ6/+HAG26tWEiseiEHih2OaNDltXTGpZ4aEOTKGxCdZtZay0pH8dPzVTCybQI+irkAwKFZCHnai2p2gqHrQRoMAJRR1iQTvb/mA3y94hvc2vAWd+uA6JXgmEYxpxGGOQoXvdGUcz98L1VuZPHgK3x59Eaf2Gk9+PC+M9QmUPHxqr90IyrYzvtHElAvAO198zFur3+H3ix4HN49YQV88k8RqP2jVUXe5vVtq9B02cCKkcnGkQ7J2E/gJbhz9bc4fei6n9hkNgKc9lFSHxT61C0FRdeYbHzck5vOK9by1+i3uWvgktm4HbslAjLVokySI4xxGYhoLnTWOsjgyDsLiV22kU1Fvfjr6cs4ddA6Du/QDAqIc6bSr2mtTgqJCetpHSokSkt37qnlj3d95ePFfWLhlPqJTLxynE56uB2yDOjsSxGQjgygDCFyVh+dXQs0Oxvc9manHXsiUwZMozMvHNz5YcJQT3t62RLUJQZl2xuBbn7iKgYGZa97ipeVv8NLaN8FxiRX0wdNJrPVzi5hsZBElpIMrXZL7NoM2XD5kMhcMPYfzB50JQFInUcJpc/t0SARlTwUktUfciQHwwebFvLTyVR5fMYtk/R7c4nIMhCEa0bauc3uh0djJolQcQaD28gu68e1h53Ph4Emc1GcUAAmdJCbdJqdHDgYHTVC2nZFCoqRiW/Vunl76PH9a+Rrrd6+Gwh44qgBfRwabqcLnKjHZaGSfwFF5+H4N1O5gQLehXD3kPK4c+S26F5WijcZYiyudMOhx8GrvgAmKvszXPhoTqDMLTy1+kRdXv8Y/Ni2AmEssrweeTmCjbnNHIiYb2WpPKFwVJ1m/DTzNWX2+wmXDLuSykRcBQW9SYfwvuP3AiWo1QdGHG2vwTGhngDfXzOa55TOZtekj6hO7cArLMViMSR5c7CzXkRXbkzKGFAK/ZgNF8a5MKhvPlSO+xZll4wBI+Elc5SIPQu21iqCoOvOMjxOOAZbsWMtDn/2Z9zbOY8veDdCpF0rGW54KOFrQ1JSGjKP1PqjdRr8uQ5hcdio/HDuVvsXdQ7VncJRzQFPuLRLUnDpL+prffTyD59fMYmnFeogX4sRK8XWSwG3ugHbmYJHtlguFKx28xG7wNCf0GMTXB36NH4ybCkC9n8ARqtVu+X57kLGGpPbSM5AvLnmVJ5Y/wwcVG/B1DW5eD3xrct9tbm9kqD2QYYBV79uG6xZzWveBfOfYq7hg+EQgICqm3PQUS3NoRFB0SZKnfRwVqLNFW1fwy49/zyfbllBRtx3yeyClizEewTqO/diZrOBk8xIdQXu1Pxn3J1v2lLsFqVyMTsC+HfQo6sPxPUdx15jrOa7XkHQIzA0Dx8Gtmc/OICja3ZLaI6ZcahN13DH3Ad7bNJe1ezZCXjHKKUIbn7Q6a8nOZOtqIcLwvSQsBtYatNVNT10fDqKacKOlVEih0pcYqzFGt062RvZJoKSL9qogWcvA4t6cXX46vzzlZvJj8XRdN4Ume5CxBiUVf1zwDE+ueJbP9u4AYVBuCQYbus2tFDQy5ew48YAMvxq8GjDhc5x8lFscGFnro7XXEDRtb5Iyeo0NbYiL51dBfWXwNykhVkLMLcbzE9how2xJtizihZBIBDq5B6zkuC49ufbYq7h69CVoo9PqLtqLGvUgYwxKKc57+Xss2LaMOr8W4p0RqGAtQGvUWUbBU/GsOF7NOhAFTOxzCsd1GUCeW0BC17Oxaht/3TQXU7MOinrjxrplTjscFpIAJNJ4mOoNjOtzBhP6jsUVDgmvnne3LmDhlrlQXI6QMaz2AuJaI1uWfRJCBTY7sZeiWDHH9xrNaxdMR2uNUirj1gyCjDEIIVi5cx3jnr8InE5Itwhj/PDqA3Sbw+7tCINfu5Prj/9Xvj3yErrldabQKcBRCm0N9V492xN7WL93AzMWzuT1dS+higejEWB1+5IUsTfCesRQPD3x54zqPoLO8WKUlPjaZ0+yisU7lnPHnN+yqnodsqAvRte3XrYm3HIpHYxXA34N/7joz4zpMzJjbQaAE32GEMHagNpkLfmxIuqIBeRY2/rWkl1oAcr3eOCsX/LN4ZPId+MZl7pAnhuntKCEYZ37c2LP45m9aTJXvvUzhKOwIp6phtqSpHD+BykQxlAgY8y59AkGFffNlNFxyY/n07tTD7rFS7n5vbv5rGYD0inBWN06mbJNgjFB3coY+bEiKhPVwdyZMWFvDtDIx7PWooQiMN/m4GxBeH3MiWOrNvGjE67iqpEXkefGwmVTttE/Yw3GGDrnl3DhkLOZ962nKCEfJUxmwdoS6bKB9Xby7Ln3Mqi4byCLNY3k843mhL6juWncdzE+2Ki6P5B3psoiBGCwCJR0mhwTNSIo8wIR/aL1QliLUi5e3U5O7nsSVww6DwT42uCE8/qpd6U+y/DvxgQVM6LrIF6/5A/o2p0NbmiqxbcV0j0zyXGlo5jQ74Rw0aRoZLBl6HUCnFN2MlP6n4bdtw1HugcuU3YdtxD+aZ+Jf2uRUmETezm+x1DKS3sHnmG61WR5KlmEpVrtiK6DeP6Ch/AqV6BUXuvHUgcgJ9aCrueyIZNDGWg0Qxr93Tea4rwiTuxzLCQqAyIPtWe3cH/7ECRE8Gij6RQvDApIQzyvOaT3/AhB6qqvDZzA/Wf+Gl21HMfJa3DN24KkiPrumd8leH8zcTIhBMIG6ysQEFfx0Mts33Fauy2dEen6Exm6vMW4U6SlCoIwE8CVIy/hhlHfxa9Zh8yumDYiKtWAUnI0BSssqfmd1H3tvaqn3QgKCiMyekWrorcZJAU2Ke7G+I+Tb+Cs3hMwiR1I6QYkWdqsBbdm111qx56I9OD23q3Xfj2Illtji/dmEWusoUt+KQ+cfSd9470wuhYhnJCktnEcDljO/fS2tkLO7lFt1JOsoX9pX2ac/9+oRB0KDVK1veOQY8hZgqBpdffVHiP483nTsFVrg20q0ZH8UUhSThMEjdWdtZbJAyZy92k/h6o1KOmQERs8ykjKeYIgkyQLGGGYOvpyvnf8d9HVa8P9PhyVJHUIgqCBpGDhBcRdlx+MncqZfc9G120LSAomlw7PHNJhQs4QZCNuq23GhU2RpKREG0Pv4u7cM+EWyorL0Yk9SOU2eHVHSS/KGYIywio0H5tKkeRIhad9RhwzmHvPuI0iAF2LSJF0lKi6nCEo1VsSfhIpJCYSfchGymFwpYNnfM4vO5lpZ/yEeP1uhEkipHPUkJRzBC3etpwvKnekF/k1F7+z6fUNEt9orhx+ETeP+z6qbjsie5KvA5OUMwSl1FlF7W6umXUDVXW1yHCnQFMkpcItwTSAwMPnpjHf4Yp/+Sambhsqe2q+g5KUMwSl0MktZP6Od7lj9jQwpCfOmiMp5TQIIOY63Drueib0OR1dtwspVaZn1wFJyjmCjDXI/GH86fPnmP7xoyip8I0OV8W05DQ4GGvoW9qTX5z0ffoVl2MSe5FOxLPrgO53zhGEsFjj4RT04655v+GZFX/HVQ7JcCdbc06DtRZXuST8JGN6j+Te026mQCpMsgqpYh3W/c45ggSBm+1jcPL78b137mLepkXElItnvGadhtTf81SchJ/gggGn86tTbiFf12L9jut+5xxB0OAA+FKgnDjXvHk7y3euw1Uu2uiWSRKWmIpR7yf47qhv8KOvXItK7kHoBKIDRr9zkiAgXYlauGxNVnDzP/6LnTV7sMKiw/V7TU6W2YComHSp9xPcPPY6Lhk0GZPcgwgXUXYke5S7BKUhkKqYuTsW8J9z78MxweA0NQ5qzrOTUuIIBzem+NlJNzPumNEYr7rB0fiyB7UBRLBc1giJjHflzytn8pv5D5PnxEj4yWDdQxMdIe3ZKYUxhn6dezLttNvonNcV69eGR5l9SdChI20vNEa6EOvCPQt+zxPLXiHPjVOvEwjbstOQ8uzG9h7JwxPvDEJBfn04ZZ77JOU2QdFVmMYHJw+tivn32dN4e/3/kueEJO3Hs4uHTsOk8lN44PQ7sMldCOM1hINyGLlNEESWyAqs8RFuAZ72uG32NJZsW0XcieHp/bjfIiApoZNMHfl1bh9zAya5A2ltzpOU+wRBxOsSWKORsSJWV67j5/Oms7N6D6mTtFrj2Xna48cn3sClA84Ljm4O197lKjoGQSLTNTZWIONdeHvT+/z6owexvsS3uln3OzplroTCdRT3TLidcV1HImxwkFN7r287WHQMgiCLJIMVChHvxpNLn+OBhY8SVzF0uHOiJc9OSomxhu5FXfnjOb9CWHBtst3Xtx0sOg5BkEGSNT5WxfHjXblv/sM8+fkrxByXpPb2G7NTUuFrn8Fdypk5eTpefQWQmzkdOhZBkEmSTiKcQvbJPH4yZzrvfTGfuBMjuT+nIU2SZkLfMTx07oPU+PU52Ys6HkHQ4NkJgdFJZKyYaq+KO+ZMZ9mOVcSUi2/8FkkSQoSLTzRXjbyYc4dM+LIHtSlS9kgIjPZR8c58VvEZ/zXvIbZXV+zXs0s5DamNWr2LjjncJWgVOi5BUadBBMmdVH5PXl//BtMXzED7ASnG7t+za83WmCOFjksQZHl2wTncsrCMRxb+DzOWPouSCkvzlZ+9k+5LFdceiJJkNQYwhX352fv3MHPNuyih0u53c/Yo9f+XPai9kOF+a4yKUZ/fle+9dRcfbF2Eoxz8liINOYyjgyDI8Oys9pCqgDqrufnte1iza0NwaEZLE305iqOHIMj07IyPipXyeeXn3PHP31JRswcZ7taLOga5jqOLoKyYnTYeKr8Pr214lYc+fpyk56VPi4/uN8plHF0EQRMkJXGLh3L/Jw/yl5Wvhpc0HJiRi45BFO23y7up7SStmGZuE9WT5X57OoFbMozr3/wx7236MLwk83iAA0YzW2TaGu23yzuspKgqEbb51hrdctImrTpNUlBEz2hkSTkX/u0mFlesypSrlaoug9BI+doT7afislbdpGY2mw27ROZkLKrhGYeCrJ5krEI4LlNfvY0t1TsyBqgHcgqKCJ8XCtuuaLezeow14OSxubqC+vp6JE3vVIj+TQjBZ7vXBPM5bbV2LYMkDbKAVbVfcOs791JTvy+9g2J/W13SUfDQydhUtRNUXlDOdlRzzRN0KC8VIjiDNK8LH2xeyNJdKxvFvBpVigBjLI8vfxlkftuu/oyoO2s8ZPwYXtn4Kr/58A/UJxMZJAVFz7RNKRmNDba7fL5jNW+vmweFPdDGO/SG1EI5mzwvLl2oYO/Gfh/SCOGEmusWs27vMp5ZOZOE9nCU03AWW/iTGpdIIXnys7+wsnoN7ZJ9K0WSlBidQBYN4v6Ff+Deeb9j1769SCkb7FLkJyWvEAJHKeq8emYse5YlFZ/guiXBoXwHSpCN1qnFpt5pI/UdQmbeF7RobXV4oTy4/TXh9Z5fR7x0KI8sfJ675z/Krro96cxV0X91yTreXT+XH87+OVZ1ahCrrQ1wlCS/Hlk0hN8ufIQr/nYLH25ZSGVdFRgaySdFUA9ba7Zz55z/wyOfPkmsdBiev+/Ae3qjupRIa7AmpU2yTtnKPlQWCM4sfe4CcIqRseJDO7PUGmJuPsm9azmj7Ez+fdzV9CzqQVy41FmfmmQlLy57kz8sfhRVVI6OPr+t7FBTcgkBxqBUDO1XQc1mLhpyKRPLxzOq1zDyVRH5ykVbQ1Wykk+3reDRxc+wdNdi3JKheN6+oKe3Vr7sciGQUmGSleDX8uE3/8rwHoMz8pYDjY9lTp08e/6sH7F4ywL2JmuCU3+Fw0Gd+gtBRTh56GQlVK9HFZbRK687W5N70bXrIK8rTl4vfJvk8J70G5AklYMjXJKJCkjsBW8fFPWnLN6FKr+WvZXLwc2Hgj4oJx/t1wfnBGWXc791YUmdSm+sB/V7KY134rh+X2XWpGn7P/U31YNS52a/sPQ1Hvzsf1i4eyvgoWKdMcABnZsN6VYjhcRRcbRJoI2PEhIl8zDoMO+DaN+e05R8Ea2ghEKGOem0TqCtRgiJq/KxVqONHx7o10pNEi2HDc7NFoBJ7EbKfI7r3IObRl3HJSPObd252VEkdDJcymS565/38/eN77Jy72aIFaDc4iBtc5YALRIVaUEIEW7UIugx0YIeLnKyZbOAsA02OpQxuCSyuLE1DaiJelHCRXuV4Cf4l5JeXDjgPG4/6UaUgoT2iB/IyfMpRDNrrdq5gZ/Of4iFWxexvWYz5B+DdPIxOpkpeOpzi5WR1SYOZ69pCYcqXyM7Q2jj6qBuJ72LyxjXewy/Gncj5V36NKSsaW3uhqZgrMWL5KZ7Zfk7zFj2FB9UrKcusRtV0BOLCN1NaJV9OhqRbWfCwzRM3VYK4l05rftgrh15FecMPh3ITPrUEg4gf5DGt346Tc0jnzzNs6te5uMdq8FxcOPd8IxH+qT4DKGPYmSos2j+oArQML7HIC4dNIVrx1wOhPmDpNPqtGkHloELi699pAgO4t5UtYOHPnmCWRveZ+PutVDYHccpxP//NANXkHiwGvbtoqy0PxcPmMiNY6+hZ1GXsPGCo9wwktUGGbgy5ckMe0RTcr638ROe/fwFXt3wAZX7tuN0KscKGaRKE8GuhKOGqOxIiw1Sd2INunojJQXHMHnABC4bfjFn9PsKAMlQnUVjfa2Ngh9SFkhtDJ71yFOB2nth2Su8uPIVXt/4ESjCpLYeR012rix1JoSDq8Lkt0ZxXtk4LhkymW8eewEQeMJOmPw2uL0ds0A2ljV8mQXP+CAsrnSprK/j6SXP8szqN1m0bQkUdMZ1inMzLXRrkW1nUumjvUrYt4fRvUZxxZBJXDHiUjrl5YfqTByZPKqNZc/MEJnKJLVk51qeXzaTR1b8jX21W3GKy7EotOnomYjzENbHr9xAp+J+XDfsAi4ZfgEjjxkIBJnL3DZMwN7mubyNNXjaT9unV9fO5rVVb/LUir+BFMQK+uJZH5vaIxo8IPdIylZn0sUVDsnajWAF1wy7iPOGfY2v9T8ZSLnNTnpRCrTezrSENiEohQy33AQRcUc61CUSzFr7Jo8vmcmcL+ZA0TG4Tmluqr0m1FnMySeZ3A21FZxZNoErRpzPlEGTiMdieMZDEgzmg9vbdhq8TQlKIar2fKNxw5yh6/ds5tXVb3DvomeprN6A06k/SBW65eLIhXuy3xmqM0flgfXxK9fSrXQIPx97DWf2P52ykl5AmCVTqjZTZ02hXQiCbLVn0cbHDe3T3M2LeHvNu9y38DEQilhRX3zjY6LJBYOHtD9R2cRYi1QujnBI1qwH4XLb6KmcPeQsvtoryHjvaQ+nDe1MS2g3glKIEqWNARFk+PI8n/e3/C9PLX6Zl1b9BQp74rqd8UwyMxpxuGAMSEVMxQJ1VrONbwz9BleM/jpn9B6PchReGIFvazvTEtqdoBSiak9bkw517KzZw/ub5vLr+U+wquITnE4DQTj4xgslbKfYXlZg1FExrEmiq9ZybPcTuX38VE7r/VW6FpYCgU11wu0sqW39hwOHjaAUMonS6Ujuqt0beH3l37lzwWNg9xErLMP3ExhaOffUegEynieFxHHiJKvWglPCveOu49zBExnUuQwIIvpKtK+daQmHnSBo7JZDsA4AAwsrlvOnRS/y2KKHoVM5bqwUz68PpT2EsVMTsTPXycNL7oGqL/j+CT/gspFTGN1tGAgy5Dpc6qwpHBGCUshYHxfJH1qb2MdH2z/l3nmPMW/zO6jiISBdtJ8AGYntHch6gFTszFiUE8eaJKZyFRP7n89tJ32H47uNID+WB4TbJiOHLRzJ9dtHlKAUomrPECwOBNhRW8Hb6+dw8+z7qEvuIlZUHpwVZ3R4pBitnMkFjEHIYCogWbOe0ngv7p/wY84oO4muBZ2BILYohThi6qwp5ARB2chWKRv2buKPn77AQwsfgYJSlNs5iJQHFzVWe43GNKBUHJ3cDfVV3Db237jmuCn0LekDNPSYXCAkGzlFUPaG3ugSpHo/ydo9G/nPOdN5Y+3LyOIhIJ1g7BRVe9BAWjimwXqYvav5+tBL+ckp32dgST9iTuCcBHlTG6ZR4MiqtGzkFEEptERUbWIfH279lFv+8WvWVq9GFQ3AaC9Y2CFT6swipArSBtSsY0SXUdxz+q2M7zWaglh+eEkDMdnvzCXkJEEpNLVFPvV7dX01TyyZyZ0fPohVFul0wdhggaUULia5Hcc43H3yzfzriCkUxQubfE6uEpNCThOUQsOUOxCpUGMN26t3cPvc6by04q+Igu7BurO6Ci4eegn3nvIDunfqnu592YTnMjEpdAiCoPGUe+ozFnzrs3T7CqbNfxyA28ZNZUSP4ThCpSfMmry3A6DDEJRCS2ovY9DbxPcdpddE4ez/ktxCU5WdfTBSc993NHKgAxKUwv62L0YHmx2RmBQ6LEEpRM/aae67joz/B+iHuqamo2+ZAAAAAElFTkSuQmCC;" parent="1" vertex="1">
          <mxGeometry x="146.5" y="266.94000000000005" width="47" height="50.61" as="geometry" />
        </mxCell>
        <mxCell id="Xq1n-c8aseyyMUb2qtHi-28" value="" style="shape=image;imageAspect=0;aspect=fixed;verticalLabelPosition=bottom;verticalAlign=top;fontSize=18;image=data:image/png,iVBORw0KGgoAAAANSUhEUgAAAIQAAACgCAYAAADNecSHAAAABHNCSVQICAgIfAhkiAAAIABJREFUeJzkvXecZclV5/k9cc0z6U25LtdV3S2DpFZLAoQQSLB4IRgEYkeYnWHFDm7xsMwss4OHZQb3+cAAHwbQfAYkvF9YoREaCZAQEmp5kNpXl6/KrPT53L0RZ/+IuOa9fFmVWV1dXWLj83mZz9x7w/3iuDjnhGxsbCj/PyuqCggiio7rvQioIiK3u2nPeImf6QY8XUXDhOrIjGvtXfGTjP4WflBVRiFRPPOfK1j+2QDCT1I5lyigTkFAEIr5u9403miKnVMUD5JRwP1zAcgnJCDGr/7hyRH/VXl9d6D0c8fAwiB3qPO/O6fkzl9oRImNoAIGaKaGRiQksZAYiCIz1A6ninjEDdX9iUxBPqEAUR/onSuzAIfQyxwr2zkbXUc/VzILnYHSz5TcKrkqNgBidNoUT2UigWYsxJGQxkJshHZDmGwIsy3DTDsmMlLVK4Jq1S7/7xOPesidLlQOrzxKkl0HhgKbPcvF1ZylbYfNlV6mZM7/JghGwIhnHZEAAkYYYjMi4BRwoALWFWzCT611SmSgERnSRGgnwuGZiIPTEY3YBLYkZZuETzyKcUcDomINHgjgJxX8hHdzx8XVnEtrll7msA7ECI1YiA0kYdLiGNrtiMh4VhLHYExAQn2iFBAFFbJccc6zl0Hm6+sPFJtDP/eUxgNEiAwsTkYcmY2Yb8e0Gx5xqhqqkAC8Ox8Ydxwg6nKBiAQ+XVAEZaVjubZpubBmWd3OERFaidBsRLQa0Exhsh2TxobIaCDlfr16YO2lEZTspBJG/bOsU3p9x3bX0ekrgww6Pcsg95CdahqOzkbMT8QsThqMMTvki3r/7rRyxwCiTg1K3gthEhwX13KWNi1Lm47NnqWdGmYmDdNtQ6tpaKZCEhsvG6jitE4A6ryeG6Nil2uK5xlTTWaeO7Z6jk7Xsd1TNrYsmfPyx/xUxF0zEcfmYkRMDQwVxfBdvHOA8YwDYnT1KJ63gwfC+dWcx5czuj0lU2W6GXFgzjDRiohjiMQLAk7Vaw5U1IQhMBQqR/V290aNuyZ8WVKboNJKxcZyC/2BY2XDsrJhyZ1iEGYmDKcWEo7MxpgxquqdxEqecUAUpVDhRDy/Xt7KeeRKxmbXEUfCzKThyEJCIy0GTvwirq06P4m1z3uZ/P2U8nnD4KhrGiZIO1murG1YltYt3UwxKPOTEfcdSFmcirwA6zyg7iTB8xkBxDjrYaHBnV/LeXxpwPKWpZkY5iYjFmcjJtuRl/gVRiehesrTAIJdO8EIOIr3VfsiI+TWsbRmWd20dHoOI8Kx+ZjTBxKmmtEdJ1/cdkCUsgKE8XOIGNa7OQ9fzri0YXFOOTwXMz8TMdUypTxQUoFiZUqQEp/plVXTTpAKFOoUMUpsDL2BY3k9Z2nF0rfKdNNwbC7m3kMphcJTyBbPZLmtgKhbGFW9cGYVHrrc59xyTt86JhsxRw5ETE94smotgVcHqlCOd33kism4XT25QSnQHowcqiDByNnrO66sWK5t5CDCgUnD8+5qMN2KdlDOZ4JK3DZADIEBL4itbud89OKA1Y4lEuHQbMThxWTIWDQkG2ghLNaEsSHZYZcBrP+k1UTdsBQgvFlWNFovhcAMK5uWy8sZnYFnLS88lnLXbIIx3hg2qq7ervK0A2KHjT98f3Yl458uDRjkylTLcGg+Zm4qxroxQuIoW1DF4TUMDbuWQg0sQQMYYenDH2rPG6E1tTc1oVGGP+6dZdWuqZm1owj6A+XC1YyNbYdFOTYX85zDDVqp4LTQXm6vFvK0AqLeEaeKERjkyscu9Tm7kmMQFmYijh5MiA3kdozdYGTDQVWJBKZjIRG/EbWeOfq2bn0snlHcFKT50A5EUOufn6uSBX3VIDSM8RQs2BokGMtLhaJqyHD7Rq2eOwcjXC4BI348DHBhOWNp1ZKrMtkwPHCiwVw7qt1y+7SQpw0QO+UFoTtwfOBsn2vbOWkkHD+YMDMVAYUKtjv5L76xzjEVGeZTweFZhgOu9B1Oi8EjrF7FqdDNLA7FalBvaxK9UpsrqjktuEVkPPVJTUQjFioCM6L2FjfeCBhDanFBPWF9y3JxKaebORqx8LyjDY7OxmHDzI/f7QDF0wKIYTB4frjVy/mHM322+r7Dd9+VMtUKlkWoZqBOgouJrfaxscB8bJiMPSBUvRS/PHBsZQ4EnIWuzcncsLiwmxhQr65uoaxfX3IMgaYxNGJTgmVIZSz7cR0hd0ToBA+87kA5eyljq+eIjHLvwZR7DqQ1kD79oLjlgKiDwakXmFa3Hf/wRJe+Vdqp4cSRhImmwRYsohyYulpJTXisJs05RzsyLAQKEYnQzZWLPctWZrFOK38Ihh7zFPs1/Nmp951oRobICI3IYILFdEi+GCOzDD10hIWoVZ68krO+bVHg+FzMJ93VwAQtxTzNoHjaKISnDMK1bcs/PN4jd8pEw3D6aEqaSJAXxvDf2nsNwmMqXj11VAas2USYjA1bmePM9oC+1XI3s2oIO1bpDSn69a4deZ4qgU1BGgnN2NCMTCAAxbIutJTrgALKRRHwwZOXMzY2c3KFY7MxLzzevC2U4pYConIO8WxidTvnH870GOQw0RBOH0tJIkPuHMYYdrKIiow6hUSE2URIIj/wm7mynjm2Bn6XMzUwsEqulTq3nwl/an0drid46xFH0I4jGgEYlYw7QgV3e6A6vKipnL2SsbaZ4xSOzsY8cKJZ+mw8XZTilnlMFY1zYbI7Pcv7zvTIbUUZ4shvH5faQH1wCulfFVGYToTpWEoyHEfCYGBZ6+XBsqdkzg9d3bXhdqnsoxgu2pBZ2LCWSCxTaUwSmZJiDnt3yc4HFmPgFDFw4lCCAuublgtrOUiP+481y/4/HZTC3PiS65d6Z4v/nb7jPU/26OVKIzGcPpYQx163FiNB4KqxizAQLpDMhdQwG/trrPP2/26uXO3mGLScgEiGxnH3NoY/yvCr/HHcb1q75jplHDAQyBXW+zmdQY4SvLSKvhYGtlHBRPzY+DHyH08eSpidjDAiXFy1PHy5XzV7RGO6FeUpA8J7A1UWSOvgHy/12ep5beLE4ST4KQQkq1La+1XRsKydU5pGONQwtGKw4ffICH1VntzOKtWU4ckay5rDn6HrFEQVcf7l/eX8xBTfSaBQ13vO+HEYBlkBjM3MsdrL6OQ2KCClvjKsAtUbWVJLf8mJIwnTbW/Kf3w55/xKVlKkW00hnrIMUXcqNQYeutTnkas5iYHTx1ImWxG5dVWjx8kLwEwkTCVeKLRaCIjC+sDyZCfz7nGwKwsu20NNjiveOwcoGkVoFKMmAjFD+2T+Zgc2xziLOEu5CSFmSEbcy7bJkGYUhIl2apiIR7j0biSuBIXDiMFax6PnB/Qzj86X3tNkfiLGuWpsbwUwnhIgRrdrL28MeO8TfWIRTh5OmJ+OKzDUG1uTFxRYTAztyKtyKkIE9BWW+5Yr3RyhEhpvuGVRTJgCNkejiKzVxgBxrw9Zn6i7hmTbpP0eMuhio5S81YbmJLY1i4tauEZCHkM0sMT9ngeVidBCk7kJYFgHqYHphvfYLgTRXfldkEg1+G72Bsqj5/pkTmk3DC873aIRGw+asPfxVEFx04AohUj1+xO9geNvH+0xyB0H52KOHkhq1l0ZAkHBOpzAYiy0I8EW34uw1ndc6AwYuGFVcuxCKv9UZFusxUURebtF3HdMXvw4rbMfoHXlSdpXz9JaOQPr58MkG//gXGH6KPld97I+f4Te/GGyxXvJDz2LrfkjDCYikk4fk2WBwtRMDdxAhtlBLWCmGZFG0Xg5YkwHNQjW69uWJy9lZFa5aybmRSebtVufupD5lClEoWK+/8ku59dyppoR9x5LEFNIy2aIPRSgAFhMhVZkSsFRRDjfs1zpZEPag+/smPqp2ENh3AEha7dobGyy8P4/Z+rRdzJ19RyycgbiFJI2rtGGKC0kM7/qc4VuD8m7iN2CbADRDHrkHtYXZuke+2TWnve5bJ04hulb4mwQdjmkqv86FGPE3ACqTDYiWnEg+4XlaTfjRxjrJDFcvjrg4jVvuHr+0ZSTi2nJOp4RClHsWrpgfDpzLeOj5/s0EsM9R1MaqRnibUN8MlgwFxvGU4Ziqxd4bHPA1sCV6uMNbQrFJDiHGoNNW0TdLY6+90+YfvAPaWwsQz7ANafQdMI73TkL6hCtYicKUGCBHCBGjQHNkcEWJuuANMlmp+mceD5XP+eb2DhyCqwj7nf9tSJ7ki/qa0OBidgwkUbD1HScBawmgIrAI+f6bHYd7cTw0tNNJhrDLONmgbFvQNTtDSKGXmZ5zxN9NnuWkwcSDiwk5LnzqtMYM6ECC4mhHfvAFyOCRXh8s89G5kiCOrqrYY+akiKePdi0gRrDwkfewdG3/hLJ2nk0aaNJE0wMziLqhod5lI0V31tFcxdWvqB4oRK1nno4ULps3P/5XHjl6+keOU3U7/rnG1N3mLrOGFbVO2AiMUwkEeqKPo9BVWmjcESRodt3PHbeuw8cnYt44HgDkJJi32y5aQpRDO4jVwd85EKfw7Mxdx9JA4iDdD6CbKcwnwiTiZRqqEV4YrPPZqbEu1HNol4qoRFA8pysPUlj8xrH3vyLzD34h+jUQTRKqg7WKcE4sjPE4INMMbCorbE78OpxxZsw/TU0bXPxC76Ryy9/HWIHmEEGkbmhv85otdYp02lEK4lxwSg11s+iFDIhNsLVtYzzVzMs8NJTTQ5OJdQV5JuhEvuGUik3iLDdV55czmlFwuH5GKFwTx+RF4Lw2Y6EidgMCZDntzM2MkdsCr36xmAQ9ZRhMD3F1PmP8axf+xbmPvxm7PxJ1MRIQX8LEutHpxil4QeX9LvW7sjUbCaCivhnBr8JQXHNBRTD0T/9Ge594w8QdztokoJzFfm/zlKrV2tE2MosfZv7eNGRhTR8kwelVWVhNmaqHWEQHrqcIUGgeiqC5b4AMWSCVeXx5QGbfcvBhZhmw5S+BqUlEkpNJDLCXOpnUxSMGC52Lat9S2IqI8xu/Sgpg4I6RzY5ycJH3sG9v/aNpOuXsNMHMHbg17D4CZXA22sd2OXhUr1UvVmxcPcv2EkQ2CSoxqIZSIJtH2Dmg2/hWb/yvxN31tGkiTjr23qDOalXC8JG39GzdgiM4wxXhTZhRDgwFxEJbHQtZ5azqrs3ab3cFyDqUux233HuWs5MO2JxZtTYUluhqhhgMTVEBH/ByLDStyx1s9K+sBfh0WsFjnxyggPv+3859Vvfi4lSXHMak2fes8kYxGYw6MNgsEPDue5AjV5bN6JVgxBAYRAcojl2apHm5Ue571e/gXh7FZc2EGv3bOUsqwU6eUVhdGybpQSnc8rsVMTsVIQCZ1dyMhsocnH/PsueAVFQh4JCPHxlQO6UucmIZupN09UgVoOaqzIVGRoipQVyq+84uz3w3bvRHIUxQEFcjm1PsPj+t3Lij/4DNObRuIGxeUnWJetDawLmFvzLGMiyyt5wvQpH1ZuE8ffUKQUgboCdXKR5+Tz3/uo3E3XWsWnsQSEMmcJ3q9azDh9cvDnIK7lyrPGlYsfOwYGZiGZs2Og6zl0bDO2E7hcUewbE8OaVZXnL0UoNB+ZicuvJV0ERtNbgphEmEry7mwiZCud6OVZ1aJdy13oL9u4seavN9CMPcvyPfghtzKNREsizIM75ET19L9z7XLjveXDfc+He50CrCXm2N112lEpEZvw9Q6AQxA6wkwdpXTzDPb/946CCi2OopRO4/vhW8kQvRJd7LUd3kSW0pBLttmGqbXAoV7ccWe5uent8T4DQQvoJ7mJnrmVsDxwHZyPiqCZISkXOik5Mx0Jca9yVnvcb9N/dYG4o9HolT1LSzXVO/T8/hUgCcRNxeRBXBFwOdx2HQ8ehkQI5qIWZOThxj6/IuaJDu1c6SiUKj5xx99RBIYLYPnb6EBOPvJ1jf/UGbKMZfmfIqnmjqhFYH+TDq3wcKMqxFg7ORTQiYXkzZ3nLlvcVr72WPQFCAk8Sge7AsrzpSCNhYS7ym06jJFW9Y21ThFYcLJHGezdd6YSduusIkGW9xSA6iNKUk3/xc8TXzqDNKcQOvLxQsKcogoOHIR9Q5gsSATuAmVloNKpgyhsN0JDGgacSxfc7B2cYFG6Aax/kwN/8V+Y/9h7yZhNj3Z7jiFT9pDinbA28Z3pRz4761dMep0raMLRbBqtwdTO/6U2vGwKiRFhA60rHsrxtOTwX+chrNOiBNQEs6MuzSUXaULjYtZjQtxstFw2CpLGOQbvJ0Y//LdMf/Qtse74GBqpRllpXhgZACp/66sE3ROIIlbiePhyur7QPL3CiDY685RcxLsMZUxKZvVAJAtUbOCVz3sin4+oP7VT1UeYHZr3GcWnd0cuKJGy3mELUZYfcOq6uWwSYnooodN7SUhQa6YAJIyU7MSJc7mVsZTmFm/yNWIWEN2qEtNth6i9/EU1mPP6ksAvUXs6Cs2jNvb1IFEK34wXL+kTfqNTBEJvhjZXxA1UDhUMbEzTPf5SDf/NbZFMtJB8wuiF2o6qtUzqZBfXxIWVfhy6WkoK3GoZ2w9DLHde2bPnbLQVEPfKqmynnV3PmpiLSxHs9F4NR9iSAZzJQBxXBOljp2zLH055YhYDYjMFki4Pv/RMaS2dwaZMgZg0z3OL/+UtIFHlztRhEIogTuHoFBplnK/X2XrcRNfAUZvgbDWzBNlS9yTuaYPED/53W1Uvkzbbfc9kD6xgVMDNXyQQ7qUSl4seRMDtpMMCZ1bwU5G8py/AN9I1Z2fKxDnOTJqz+gj9Vk2RVmTQ+qsqqd5O/1Mt8ZBV7YN8EMDjFxSmtlQ1mP/o2MBFIhKjbOaDF5F05h545A/1t6HTQ3jY88QhcOg9JMnz9XsqQyrkHVhPuUTGIy3CtORrnPsLcR/8KTRNU3a7y6W5dUmrJ0+rsq7qyrNeI0G4Z0kjY7jq6fUexzbDXsicKUUz6+VVLMxFaDRPIGOXqlBp1aESA+AbmCp3cJ/wsF/P1BgI8KpwlbzWZPPM+WpcexrVmg1Yx8pBywsRP+uWz8KEH4eGPw4c/UIGhPpB7JaFFPQUF2su9BRUEcBnammPxQ28n2drCJZXWsZdSUIlO5oZU+XGyhIYF2G4amg3DwCqXN3L/M+yZbdyYQoRG5E5Y6zgmml6aLaKm0Io6OFVaRmhGEmI5vY1+K6/UzL0Mgqjioogos0w/9l4034KwRzFOo6mTd4kTiBtgB0iSQJIOXxPauv9yA8FypBNelrC4dJrmmQeZPP9hT+XQGxqqilJ1q5AlxvQ/1FfYJBqxYart52x52w3JgHsBxQ5A1GMrCpd4gKUtHx/QbghJ5CsvNqgkNAqRIH8JokKOspIVvol7HEsJBCJJSTevMff4+9H2QcRmnjqMTsqI9uDb76r3Q2T/KZR4HwJpTZYQFDVt5h56EA0reT8lDB3dPLwpzLYj9XlQeH/UVsOQRIZOT+mFeMZ6TOv1gDEEiFEkiVSubVc3cowo7VT8LnHpL0BJJYxA0xSahc+ztNF3RGZv1AHAlHKqob18BnPlH9G0hTh7ff9DqevctfdPiSrUG7YPQEBJJfxedZPph96NuKxsx17h6bvj77GF/904sVS8xdQpTLUjGolha+C4sJoFq2Vx//U1jxIQo7EVIt5nIY4MzikrW0oUCY2m39UsTKrFJGmw4bQCu0CErVzDtfuQ44ruqtJ+8p/QZBJRu1N2uN3lRraI0VJK986b2FcfId1YQoOpaT89KdiGV9sLGXfMhIp3W0xiIUl8HWdXcpY285BgtTgSYncWElfPqi7oDiyPXB3QGUA7FXqZJz3NhmGiacitDq++IIWn4nOwiXhPoJWs2Mrd+whoIIsqwuTlR5G4GVjXiIp7u0shKTq3D3QHygkgCe3LF1h97hGk16UIA9jjYwLZL6DkGDLE1S4s5rHdFLa7Pun7B872mZ/ImGwIpxZT0nj3fY64elblMPvI1YzHlnJSI1zFr3wjSjOhlKKHBiU8vB1JaTiy6kE0eumNe1/YIHKay4+jJt65MuvIHidXPB1lNwqhVIYTau9DxwuOLzahsX4JFxli9bEoe21xUPJQVZzV0nK5Y0LDWKgK0+2IpRVLHFIUXV73JoPMwguONXFhX2f0GTtYRqdnWdmyNGOfBb4ZCWns62o3PUkqB6i4N/CvNPKUAWA7Y8d1e+p8aIfJB8jKGe8OV2QkLaNvpK6oV9/vV63cT8nqHwIvL6oZBUPtksoRWJneWC0sNvtiGUWxqnSDA01pqR0t6ucgTTwoiyQqzcTbJ9Y6jn5WaR+jZYhlFPbz3FZe1RrMpqpCHJuxK1LCYIgYiujlDZsP5UnaaxERnBiS7gaqDoNPG+ShGzrg1HtIG0LQZDEYNcAUtom9hlpdtxSzGzo7FOpfDKow7PwQ6ldF1HtE55tXw2rXCih7bIEIOC2y5iiO8RbIoglxONrBhdRJ3ofVz6m1iiTjLQ5Drk51gbLI7+CB6L9rN3zOyHHD1RB8Q9XvJXWyHCc7k3eMKzupru82AhhFLcjAQB4uKAEhnp9p6ElsIQkCTEE9ilF/Smwl8O7CLVoCxbIJuAjU+jZpBCYg1RgwOSIONX4SpZ9XfRavUe1nFxRVnBOcE8S7f+/ok//ogdpKha2elqmi1Q3P77gyBIg64ka1NR8kQrVYarKiEjLCFfKD9bmdBIYyAo3tKCOL2ObYdIKk0UacQTdjJNcgnUcVqygAnnnSqZn1W+Ex0HQQ14RQrf/fvS1jG1f33yujvFLI/PPUhD0TCmNUGNJcUY1BHRpH4Byu3cAl/ll1h+G97m8IQqZ+BzSJqwne2WYv58WxNxGIqYatet4NWMaNxiWOdpKo+qcGvnNioON8djcZvWhcR6lRWmex7Uni9Wuc/uNfxmy00cRAHCPqoLuFZgPEBucRQOMEiROkNQlR7H/PIu/+1rIQB/FN65XtsdOi4ASMAyJotGE9R/Pcb6LFEdLvwKCHOldqQmoiJEmRZhvVCMkdziVM/cO7OHDvp3PthS8j2doCMVWs6B5KyW7E6y67EbxihzkK1HM/hPGGgAiqdHi4H9XRMVXw7uPBLyJzVcTz9VozBFBnySYnmXr0Hzn1hh8gvXYVN7Pgw/aXzqPNSTh2CpmdRRsNJE5QZ5HOFrq1DWcfh846MncY4hgdWMgipKXQDJ1Qww1zSyql6oyKJ/c2gkED3eyBEW8S315DN9bgwHHk1Emk0UQbbR8U1N9Gr63ChSc8aZ87hMYN4u0N7v6Vf0frdf8HF175auLNbV9HOdjXx6ooQfWk2vXdcZH/TQRaqcGnadt7uSEgNJC02FStHWUDAhgTwKJCz9qhXA67FSEsQOvd6uc//B5O/JfvJ1LFzR1EVq6gSQKv/lrkOS+Cu5+NLB7EE8+iOGR1FX38Y8hDH0Tf+RZYuYLMHgQU7cQeVO26yH/9RklJURSxgm4miM2QOIasj167DA98OvKpr4Djz4Gjx5FWy8eLAvS2kaWr6JMPoR//ALzzL/3W98wimg048tv/kUZng8e+8KtJtjuoSOWpd53madAarJbkbheV3NssSiVsH6WM3CoEyvWu5X1P9MhsSP2Dl0xnWhEn7krQkr5LSYWtKodS4wXLyHB2q8/VriWJxndtSG6wnjLMfuz9nPrF78VEid8V3LyGvPiV8Nqvh2Onq/ucC/GZoQ1RBMF7SgG5fB7+7DfQv3sLpC0kafiE2U2Fdn217DLydQohMboeI1kOcYRurMDBu+BrvgN51v3oxGTxpLByPHvSEEpXyncXHoM3/TL60b+HqTlv1d1e5drrvovH/qevoLG5VUWU32DCrMJ0GtEsIsfN8B0FKxURtruWh88NSGK/gHLnE6N+yskmrcb49AF7c7J13udktEjtf7WFEKxlsvv+RUFhxDpsI2Xi/BOc+PUfIDIxLmog2yvIV34zfMePo8dOo9aieQYh1kFNSPwRRUEQLX7P4fAx+Ibvh3/zH4Ac7Xc8aLpAn0oK3gUM5ZqyAhtAlqGxgdVleNHLkR99A/KiT4eJSR8hnue+fi0UQnyyEZujWea/P3YPfN9P+T5tr3htYXKOhd//zxx6z9vIpiYRa8sFf71V7b3QKxV4VDAs/SjD+/3K0XsChCtJ2fhJLiqvlkQNJCOl0ATVgYrBiOX4H/w86dY6Nm0hnWvIN/0H+JKvQcPAighEcRUyP/I8Mcb/Lga11juYvvxzkW/7CdTlyKDjAdSNKU2EoyNfI1tiFLoG7SuSpOjqNfQVr0K+6yfR1gRqcy9Exknw0DLUh10RxEReGAbIvRDMl34N8vX/Fumu+h3dKObI7/0crYtnySd8xFdhOtmtqIC1WoJaRiekEGzxbLxcp3sse4/cCqtn10kuB/jGcgMK4nKyyRYz7/sbJv/p3djpBdhaRf7F6+HTPh8NPpBiokpB0GpjxhhTqk6lxoEHhwCa5/CCT0X+1feiNkdwiBPomZoBoAaKQgMxig5idCBImqKrV5AXfiryv/1bD4Q895NNtToLM7Ax1aFrzrmqTYG8a5bBK74U+dKv80LpxDTp2jXuesubQMGZaMges9v4lYtvnHBcoxAaHrQfOWJPgCh3fvdBIXYrfiEqNklpbm9x7O//Ehc3oN9DTj8XXv2v0DwL+n3onEjpVh4Fv0gbTLhRFA0Bpfwvgg76yCtfBZ/2eejWmif9A4HMMGQAKMBcbPv3BSFCu1vowmHka7/bO7eoB9yQe4C1RFGEMQYbqFMURURRNOwKbwxqjGdtX/p1yOnnIZvruPlDzP7dnzH16D+ijeaNecbowF/vZ9nTZUNljz6VBRl76hSi7GzaoH3mYyQffAc6tYDJtpGv+hY0TQJlqPI7Olf5Br7tbW/j9a9/Pa95zWv4P7//+/n797wHY0x5TQkKY3xOKEC+4n+F+UXodb1lMauBt1hlxf79IIKBQY36BGSf+xr0ruNEfiyJAAAgAElEQVS4bABRVFr6CpDGccyVK1f4uZ/9Wb78y7+cr/qqr+KNb3wj6+vrQ+0q2ySCJgnyVd8Mmvm9IRNz6J1/jpPKgWa/2kE1vhXL0Nr7vZY9qZ2IP9tBCytH+K6m/FA5gFbJxMZuDgoUWvTiPz2INieRbgdOfhL6rBcGo0oVPldMchRF/PTP/DQ/8sM/Uj7rHe94B7/+a7/GG9/0Jj7/8z6PPM/LZBmiClGEy3NYOII872Xou9+CiiJdA4l6o1U9+bo6sA4lQnsdzPw88jn/wof4R3HJtqBiE0+ePctrv+IreOihh8p2vfnNb+Z3f+/3+N3f+R2azWa1JaAK4v1JeNYLkZPPhfOPoxOzTH3oHaRr34BtT/n0iLvNx64f6v3QkmUo1TztpewhLsNTh7wwSNR4XF3LqEu+JnR+rBmioNR5ztRH34W2pqG7jn7Wl4YckcOewsWW/Pnz5/nJn/yPpM0mrYkJmq0WUzMz9AcDvvs7v5OrS0sl+yika1X1Kqkq+spXoW7g9YBw+HsZs18IlE5g4J1IUIfe9yK0Pe0NYHV2FFZ8HMe84Q1v4KGHHmJ6bo5Wu02r3aY9Oclfv+MdvPGNbxzKDle0SYqURq98NWyteJkk6zF54XFckpbZbsbOR9GvYlGO8PA6VbDuaRAqCxzYPAzarlKwlg1sx1GZ82FHh8IqSTZXcFeeQJIUBj3kxKmywnosQTH4H/jAB8gGmSfVQf3s9/u0JyY4e+4cH/vHfxy6p07aFUGO34OkTdSFhJd5AWAtV5UHfJhAFPnkl/v6a88qSpIkbHc6fPTDH8YYQ55lWOewzqEhdPFNb3pT2f56m0pZ5eQ91QIxMY0l7y+B7mKFDPMRRZVQuXM7wdMEAfJ8d0qzW9mbDAE+Grm+1z9SXCFjAEk4Kmbc5knhadVYX0HiptflD52CiZnKmLGLhTOOo13buFtgqw+aUWg0kFPPRwd93+vMVJ2rG/y1Fu19171ht9aM7UtkDK12e9edw/5gULSuPgDV/8lZOHQcHfQQDDMbV1Gp1PYdfSx+kNo8jNUyPFrsuK3pG5Q9UYiihXX9d7ShzvqGKEoqQlxM7KiaDN5Umw9827O+H5i0WdZTJy3FqnrggQfIssyzkCDcJWlKv9fj0KFD3HvffUNaSVlfybsFnZlHCkOESKAItQ6p/86nF8iQyYmyTaMrMc9zms0mp06dCjvBCVFQOyUIk1/8xa+icPot768LVs2Wl29y662j6yuVZ/mYUqZGQD1bGxmrYoC97CC1+M6xjxtb9iRDaKgkH3EnrKvwGZ60OlVSo0TiV+YNg1JUIU2gbnSqVVJI88ePH+fbvv3bGfR6dLe36XU6bG9skGcZP/pjP8axY8dKoXLnivUAkDiuAFBv/I6rfbvL5GVjrIGF9vP617+ekydPsr66SrfTodfp0Nna4v777+c7vu07ShmokrGkorQm+E1IEAL7/bDAxw+aindlNJVZeAyFAAljP8i0NBnsteyqZdSHQMRnKtnu2mADL+su/3ecMq2BJUdCbATNwzW1BgmejLs4DRY9A9ubPqFHWfGweqKq5HnOj//Yj/Hyl7+cP/i932NldZWjR4/yZV/2ZXz2Z392aZcYt0XvBHAO2digyo6nlS2i6G34TtXbriTroUztGNG6/ePUqVP82Z/9Gb//+7/P+x58kDzLeMUrXsHrXvc6pmemdyYUVa3qs9b3u6BK7Qmvhu6yov3WhY95GYo5GbnGb875UL5iQe+VUuwAxGiATjEARoLrVdHakcZ4JyWf2xWFySRmK8t2cBgN9/ZnFtCsBxPzcOUcdDZh/kDotRmqu6ASzjle9UVfxBd94ReWKw8Ychgd3bAphbk8R889FFiTCz4OoXGFLR0B8RZNlRiuXITZA6WQN05ozfOcU6dO8X3f931DFkugpFhDIBWhdDvrbMOls2iSYrIedv4wEoxlu6mKsfjFBpQpjeoluEpgrQQ2rpWlQIr5HS/fwZhAHSPef1+HVBq/rb3VLdQudtIh9Z5ShN9nwg7bWLVIHdnkLGb2oF8R/W105VI5YPV7ivfFIFtry8+qWn7eDQxlHqjOGrKxFHI3iDdCFcShALeoB0ShIj7y0A4raL0ugCiKSgtlYbp2zpUWzFHPJC2okyq6eQ1WL/n9EnWsT80ROTd2ogtN04T4irFe1548YETZ7tkQrRXaHIDgI/B3TzW0w+u6mQhJLKUOW0ruAllOCOHTYcEvXNNzRY4EpRFUo3Gu4qKgcczWJ70M6W/C5CzyD39XhroVz6sP/qi/Z90yWQfOaH9QP8D63r9FJfHk1KgPzSt1PiidHNNA5VDkg2+n8AnVEbvKaLuAkort9nsRX6JifD8ffRhaU4hzOJux8awXYgYZMiZmw+NVywmTcQJlrYH9ngvCZwVIq0oaC40kBFuNoRKmepYXCJNIOD4XkxgTHGarSchzZavrglBTA4UIKkqnCOAJg3CgGYf0eLU2BwAhhqXnvxTZXvfGn79/C7K5Wlk+a5Nc58F1+8K4Vx0Mqo5SGH/7nwSyabwz7lAWVClXF8YDVuImevEsPPEwEkVoSEZSH8QbtWVUpvG4CxTL5uh//x1oT6H9DtxzP/25w6VRqj5VhbhgRGgaUzv5byeFKKj8Vs9fU6R8cgqt2HByMS6PuBpHJYbc8IuZO7mYcnQuJrd4Z06FB5/ssrTp6PcdUxORFxhrSSbFKVYoGyvAbGK4uO1DAEeL2Jzu8fvIj5xCtje9efhPfxP52m8Pm1txbWXuQ0wOfVEUrPPubm//M/TKBe/j6BySiJchXLHJFUDh8FQiskjcQNdWcG/5XeTf/PuQ7CMcHjdGmLtR0eKePPdtevMfwupVdGaRaHOFCy/5XE8VQnrH+tNFPGWOIh8KsRv/Bz8nWe4YZP7g2qOzEc8/2ijNF1FgtUbGqx87WEYx+HFkaKYGI97B9nlHUhRlq18IllpBN9xrVdm2lCnxYiO0E09phrUuwfR79BcOsfwZrybaXPUm7Lf/Kfr4x31If15lYSuQf8MB15pxylo/8MuX0D/5dQTvHS2x8/sYdeogNbaROs82rEOmZuC9/wP58LuRtFGZ1ffYpqJdJcXKc6/6Ll1G/+I3oTGJ9DoMDp5g+UWfNcS9hp/hl1gznGSo4wAZBN9IhPVtR2+gTDSE59/VIAlanwdDWPwjss0OQNR53vDLd2qiGZFGQrfn6GdFzEZ9QD3LyYIE7e0RwkIjIneVgaSidoIM+iy94svonHou0t2AqIH+5x+Ey+f9ZNocDbEQ1wNGCZyC31vrQdXvo7/yE7C6gkxMoTaHpvUu+pXYHR4C5X5G03mNyUTeSvmGn4DLTwbHXufd+EZY1A5whkkqZRAbwNDZRn/1/4bOFtpoYnodll71rxnMzRP1e0GGGgZDIcM1owgtErXoyEWlUA3dviN3jqmmIYl9sHYFgGFT+q6AKECxk/9VFd81G9PpK72+j5IoGlaokiJC33lQFGR7MvFZVuuJbkVBjSHqZ/Sn5rj4Fd+Bd+02sLaE/uIPwcqS3+dw6h1TQqfHdaIEc3BlkySB7jb6Cz+APvJhZHoeHQy8B3aq3j2uFFYKtlcAJIxKK0fyHGlPwdY2+lPfi146h8SxpxAFWNkpOA9pOtZ6z684QTrb6K/8ODz0fnRqjmj1Musv/AyWXvb5xJ1tbyMZoeQSFk8keE+uYAAcvUi1OIbJsbXt3981W9vsq3GAcfaasYAYV8obRbhrLqaXOTo9f7h60SihUu8GTukWoYBOmYiFudTnTyw5TXikJjHJ5hYrz3sJq6/7HkxnHZoT6MUn0R/5JvRDf4fEsV/t6iAbeE8oa/1A28p3EXX+2iiGJz6O/vA3IR95NzI544N4EqBV2BoKdI50tpRm8YEmLTyZn5zxVObHvhF5/1/7FRwn/uLRNjnrARzaRGi/PPFx9D99N3zwnejsIaKVK3SP38eZf/39OOtFGg0C7Q6BEphqROV07ZjKQHqN+CzD3b6lERsOTcdDwvheyp7OyyjQ1RlY3vVIFzHCfcdToiLtL9XgeoEFDjZ8snMR6Fl4dKPvWUftEDOCHCdOySba3POXv8X8n/4ytjXj/Qs7m/BZX4p88mfC/S9jN4NN+d3HPoi+/2/hbX/k6Vd7CnLrbQ4zRRhdQR2uIxhq+Qc6EdoTJDJ+8ntd9KWfjXn5F8DzPxniZKzxrfisD38E+dC70Df/rl8MMwtEyxfpHjvN49/0k/QWjxB1e/5IhpoWDAUYlFiEuaZP+FAeW1WrrYzgEri0nHF+Oef0gZj7jzarOdnjoSo3BMQov3n4sj8w5f7TTSZbEdbVTs8Jg2yd42Aa0YwluJQZntzOudbNfWyuDI85AM6RT01w9K//nEO//Z+QOEXb08iVs+jUHDznAeTgER8HsXgI0tRP9to1OPtx9MLj8NhDcO0ScuCob4pzaEORdpECr+BXY6hD1eGaZBeOXe4p2om8yhoZdOUy0pxC73sOcuQknLofFg74aCYRWFuBRz4EV55En3gMli74NgmYlStsP/sBHv+GH6U/vUDS6eIi4908qTBaKiVOmSkOV1FHqX+UF/o/Il67eOTcgM7A8Zn3tYaOcbzlFKJA2dJGxnuf6DM14c/X0mJmiwQW6jdWIjEcblT8OXfwsbU+wQg8tDgVgjnXkbUnmXvoQU78xk+Qrq/iJueQrI9ur/vs8q1Jn6Y4PFiyAdrd8sPUnoZGAx2Ew0Ta1pP+QjDY86GbMEy7FayBTeOFziTxexDb614bak97h1zBm90HOWyv+53ViRlotLwMM9hm47O/kjOv/jqsRERZjkamJCmjzXLq7WezjcQPr2NHHIanEEH82rI8fL7P4ZmEF59okBbJ3/Zx5NKej1gqJOfcKu8702dpK+f5dzdJG1INXA3eTn3i89nU57qOIsOFruXy9sBvfBX2IKp5QkHUkbUnaPQ6PPvXf4jksfejcQspbM0Fby6k7OCCTzg0TcV51bKlgSpAKTfsJ/6+Lk8E5x+cQs+gAxP2HGL/vc18ZpliHIyPRwXjtQtx6GCDJ77hp1l9wUuJul3Euuo4ph1jXb2fSmtCefFlnYxQDeQj5/psdBz3H29w98IwK9srhdhzNvxCUk1iw6Fpf9vV1Xw4G36hcYjPKbHt1Af9io9UPpQaf8RSLQd5QZ0LOc+JIdneptdqs/qsZyMTm+ikoo0BpDlMgE4ITEb+1RZIM0hyaFtk1sKEUmZYL2WGfYABanIGhfHE/28rMpV56hMPwA18XXEMSXhFBhgAPbRloZ2j8461576YuNvzPpMFZRgjREqoOzbQjKOhjH+jPKWwYK5tWrZ7ylTTsDgRlWr6ftgF7DH6u662OFWOzSecuWZZ2bQc3LY0mqZSC2vmZqvKdq7MJIbcOWJjODqR8NjmYEimK1l2ARBjiAY5OONTMsQKURDFRardwqESVmjhL1kf5jpz3k8pSFhJ0wu11PjQwIb6Yx3r15TXOs+lIvEn/ZkZTJYPmT/q/a/qDMKkiD+pL4zlkGWP6iFi/Jwsr3vNb2EqYqpVHXe1X0vvnplLiTRV0thwajEms8qVNZ+XYWh/PrwMwmaudJ1PcWxVmUgMi40obK4MjUOwUXiV1TiHM42QOkd8kI0VyNW/H/eqZ3Cpr6ibAcOOhlFRDGr1xQJJsH7W/8fB+cWJZ3HNqeoYR5WxTSoe71SZiCOS4HMx1J/iQvUZ/mIjrKzndHqOicRwaiHIdTdBHWA/kVsE1hHac3IhYSI1rG9Ztjs5JjIVKKjA4YC1gcOGscUpR5qJz3Y7ro7QASeCawb7g2hJ/QkGL8rPI69x0tmtKuXgFsDQYjmPeWnIWIf32o7aXkMQGDJFjjzeumDyT71Kv7MrWo6BMf6EgmsbDqvK4rRhuhWVbGQvpvXRsi9AlHwsNOY5RxK2B46ldVciUosBCtTEiJA5ZX1QHKnkN2mSqDCVj9RR73SRo1pGN3uerhnfY6mT7YJ67HiV4pyPVGtPlGAfJQ/FOlL1eTam07iSLUYpXM0P1AhcWcnZ6lhaieFZB9KKO94EdYB9AsK3r5rIwzMxd83GLG/krGyEoNxSotchUGxbZT1Tz15C9LAnaewABQgixof4FQLdfkptL2Ho/e0uBZ9XsCapvPVGF4EUopHSig1pVAvVH+1DSDwaGaHTU5bXLA44fSAOSenHe5/vtewbEHWNI46Eew8mRCJcWLI+DsAMax2lPCGwkSuXB44rfee1j1IA3VFLzQRQ17f2WEbqroNzn52t/t8suMT7iuTNab9RVrK24Uc5B81YaCdR7fxTHaYQNc3BqXJ5OWNglYNTMcfnfe6O0V3r/ZabohDFyrZWWZxMOH0gpp87Liz5yCipWS3LXof7cgeZKpNpTCP2SdTrvjb+egBhMDkLtr+/BoaJ84K/z7ilNwOKIVAHW4cw3K+9FAFxOS5qoGJ27GQWckMUwXSaVNRjB6sI/Qps5epKxsa2jzA/dSAmiQyq+7NKjiv7BoRvWxGS72ngPQdT5loRy5uO5TXrbRN1f4liIAkeWPivZhoJjbhQkYrLA1msLPr7nIBqFWES2LxWemgVW+nFNvAOcJSDXuj4IVOKy6Gz6lfgfilNQQGaDb9UtFoAhQYdG2G+kVSXD9VRXVywim7fcm3NC+onFmIOT8clVRn14dxvuSlA1PVbDWro848lCHB5JWOrZ0OawmKVyQ5qUbydbsQBFMWikCBfKC4KK2ZfE6BgDNrvwsJh9DXfi3bW0ME2EtLgBLm4EvICQKrF6b8Xk6Bby2ijBc95BeIGu2eQ3X2wQB02bXqNQ6QcDqc+7+pcswLDEKuAIQHd2xzg/FJOP3dMpMJ9BxulFfNm7A6j5aYAwUjlzinzEwnPPZLQz5SzlzKfDdcEAbLulLujwwEUEcGRoxwZ8maLfVOIYjVh0f4G8lmvRb7lF5GZRXRrBfKBz58dormLdvnbPGtQMZD10M2ryKn7kW/7JfjULxnyy9h7ezwgXJQGdko4hrECQ9XlkbGBcuxUvS3nykrO5rYjNsKLTjZoFerpLQADPAVAQG0lBQn59GLKiYWYja7jwlKOFJtYo/x7LCiSSqYIXzsThm9UqLt+o/zomgTp92H5MjzrJej3/Q7yyq/xttnNaz7iHCBpoEnD767aDN1c8ptWExPIa74PvvWXYeEofPydlFbKfQ2Sb7ON25jcb8EXMsMNwVBjL0lsWFrLubLiD1e752DCXDseotS3Qh3fk+n6emXY0xmedbDB6rZjaT2n3RAOzCf+QN0hIY2d0r96mWKdnH7mE3CJSdDGlF8h+xCWykHKMmTtKm520XtTv+Zb0U99NfLX/w3OP4pePY9cO+ePi07bsHACOXYKTr0EfcVXwdS0d8LpbCEPv4uSWt0My2h5FbrwbJ9tJMMbT6NCeLhXnSOODGtbOZeWM5wqR2ZiTh9IvdxQm4NbUZ4yIMpAGvG+D+2G8OKTTf7+sS5nl3yeqEPzMZl1IftcWMFjQFHIFD1gvVjlSRPn8ups8Rt1XtVH68UJ0tmCsw8T3Xs/Ls9wWYY5ejf61T8Iq8uY8w/B5mXv4pZOIAdOwbFno4nPbmcHfeK04bUMMViJQg72fbANVXAako5CKxamGyPaxNDzhoERRUKvb7lwJWdglbl2xP3HGuGEQy0z7dwqUNxiCuFJ/kwr4v7jDT74ZJ/zVzOMURZnE/Lcldbl0qS2g1IIrTRCjNKLEzSdQvKud8vfy0SI3wG0CsnsDL/w0z/KygfO84Pf851Ya8n7faLIIHOLMLdY3Rb+a3DVG1hHo9lkbbvLb/zw9/Da3hJHZmdwud1bhv+SiojXmtIWc82ItIigD23dySbC9cHHoZ8pZ67kdDNlshHxyXc3Sz+HW8kqivKUZIh6qTtvOuc4MpPw/KMpCJy7krG8lhNHphDod5UpFE8pUiPMtr3XFGrZcxhzAVDnUGOYTOBnfvgH+KVf+HmMMSSNBoM8J+/3cYMBbtCHQR836GMHA7LBgFyh0Wxy+eIF/uXrXsdf/v5vMzfpI6z2TB2KPhkDWZ/G4kKZyHVItRyVGQIYjBH6ufLk5YytrqWVCi8+kdIMUVdFANWtNuPfMkBARSUK5B5fSHjOIW9BO3clY3k9C4E/OkwVary53C+xShS3yOcO+RwS444UGt+ICpzW8rzDs0ymEf/u3/9ffOu3fRsf+chHaDZbJI0GUZoSpQ0kbRClDeI0pdFokqYpf/VXf8Vrv/Irefdfv52XnLyLVuRdA4s69tIOL21biFtks4s+GUjRx1GZoVgQzk/2IHecvZSx1fGH2bz4ZIOZduUSB0/N3rBbecoso15G7ROqcM9B71r20OWMc5dznIMDc3FpodwpUxAGzdGXlM1omgVybKV83KgRFJFJ+cDygsU2Lz7Q5l1XMn7zN36Dv3rrW/miV72Kz/2cz+GBBx5gZmqKRhSxtLbG8rVrvPOd7+TBBx/kj//4j30gcZTynIUWpBH5tvXZcfbIMtQYyHvo4kmkMem37YVhMl8uDNAQndXvW568nLPZs7QTw4tPNphr7zQ+PR2bfLcUELATFA6450CKEEBxNQeFxbnYLwznhcDCXF1kzAX12WdbLR9FtY/OF/EkNre0Jhv8z889zN9ceITJqSmuXL3KG3791/nt3/otFhYWSOKYSIReltHr91leWgKg1WqRO+W+qYjPvXse7XsH4T23Q8IGXT7ATC1Coz10gEnlmifhe583ZX3bcvZiRjdXJlIPhtl2HLymbo3x6XrllgMCdoICVe452KARCR+5OODcUkZnoBw/kGBMSEoawtRKy6QqUTMmXZhDsq5fbfvI9C8ixJHBdgb8L887xJv+6TLvvtRlatJPdJ7nnL940VuIAEIof7PVIo79wSfdbo9/+al3cWi+RX+jRxpH+5oMBUSVPG0hTmonMhXkroq2ioywspFz7kpGN/PaxKfc3aSVypDn9NMJBrjFMkS9SI10E7SPYwsJLzrRII0NV1dznrg4IMsdcTy8JV6qoaJ+C/wmeGU1cN449l++8DkcnYjZ7PYRdT5hWLNZphJsNZs0Uu9P4Kxla6vL552Y4rtechS3NSgF4n1NhgiiljxOQ/ByaZ8H9X0uwhIuLWc8fjGjl3s7w6ff48FQ1Hk7wABPIyBgmFJ4ayYcnkl46ekmcxMRK1uWx84P2Nh2xFHQRTUIFOpQA3mrvYsP5R7rNoLNLCdnm/zXL342d6VCp5dVFtTaq/AI63R6fNqRNj//Bc/yrn5ClQJhP6VI4pq2guNtVQ8ocQS9gfL4hQEXr/k23Xcw4SUnm0Rh3+J2ggGeZkDAMCiMeEl9phXx0tNNTh1I6Awcj50fcPHqAKQ6o8OzDvGJwyXa91wUdRfHPma9nE87Os2fvvYFvHixQa/bo5tZurkr//dyb6f4+ucf5He//AUcbadobm96QjQkCOsNBlhbpDCScPoQXF7OefR8n7UtSxoL9x9Lee6RRhl6UbjB3S4wwNMkQ4yW+paskeoU+xccbTCZCo9ezTh3LWejpxxdjGk3DVEsWECjFOIGqu6mXCWLmNPIQN7PefZ8m7d99Yv4449f5WcfvEAvc+TOm5Pvnp/ke190iJcdnwPryHOfD2JPBrHxPS9ageLlBGcdm9uOi8s5Wz1/nvmh6Zj7j6ZlQjdvvrh9VKFebgsgYJj3SlC9FDh9sMGBqZiPXx5wYT1n66xlYTpirg2TbYgjQPenZQzVC8MUKrcY4LXPO8xr7z9Cf7NP1ypTSUQ0mUJmcQNbTiBUoNp/3X51N5tN+nHEZseytJqxvuU9xhqx4d4Dfl+i8CkCCYf/3X4wwG0ERFEqY4p3q3OqTLUMLznZ5NBqxuPLGZfXLBsbOQ1tc/fSFjPar5xLbmKQ6hRKxKc7cb3c57CIIxqxb0e22ccYKfdN6vfcXGe9LAQJ55ccK5s5/XCw6pGZmPsOpcy0fP4GvzNc2W+eKUfi2w6IekcLLaRQvU4sJByYirm4mvH4FcfyGsxsKKeSOMiaNz9IO+o1UsaTFIfsxJEpf78VE6JiMLbLmfQw5zoJSdZjZiLl2YcTFidjIlOcLX97BcfrldsOiHrZYcRSaKXCPYdSjs8KH9uE5vQkmrT9fsYtGqzSj8N/2MEObtWkeKZo6DZmaLUjTk8nnD7S9Hkmw+5nIUTfCWCAZxgQMKKaasVS0lh44aLCguI6PaK28Qee3QGDttdSUKCD7hrPPgkTtECldHkzI6zsTihPu9q5l1LyTqrBKUL9nMvQrLt/x5RnuqhiXIa25jl25u+Z2FzHqfERVzJMFe4UMMAdAggY3j73A+WPQpDHH0Vas6jaPe5u3SFFQp7MxiT5mQ/hVs5jqI5b8pfceR26YwBRSPWq6llDFMHDH0Xf9hfIxFxxgssz3cq9l4IFSo5hHv7ot7yQWTM0PR3b10+1PCOAKAZCayAodsDVhsSel8+j/+1nIZ1GbTAOfSIBIqjIYh2StuH9f42+9Q/82V0iPgCYkTEIG1/PJFD2nEHmKZdi0ms6fiHlF4Ji2ZAH34n+4Rtg5TLSmoZ4G037iJpPHKHSOe/llTu0myIuQTur8EVfjbzm64PFrQZx9fktygNz5ebtLk+l3D5AhFImFqEGAFWf4e3xf4L/8afwofdAlCKtBpop0uhBOgA1nxhEor7CBeimaN8gRtGtdThyEvnMV6Of8hnI7GJIcVg3dPOMgAGeIQrhNteRtWvQ3YJrl9AnH4f3/Q3S2UQlgjRFosRrHU6QeAviHkpUbSHf6SWwOBWHbEegEz49olO03/MHuoiih04gz38RHD6Oziwg84fg8FGI02cEFLfXDlGAYmUJfedb4T1vgUvnfZa5mXlIW0jkoJv7M78HXTApLDbDOVgackftAcPPJGhKGSmkbIyb6PnzEEdIknpnIGd93MjSezxlPHQAnZyBz/gSzMJBXJR48N9mkviMsJkvDdEAAA7tSURBVIxiP4GlK3DxDLp8HlldQtdWYbvrL2y3kMPH0ZVV5CNvhbiDRsn4VVMA5E6hHM75o6GzHjpzAL7oW5GNVR8ctLUFnR5MtpG5BXTxCHLgBNx9D0zOVM/4Z7+5VWMZWngOHzjkX7zUr4N8AFnwk0tiH2wD6B9E8K7fhom0cmgBQkImL5CZaIR3P4PgCIKy5j2YWUAe+EyfgAz8sZTWlimPoUYDrAXU96UwxN3mftw+tbNudDLG+78459XMEEQrcYq0Wv4VJ0g+ABR50St8muJsQHmIGuJtE0kDXvJqaE96QN1OElsH4AgbU4nCEZRTgIN+L5zVkSJN3z9V9WeBWVvGkWgUh8c9M7LSM7bbWZJDE5cq6Kj+LRL5DaDGBMQxLutV4YCIJ81xCtMHKN3vRIotxKevE6Eerxp6TygtjkUKFExCwA1py7cleEnV+yiARlVOybLNN+l/cSvKM7u5NQKO0UHwqREEbbbQKAxSkXK4SMUSJ8PsojawxbZ65d28j2EunjPKhmrfi6qfcPACcN2mouqPRGhMlvfKmGAjqT/7Dih3jul6XCkGKUp28tRg7SNKIG1SZIcpfy8BMHKkwF40lDoYRDybGgEDIv6Yyfm7YP6u4Q04CY4xEkNzoaRod6KperTc0YBQ9QYabbS9hlHm6iOENjifiDxpDGsfxYSpQtbzKt5+hLTCmlrc47Lhz6ogkQfE7ALMLqJZH+8MrCX1UGPQZnM4B8QdXu5oQEjBpwWfwwGqpV5MeBT5rC/KsPrp987h4N3+bPF8sPct9GI3sjhjK2pC4cIHZbCu5Bk6exCmZ5GsX1GoQniOYiRtfcKAAe50QBCMO2mKiKNMFgb/X3nnFmNXWcXx39r77HM/c+bSzsC0tvSWAuVmoUEFUWMUUzXqi2jig/HBSyIx+uADiZcnfdH4pDEGL8GQYKLBB4yJEfFSrBJEBGqhaauVArZlepnpzLl/y4f1fXvvM50WaAxzJqyXnuk559v7fHt96/JfN68ynE3qLVXsdU6dAMigBxt3wcSVSK+d81BegYIE6LaQyVnkA3fb2AXPVBJUAoI0Z9BYrKg3x3A2QFXATxe8rDqCVaCRZggNojeOs8onMrUgquZlFIpm7esylQGwePbyVIa5DPa9bddDuYq6fupdoA4tJGiliURFNEpy6/vIZaFgNZ2Q3duI00gzRHDHQkP0FH+wNwl9KIkLweDw7/kweqkK6zehvQ5pieCrJVVEIrTXscvGUdpSkCCp4oRBoQi1dUicmJTwNyDOD2QtVUzSrQ1+GG2GGLLa4yQ9tYDtsFNTGcViOgDVm28mMZIEak1TF6/1p0omj6RSIx3akqoMRaKYQlJEx2dMEgRPR3M2RLXhcZa1wRGrnmR7ScqL+LhM1vgbrLmps1K/QgHFN2BHDKNyzoaU1CesncBlXF7UNy+NC5kaSWEQQxYpVhCp4OICkfoZXWK2T5QUkMYETuTVtSEaARpthgiIJBhELQwhkWZD2DgASTurqOcbZyMb6+PGOJfzQPJzwUt1Qv+noDokLlh2VxQjse/z4BuKiLcxqE/6AfCvK6h+2TTaKgNIVUS5mcMAvLoggkoTKde8q2cfDc2TNSqABN1/OVZ+MFId1GdIxUMQFUF11JuWv+FcJsWMS6Him6+uESNi9BkinOz6eKqfg0GpcQK1SaRUQeLYxDu5ngrFqjc8X6NBOXwDtsb4TM6tDPfhK73qU2jiPR0vxZTQ8SUk1f4f9uJ1oNFniHCyi1XwLf4sJ3NgXsT4LKrO5nQHlYGX9nGAnLkQBsjHPvKvLyD/JCs1f9D9Yqn6UiiXsRmKzns6ps6UKENb1wBsDWuBIcLRqo6Br2swvlA0ErRSM2mAL/Tx86wUtRHMwR1daS5BGqtYFqcYImfjpBtTqGTegrVKclhlupoNoZqpDPFSanl0d8Rp9Bki6N7aeA4C9kk2cQEpV9FixdLbfY2cMYczIKk56ftI5R5IPlbhe09eHLjysYlShayWwud2oDbrW8k1ViU1MSg1hq+5Bmj0GSKc7FLVQ9l4P98hSYLUJ8wDKSSYyMbiHwOHNNaZZOl2s1EIkEoBUQdx0V6HWMlyCeGBKKk0fGwjIJGW6COFokmCcjODxsMSY7P+N7zKGMoI0EgzRDbIRNFa0++retfPoUmC1seQgiAMsgBX2PyxaZtP4VPx8raCRgV0aR62XIvu3ov22iuLdR/61krNSyiTEJZAW0ACNN3c4JfOJI3WxlLbYUVmG0EaPYZIH6jPohpYjydZOpt6DyGWIKJQrqNRjEaSpuiH+Afjs0iljlQaaRwCsM9Els+gE+uRt3wQjZPhzwQKuRCFQg4JJVUfaaujxmTGMN6OFYnsc4N+WpSUThoaURoZhsifJFUzCNX1LffQKfrYQ5juDo6GQlJBIt9YLCqmG22mn7ME1yhGfH/J7GEL2u8itUnkTTfC+isNnu6vUD/qjUepjfkWQdlbaXEyoI2ptIWQISERevRxtNtBkpLZmv2e9ctmdCXG6jBEzg1Lu6yB1Tuq87o5saSY44fQB76B/ucAUqoQ2gaICOx8R9pCgLiYGYshGNaYHFo/ZRjB8iPqDdh8HVIqI8UE1YF3K3MU1qw1Ue0NqRX1xqgCsu16RNs2jUcdUqrA6VPoj++BA39G2137TZFvfuptFl22F6vNJKsDXUsW6gkbbCLWZl3r8WPIgUeQF59Fnz+EzB2HxnoP8ChuMCAadNHbPpQacDq0tkUaKZWJCgUoJFngKVzTDXBJApPTpmJmdsLplxGV3Gqa4h6UKiChiao9xKG215uvRic3I2dO2FhndUi5As8+ih5+ArlqF252B1z/LqLtN1xYgqNv5A4ymqvRGPSh20JfOAJ/+y16aB+0ltBzc8igA7VxKI8h7fOAQ6WAtE6jd30FmZpBe10kKUK/Y83BbWHb7LEJswHi4ZoN9fCzNKZMnQCydTcc3JdJE7yBmOZkCqzfhps7hiQ+pG19YGzqTlJCPv413Pc+D0tnbRAcQFJDXA89+Cg8sw/2/xJXq8PVd8At74XZbb5iLc6uvYqMsYrBLX9G5k6gD30XeX4fFMah20HKJbSxHSUCteIV09V9WLcDufNTyKaduHYLKVfQE8fRpQWkkC/k6UNzyuMMDG2y4HBA9KbdKQYhW6719+QxCw83O3VpNpRuvhY5eRiSqvXOXJxHjj5JtHEr2m3Bll1EX74ffvNDOP6MSQkd2ESdwqzdQ7+DtlvIc4/AgQdh463wnk/D5p3DANkq0SqqDC++pzcgn/pG9p7D8hNdrsUQfo/KleEK6XIFTh5Hf/EtWFwwb0KBbhs23oSWarZO2OhUV3u1MrslG900vRHRHk69txKJweNxbACYKmy/Af39T9DalKXn4dB998PsFtj+ZpMa0xuQT3w1vW8Aen0Y9Dwq6us3EutNiXOwdA4GA4ucrjKtvspIIWC1zRKBUikF/PIUtLt02uiRp+HgPjj0V3j5BaTaTEsE3fnT8K6Pm3HaaZm9ENb2nkJEHzZsIx0NVarBuu3ImZcsLS9cUWLwyXu64xZ0ZgfR0lkoNZDKBJw+hfvxPci2XbD9bbBnL1rJZVqDlSUmhfT/wh6k0qA+kRYqrbYdsfpGJVihDaSMAlidY79rafRLi/Cvp9HDT8Lxp6C9AEstOH/GpEZSRVsLJtZb88jezyHX32ZpbIvn0KUlG+KqIdahaFSE9bPWCQ5DHdm6G33sQUM+VZE4wS0uwNIC0fgUNKbgI19C77sH2vMenygivQ7yxMNw4K/w8L3o1j1wwzvhii1otWbXLdfRYjkbmpb9+gw5fcOqjDxJblNUbUbV+XNw6O/wzO/h/Ek0ipDFBWTuRRujEAlSLML0JkCt10K1DGMz6J2fQa7Zg3RaaKmCnjgG/z2CVOtZZnSvjey83ffQzp3UrdfAH38C1Qm03zG4/NQROPw4unErtJeQG++Az/8A/c29cOoI4gTtD9BKw9RCuwUH/4Qe3Y8kY2itaTkRxSry5r3o1beaBHEXGT35hpQQF6MgOTotuOIq2PQZjzziB6gK0u1Yka/6hFavapi6AipVr5Y9DrBwBv3DfUTas+Jb7dnpnzsGN92Rfl/xPSM3X4eWm4jr24MaDKA2gXv4pzCzFbnmFvvO1l1En/2OGYfzZ2B+zqrIAElKBmeXygZchdpPVaTbRjvnkUplOPo6QvS694d4JXqtN7NCbBL6A3js1+i+B+ClI1CfQvo9sw3aC7jGOPLFHyGNyawwWJ3lNjz4bfjdfej0DqTXAontIZYb6M13Ird+GGY3rXjt/D0M2Qu5v2XoE6NHo8MQASfIewR+F4PXqM755NbY8hjxmx7sjWPPoo/9Cvn339D5eXBdpDoJoZ6i45t1fPKbyM3vNBXi18E5XBwTzb2I+/7d6KnnierTPhcystrN9iI0xpHmJHrj+5Cde+DKqwwl9S2KRZ3FX1CrbA9Qe/qvZPEWWHUjcjmNDkO8EoUIIp5PWi0T/Uf+iR7+Bxzd71VJhESxhcPVQfu81WUA2hhH3v8FeOte+6zPskrX9AzCsefQn30dOXEc7S6ZLVH02MOgD/2u95D6llq3693IzpvMphmfSZO0AJ9gu1aS8NcCQ4STBOi/n0L3/xx5+T/w0gvo0cehWEaSMiTVdOPVW/VUp6C5DiYmYWY78va7kKlpA4xCPuQydFCd88NXB+ijD8KRv8CZ03BuDuZPQndhSJrJoI/rLCLteaQxie7YjWzYjm7YRXT7x7LQ+4hJgovR6DOEc1bXALhDj6MHH0HKCZSnkELV0ttCVhNq6iSOkVINHZtFJmaQ9VfmpIBLXT/Iiew8NuLxjDSp5uwcnDkBZ1+C1lno90zd9HvW8CNKfOeXPiydRLpdtDaD3PZRKJbMC4pGJrB8SRp9hggiN6S5LaO88bbSa5MYDhkMfLeWSw9Pz7cdllCaF1/cGbuUAQmMrK1wMRott3Mlkqyjq6jzjbnwRvpw4770daq3JfX1NS6k713q4aTMAHbqVX1OZoC+c1fMG4fhDlIjWCCK15T9AGuBIfISArngtK4oIVaw4l/LQ1k+YGUIPFuWHxkqsnTZ91OVxGhA0q+W/gewlWXTjsVpQwAAAABJRU5ErkJggg==;" parent="1" vertex="1">
          <mxGeometry x="345.71000000000004" y="533.1" width="46" height="55.76" as="geometry" />
        </mxCell>
        <mxCell id="Xq1n-c8aseyyMUb2qtHi-30" value="27017" style="text;html=1;resizable=0;autosize=1;align=center;verticalAlign=middle;points=[];fillColor=none;strokeColor=none;rounded=0;fontSize=18;" parent="1" vertex="1">
          <mxGeometry x="170" y="470" width="70" height="30" as="geometry" />
        </mxCell>
        <mxCell id="Xq1n-c8aseyyMUb2qtHi-31" value="5000" style="text;html=1;resizable=0;autosize=1;align=center;verticalAlign=middle;points=[];fillColor=none;strokeColor=none;rounded=0;fontSize=18;" parent="1" vertex="1">
          <mxGeometry x="170" y="330" width="60" height="30" as="geometry" />
        </mxCell>
        <mxCell id="Xq1n-c8aseyyMUb2qtHi-35" style="edgeStyle=orthogonalEdgeStyle;rounded=0;orthogonalLoop=1;jettySize=auto;html=1;fontSize=18;" parent="1" source="Xq1n-c8aseyyMUb2qtHi-33" target="bWGEidWGkiljW06ko3HO-4" edge="1">
          <mxGeometry relative="1" as="geometry" />
        </mxCell>
        <mxCell id="Xq1n-c8aseyyMUb2qtHi-33" value="" style="outlineConnect=0;dashed=0;verticalLabelPosition=bottom;verticalAlign=top;align=center;html=1;shape=mxgraph.aws3.classic_load_balancer;fillColor=#F58536;gradientColor=none;fontSize=18;" parent="1" vertex="1">
          <mxGeometry x="-40" y="244" width="70" height="72" as="geometry" />
        </mxCell>
        <mxCell id="Xq1n-c8aseyyMUb2qtHi-36" value="80" style="text;html=1;resizable=0;autosize=1;align=center;verticalAlign=middle;points=[];fillColor=none;strokeColor=none;rounded=0;fontSize=18;" parent="1" vertex="1">
          <mxGeometry x="40" y="250.73" width="40" height="30" as="geometry" />
        </mxCell>
        <mxCell id="Xq1n-c8aseyyMUb2qtHi-42" style="edgeStyle=orthogonalEdgeStyle;rounded=0;orthogonalLoop=1;jettySize=auto;html=1;entryX=0;entryY=0.5;entryDx=0;entryDy=0;entryPerimeter=0;fontSize=18;" parent="1" source="Xq1n-c8aseyyMUb2qtHi-38" target="Xq1n-c8aseyyMUb2qtHi-33" edge="1">
          <mxGeometry relative="1" as="geometry" />
        </mxCell>
        <mxCell id="Xq1n-c8aseyyMUb2qtHi-38" value="" style="sketch=0;html=1;aspect=fixed;strokeColor=none;shadow=0;align=center;verticalAlign=top;fillColor=#3B8DF1;shape=mxgraph.gcp2.globe_world;fontSize=18;" parent="1" vertex="1">
          <mxGeometry x="-280" y="310" width="103.96" height="98.76" as="geometry" />
        </mxCell>
        <mxCell id="Xq1n-c8aseyyMUb2qtHi-40" value="&lt;div&gt;443&lt;/div&gt;" style="text;html=1;resizable=0;autosize=1;align=center;verticalAlign=middle;points=[];fillColor=none;strokeColor=none;rounded=0;fontSize=18;" parent="1" vertex="1">
          <mxGeometry x="-150" y="286" width="50" height="30" as="geometry" />
        </mxCell>
        <mxCell id="Xq1n-c8aseyyMUb2qtHi-55" value="" style="shape=image;imageAspect=0;aspect=fixed;verticalLabelPosition=bottom;verticalAlign=top;fontSize=18;gradientColor=none;image=data:image/png,iVBORw0KGgoAAAANSUhEUgAAAK4AAAClCAYAAADFy8YtAAAABHNCSVQICAgIfAhkiAAAIABJREFUeJztnXl4U2Xa/z/JydIk3dKNpS0FCtgiglAWmY4gCFpGBCuKI07dBRT1RcShoj+c4R21iuIyAwIqo1ZwcLTIgC9FsEK1IEtxZGnL3kJLoVtK2iRtmpP8/ggJTZuUthQhJZ/rynW1J2d5zsk3T+7nvu/nfiR6vd6GDx9ehvRKN8CHj/bgE64Pr8QnXB9eiU+4PrwSn3B9eCWyK90Ab0YURUpLS6murmbfvn0UFhZSUlJCbW2ty37+/v5EhIYR2SOaG2+8ka5du9KtWzcEQbhCLfd+fMJtB8XFxWRnZ5OTk8Pu7TsoOHYUFaBS+1/02CpjLb2jezBoaAIjRoxg0qRJREVFXf5GdzIkPj9u69myZQtr164lPT0dFRASFoFS5Ue9qY6SihrAxPAhCfTv04OuWg0AZ3QGSk6fJq/gBCUVZYCKELWASq3GZDRSZaxlxvQZTJ8xnb59+17J2/MqfMK9CKIosmbNGmbOnAlAiNqf4NAQgPOCLWP870fw6AP3cNstI5H7qwFoqDU6z+HYdrrwFEdPFPNr3iHWfZfDrr25RIZFAFBSUcbzs59j7rw/o9Fofstb9Ep8wvWAKIr88MMPvPHGG+zcuZPIsAjGTrgdtUrNhoy1lFTUMP73A/mf6Q8yctigdl0jd18+6zZs4ouvM509cPzgQXz44Yc+8+Ei+ITrhgMHDrBo0SLWrl1LXFwcdyRN4I5Jd2IwGNiwfgObv93AYylTmD5tElK5n9tzWBvqXP6XmA3N9rEp7D1r4fFjLFmdyeasHExGIxE9oli1apXPdGgBn3AbodPp+OCDD0hLSyNE7c/Tc+eQlJREsL+G7O07ePPV14iN6cYLzzzOTb9LcDEHwC5WidmAKFrB1uixSiQtXlcQ7F7JzG27mff6CgACggJZmf4ZAwYM6Nib7CT4hHuebdu28T9PzeL4qZOkpKTw5JNPEuyvIffXfaxatYrMzExeTX2WmQ9NdTnOKVaLeFGBtojNhkIpJ//YKSY++GdUajVKlR///matr+d1g0+4wEcffcScOXPoHRnJ088/T1JSEseOHWPr91kcLMgnMzOTLz5YxG23jHQ5zmaovHTBNkGhkJF/7BT3zvwLAAFhIWRkZPhs3iZc88Jdt24dKSkpxMX24bVFbxLXJ5bcX/fx048/YTQZ2b19B6/MneEiWmtDHVZTzWVrk0Ih49usnU6zoed1fdmwYYMvYNEI4cUXX/zLlW7ElaK48AQPTfsTciS8t2ypi2gBDvz6KzMfTGZS0hjnMZdbtA5i+/VDKpeT/dMuTh0/hr9Wy7Bhwy77db2FazpX4eOVn1BSUcbLf1tIQkICub/uIyMjA4Cik0X079ODqZOTnPt7FO35gZggSF0HZe1AqgpAoglFqQ1h5kNTmTRxPCFhEaSmpnLkyJFLOndn4poN+RYXF/Pt+vUMH5KAWq3m3uS72bU3F9X5901AwY/rnPtbG+qwGvWu9qzNhlQd6HSJlVdUEhoUiEw0YTZb2tUuqdyP77bu4K9vLaes9Ax94q5DqfIjMiyCFctXsOitRe28487FNWnjFhcX8/rrr5O1cRNKlR/HT50kLrYPw343kl69eqFWq0lNTWXDZ0ucwQWLvrzZeaSqAKfQVny6htLyapDLePmJe0gaPczuFmsDCoWMnP0nmfjgLCLDIiipqCFELbhE6jZnb/UN1LgGe9zi4mLuvnMSNef0ACgUChYsWMAtt9xCUFAQ9fX1nDlzBoBf8w4xctggezDBZnPpbR2iXfDauyxJ/xaA3tHhYDbz8b8zGTE4nkCNus3tO3W6lHXLX6N7l1AaLCI/7Ckg/d//R805PVUVZWRnZzNt2rQOeBLezTUn3Ndff52y0jOo1Gp6XteX1NRUYmN6kPvrPr777jt0VToAekf3oEZXBWC3a5u4vKRyP55/5W0++XItY24aymP3JtE7pjtymUCDRWyXaM1mC/eOcx2AxcdGM/W2ETwwdzEmo5FNmzb5hMs1Jtw9e/aQnp5OZFgENwwdwquvvsq5c+d47x9LMZqMqFXNxSat0zXfpgrgu607+OTLtcxKuYcFs6ahUMpdTIO2mgmejhNFK9pAf1a9NYc7n3iF/Px8iouLr3lz4ZryKnz33XeEqP1RqvxYsGABRUVFrPnXGoBmoq031RGgDWl+kvNeg5WrvmL870ewYNY0BJmA2WxBFK3OV0ciilbCtIE8nXInBQUFTlPmWuaaEa7BYODQoUMAJE+ZAkBO9o8e9y+pKCMmPLC5CCUSqivOsvmnnfx19kMIMqHDheoOUbQyZEBfVMDhw4cv+/Wudq4Z4ZrNZvLz8zEZa+kbdx379u2j1mh0u6/RZN9+XWy02/cDNWo+f/tl4mOjWxSt3mB0JtC0F73BiN5gb094SBA33TSUX/b+cknn7AxcM8I1GAzUVNgHWxERERwpOORx39pa+/SaHl3DPQozafQwz75amw1BkLIpew86fa1n8dpsKBSehxmCIKW86hw7f8lHEKQEatSEBAVQdLLI4zHXCteMcAsKCjAZjajU/hgMBo+9LYDJZGLUyIQWk2da6mml6kAkmlB69u7Dx2s2ut/pvK38xrI1HoVtU2gI6RLpzFlQKGR0jQjl8ME8j9e+VrgmhLt69WqemT7T6cg3GJondTempqaGvr2j2/Uz7/DvAowcNoj0r79z3+ue/1LkHjzC4cKSZu87zhMeFkr/uF5k79rvfK+6sqrN7epsdHrhrl69mudmzkSpujBTwdhCbwvQYKojyE9ou3Dd5CmkTLnNY68ryAQSru/LqnVZLZ7n7onj+Ue6PfwcoPajyljL6tWr29a2TkanFu66deuYOXMm6qgoekgEekjsaYFmsxmAsvIyysrLnIOxxgQHtGPCokSC1VTjMm3nsfsmkP71d/xrw1a3X4SRQ/qzJP0r115XIkFiNmAzVGLRlzOoT3c2/7ST7F37CdCGEKL2Z+bMmaxbt67Z+a4VOm0AYsuWLaSkpBAaFcVIQck7qlBeqatif0gw69evp7SwkGrdOef+Ed26Ej/wBiLCI5Cr/Kiuadmc8ITeYKT8VCnhIUGEaQMJ0wZy14RRPP2XZQwZ0Jd+PSOd9rEoWhk1/AYiwyJ45d1P+fyteSCRoFDIeDx1MV9v+hl7uo+dU6XlBPnZv3y9o3uQkpJCRkYG48aNa/+D8lI6ZY+7Z88enpk+k9CoKG6QylmtiQTgoNWCvyCQ/8uv1Nc3MGnieO6fksSggXGUlZ7h1127KCsvIyIigh92/LfNGV6CIGXnL/n87p6nuGXqc4y8/wVG3vMc32zMJjIswO0xomhl6auz2fzTTt75Z4az1x0z8kYiwwKIDItgyu1jWLf8NR6YPNZ5XA+JQExMDM9Mn8mePXva+aS8l07X4+p0OlLnvkCdn4IoqYwP1eEAfFB/jmKrBVtVNfdPSeKZ6SmEh4U6j1v07jJWpH9D/r79jL71VjZk5KA3GNucc3BdbDQPT03m59z9TvdbZI9onn1ggktv60C0iCQmXM/DU5NJW/41A/r15I6xI7g36WZuHzUUgEC1CoVS7nLcPL8gUuuqqQBS577Av9dmoNVq2/q4vJZOJ9zZs2dztOAQAeGhLFZq6SL146y1ju/FevzqzIyfOJ6F82dTXlHJl+syCQ4K4rZbRvLC7JnkHjxCXsEJjCYjJRU1lFedQxvo3+rImCha6RXVlTeef5CTpWU0WETAHjjweJ7z3oVZ05LIO3qSea+voHdMd/r1jCRQo0YQpIiiFbPZ4vT5ViGjj1TBQmUQz0psHC04xOzZs/n000875iF6AZ3KVFi3bh1r166lKiSY/ycPZJjM/vNca7NSLbGhVPmR+szDANz18PM8mfo37n/yBe55ZDYWfTl3TxyPyWhk9+7dAOw9cKTNngWHOHtFdaVfz0inAFsSvyha6RPTnZdmTKGkooxH5y12utCaHneuTiQEuwnTX1DytKChKiSYtWvXXlODtU4j3OLiYlJSUtBGR/O0TM1UxYWfzZPWBor0Ogb3j6V7z2hy9+Wz8o05TLl9DGNuGkppeTUL/7GKoXHRVBlrKSgoIC42kuhuniNnF6OtCTdms4VRw2/g87dfpuDYUabPf8et/7dGV0V3tf0LacHGRIWGGTI1oVFRpKSkUFxc3K72ehudRrjvvfseIWp/tEj4H79g5/az1guuqa4Rdpt2cHwv5DKBqnM1rHjtOVa+MceZDL79q6Xs/mY521a9SWLC9b9JAo0Dc30DSaOH8Wrqs/zw8x5S3/iIE8VnXMRbY6yjZyO7W4aEmcpAgiRSQtT+vPfue79Ze68knUK427Zt47MVy6kKCWa+MoguUnuwobFoQzWBGOpF5/8NFpGQoADCtIHEx0Yz5fabAOjXM5JeUV1BIrmsopWq3HgZzl9zxj238vDUZL7e9DNLVmc6hWuub+BMWSWRkgvT1C3Y8JdIma8Mwhaq5bMVy9m2bdtla/fVgtcLVxRFlixZQkhYBIOkMhcToQF7BMpfIiVKKqPo5Ckaao1IzAbkMoGAoODz57CS+uQfCT4/gLrcvawjnCtVBXicFZx8q30mhEZpF6kgSNEbTRRXG+kjdR1TW7AxWqaih0QgJCyCJUuWIIpis3N2JrxeuD/88APbMjMxqpSkNTERJNg/1O5SGeE22Fd8htx99kyrHl3DnTVsHd6A9ky3aTM2G5Xn7MENidnQLJFHEKQIgpRTpeWAidt+P8T5RSqvOsfh06fpJ8ibnhWAhcog6vwUbMvM5Icffrist3Gl8Xrhvv3226ijokiUKkiUBQJ20Tp6W7DbgaPkaioNetZt2IRFUIFEwmP3TXAGGX4LW1YQpPz8awE/5OxGWqdzuaYgSFEoZBwuLOHlxZ/y9F/eYcrtY+jfN+aCcCur0Z2qQOEma82Cjf6CkpGCEnVUFG+//fZlv58riVcLd8+ePeT/8itWiYRZygs2owUbTT/aRJmSmEAtS9K/5cjhw8781sY4ervLSU2tkZ17Dzr9sgqFDL3B6BTsxAf/zPfb/8vnb7/M0r8+gzbQ39mu737ay4CwYLpKZFhwb2LcJVdjlUjI/+XXTh1R8+oAxLf/WQ/QrLe1gYtwLdjoIZVzp0TJF1GhzH7tY5YsmE6fmO4uvV5O7kFqao3tqonQWnrHdOeT5+29YVethhpjHXlHCvnh54PExUay8M9PcPuooYRp7fdTodOzKXsPD0wey57Dpxjor8FfInUrXAs2EgQlCQjsPf98hg4delnu40rjtQVBRFFEq9WijY5mvjyAGX5hABRbTc16W7CbC7U2K1OMZZyzWQlX+vF0yp3OsOrHazaStvxzHp6azKKXZ3VMfbDzpUPt7bV/EQRByhvL1pC1Ox+NQkJIUABjRt5IdLdwbhoU59zfXN/AR99s5aW0D9n+lV3odzz3OvPlAdyl8PfY48qQ8IW5lncaatCdOoVOp+uUxfK8VriOKova6Gh2abo5Q7sNbswEBzIknLQ28Gh9FbWiSGVVLRirz7+rYvzvB/L31+cTGqRpXm6plTjcXBKzgcOFJbz01kqXmgs9uoY3yzsAu7B1+lryjhSxY28eacu/Bky8mvosT903nqVrNvPS+5/xfVQvekjlLQr3pLWBqcZyKouLSU9PZ/LkyW2+j6sdrzUV/pu7F9TBTBCUTr+tO9u2MQ6TYaUyhC/NBr4KAWtoAFokVFdW8ffX5xMeFtqsDH5rcbi5rA11CIKU+NhoHrs3iXmvr6Ckooa42EgCg4LQKOytlMnsPWFk9+5MnzqeR+ctpuacHtP5RPfUGX/i8WR7pcgVX6xjXGgwIRLBo2gd99hNKuN2mR+r1cH8N3evT7hXCwaDgR+zs9GGBjBWpnJub2rbusMh3tl+QUy1athrqee1hhp0xgt+T6ncDyv6drevuuIs7/5zLQ9MHssdY0dwXWw0X2/8kazd+RwtOESVUSREfeHn+1RpJdOnjqfgWAkAcXExLPzjBO5NuhmFQkb2rv0UFZUxpVcPj/ZtY+RIGCxVsCnEnx+zszEYDJ1uJR+vFO7p06fZtTcXoqJIEJSAa5TsYjg++B5SOT0Ucl5rsNuzR08UX0h1dGMmnCwtIzjQ36O/12EXB2rUxMdG88q7n/Ll31+mT0x35s28j8fu01NedY69B45QXFrOGZ2BmnPVBAQFI5cJ/OMvM4nuFk7/vjGEaQMxmy2YzRY+y9gMWjnj5Sq313XHAJmCSjNU7s3l9OnTna4cv1cKd/fu3agANRAr2EV0MTPBHRZsyJCQKFWwQa3kp5wdjBozkoZaY7PMLEGQ0mAR+XjNRuY+ca9Hr4PVVAM2Gw9MHsu5OpHHUxeT+uQf6RPT3TkjIt5NvQZHhpjjvA53Wfau/Xy96WcmxnSnZwu2bdP76iNVECMIlJ1/Xj7hXgUcKTiESR1MsuxCTkJrzARPjBaU5IQGkHvwCKcLTxEeFmpfyqmRZ0EUrfTrGcmRwhIyt+3mjrEjPM+QkEgwmy08dd947t66nWF3zebhqUmMG3E9vWO6AyCXNR/pN+7NBUFKhU7Pu//MgKhQZikDkCFplXAdJErkrFYHt1hDwlvxOuGKosjxokJQWhksVXTIOcfJ1XzQUMvmvYc4ebqM8LBQu53rxiX2/BP38qfn0pzJ3hfLs13x2nM8teB9Pvkyk0++zCQyLICAoECX/cxmMwqFgvS3X3BJOP94zUZ+2HeUGRER9JEq2iRagDipApRWjhcVIopip3KLeV3kTK/XU1J0Eq1/kEvMvr29rSO76km5fQHpdRs2Od9rGkVz9LqPPXAXj85bjGgRW4y0OSotLl34LP/4y0zG/34gAWEXCukFBgUR3S2UqX8Yxco35tArqiuiaEUQpOTkHiT96+/oHRrIXYr25VB0lwqEagIpKTqJXt/+webViNf1uIZz1VSUlyO12QUHtOi7bQ0WbNyh0LApNJgN2bt5ZnqlW3MB7GJ8PHkMe3/Zz1Ov/J2lC591O1Oh8f6BGjUPTB7LA5PHYq5vQG+0z9wN1Kid03EcWWmCIEW0iLy6/OtLuCM74eefT0V5OYZz1Z1qTprX9bjVtQZKT50EIETScT99ciTECQqKys/xyef/Ru6vRir389ijLn91NqfK9Ty14P2L9ryA00OAREKgRu20ZR3bnaIVrcxbnE7JyVMolXJEqYSZ9TpqbVZkbfx6Or7YpadOYmpo35oUVyteJ1ywVxrwFwT8JdI2ucHcIUOCDAnbLCZ+tJrpHRpI2vLPOV14Criw3q47Vr01h6pzNfxp7hucKD7TYgG7i6FQyDhRfIZ5b3/GfzZsRqmUI43sg2CxC+5hUwVHreY2iTdEIuAvCJiA+vr6drftasTrhFtZWen82xExa6+Z4AiPvlVXzbw6HTU2K1hFIsMiSPv7JwAeE74d9uubqU8AkPL8Imd9r7YsG+XIDlu1LotZC1ewOSuH4NAQ5ENuIXTEWGTxwxEsFqolNmYZytlmMbVKvE0Hco2fW2fA64TblLaOtMEuWBvwhbmWJ0yVfGUxEmSzgVINqgCUSjmffJnJsk+/BOziFdy4rxy+16ULn+XW393I5BnzWfiPVfZySjLBbZqkY5tD3N9m7WT6/Hd4+i/LqCgvR6nyQ3ZdAsE9+wGgjb8RWfxwpCYDokzGvDod35hrWyVevw5cqvVqw+sGZw4Ea/sEC7DNYuLv5hpO2kSC600EBYYhj7eLRapQUv7jRno1HOSltA/ZsnU70x+6j3GJg1GIF8ohOWzSo0WnOXTsFCNvjONM2Ri+2ZjNkvRvGf/7gUwe9zuGDOhLeEgQgWoVeqOJ8qpzHC86zY7/FvDF15lUGUV6R4fbV+wBRKkEDuVSnr+LwHFTUQYGEzpoBJVAw74fCVKqecGsp9Qm8qQyqMUvblttYm/Ca4ULrQ/zOj7Ao1YzS+pryLGa0VqtaFUByG8c5ezdAKzmekJHjKUS6C0/yuGjJ5n1/F+pMtYy5qah9O/bk/jYaKK7hVNTa2TBu59xvNLuagoN8cdfo6K3yo9jRaUsePNDVGpXV1ZJhcNLYSIyLILhcdFUlJdzzmbFKpGQYJUCEn6RWCFnI4GJE5zirVKpadi7ld5SgX9a7Ik4TyhdfcKNqbX9djOUf2u8TriOZBFR2rookiMPd32DkU8aahGlErRWK7L44Wjjb/R4nH/8EPRVZ6G+ijumJPPkk0+SnZ1N+Zmz7DxWwfe/FrLrxxyUKj8Wdu2OCjhqtfCz1cxJrARKpc56vIP7xwL2gng3adT07RnJyCH9AZj35kqO26xMk/nxmCLAWcTkBeMZvqqrRVZSCPREGRhMcM9+mDUBnNuzFW29kX9ajPQXFIyWqS76LHxJNlcYPz8/57Klded9ue4+tMa97Bt159hvbSDIZkNQBhA08hYU4d08XsNcXorJUIOsZzwU5pO1cRPXX389999/v4svtFf//iQLfsw+n8QO9l+BPLGeD8217LBdGMkn35ZoX7TvfB2w7F37mffOZ5TX1/GRn9ZldjLAH+QqvrIYseqrMKnUSOpNKMK74RfZE5tyAvqsr5HabOy21DNa1jz5RoaEKpvdI6E6/9w6E14nXKVSSUhYBLWiyElrA/3PZ4c1xuEt+LbB3isFSqUEmuuQDbzZYy9br69GUm/CaLgQcJCo1MjjE5CZjLy58G+s+PvfSb53KomjbqZr165UFhdzY58bXM7TRepHF6kfY+RB7LbU8L911Xx98Ahf//gLkWoFUbG9ANi5/xDTIsL4q393p3ekxGpy5lw4ptQ7ip0aDTUYDTWoQiJQhXXBeF0CFOzG/XxfO7U2K7WiSEhYBEpl8+fkzXidcFUqFZE9ojlWdpZyNzacY+rKArOeUEBrs4FSQ9DICfhF9sRqdvVn1uurMVWVtXhNiUpN+K2TEc8W86/PV7H03XfsVWujopzRqWKrqdlxPaRy/uMfzQ8N59gcoWa9rZ57ymvQSgXqwoIpEy00YKPYaiJKqnJJFAqRCGiR0LRKb+O2WiUSYqSeP0LH84nsEY1K1fqUSG/A64Sr1WoJiQhn14kj6BSuAxMZEo5azXwsGugtkYJVRBrZh9AR9rqyjUXbGsE2RegShX+XKFRni7FWneV4XS0KicQ5SGw6hrdg46y1jh5SOTHSBmrNRmZoLpgVL9RX85XZwDCZAjkSl+P9JVJn5KsppqoyLIX5SG02hsg896Q6q0ilQc+wiAGdKtwLXujH1Wg0xPSIgXopR63Nw5hmm41aUQSriCx+uFO0zvfLS6kuPNxm0TZG6BKFPD7BeT3HT31THAPDXLGeX6xm/AWB3ZYazlrr0FlFAqVS7lFo6NOOLDexwcRIQUk3qeep6ketFqiXEtMjxjc4uxro1bsXIdhH8E1RSCQESaRgE5E0Wea0urBjV2QMUAdSbvXscnJkno2WqRgtU/GEsZwvzQb6SGV8qtchKKXU22zIzwcKGvtdG7BRa7MiDWy+LKvNZKRWFBmu0CBvIUf3Z6uZECz06t3rEu/06sMrhTt8+HCqjLVUWYOptVmdngVH5n8PicBJKTTk5yLtd0Mzu7ajUAeHcbqiosV9HLMs8sR6iupq2FpWQWhUFA//6Y8cLMhncGYm46J7MlCmpJtEQCsVCJdIOSw2cEJixZ0hYNVXUYm9yIk7HD39r1YLGGsZPnz4pd/sVYZXCjc2NpbekZHoJBJyxebuoLEyFe+Z9QSZaqgrKXS6vtSaABevwaUSFBhKdulJ7lfUtTglfpvFxCvVZ5l49xQm3jmR7t27o5LbH/0tt9xCxpf/5tOys1glEmL7xFNtqKfqQC4B4aHNfjUcDJLKWpymnivWo5VI0EZGEhsb2xG3e1XhdTYuQGBgIIljx6KrrGG3pb7ZhzdMprCbC4Ch4qxzu03ZsSNriUrNTpXabdaW4/8vzLW8Un3WOeU8NqYHKrkMbXgEpgYLkyZNIu2tRURJZYx/5FlGTp/DhOdeZNzcV1DJ5DTk5za7ru70MW514wZ0YMHu39VV1pA4diyBgZ6ja96KVwpXEAQSExNRGavZ3GCgzmZzCsWCjRipnP5SOaJMhuXQhQ9eGRjs6ZSXxDdmuygdKZJgr4L+v3U63mmo4abHnyH+1iQ+W7Gc7O070IZHkJ+fT0JCAiaTidjYWOrlMjThXZzn7BJ/AwMfmIFNX4Gt0Tpsjr9HyzwPCOtsNn62mlEZq0lMTOxUU3YceKVwAUaNGoUJOH7eXGiMHAmjBSV6qxVbvRFzeella0e3Htfxs9Vsd/bbrGyzmPjfOh23lh9jV0Qkd/35VboPGka/2ybRLboH7y56C51OR3x8PBkZGfTu3dvjuatOHEHoeb2LuWDVVxEkkdJX8DwHLVes51erBRP259QZ8VrhRkVFkZycTCiQZTE1+xDHydUESqVI5EoXc0Gtcb/eWEuIZz2vqyBRqalR+DHYcIbBhjO8UF9NZtkZxk38IxOeexH/sAgA/MMiGPzAExQcO8q//vUv/Pz8GDduHIIgYDAYCAwKcjlvbUUZx3dkI3SJctleWXqc8YIfcg9WtQUbWRYToUBycjJRUVFu9/N2vFa4ACkpKRiLi8mxNVBobXAxF/wkEpIkSru5UJjf7mvYTEasJUdRhUR43EfWM57efv706R6L1mol/tYk4v9wd7P9ug8axvAhCWRu+JbSUycpLi52rpQjkbuOk/dnfI40pIvLNpvJiNRmY1gL3oRCawM5tgaM5xdz6ax4tXDHjBlDTGwfakXRaWc6kCFhmExJkShi01dQr7cXt2vrAM2qrwKpgCqsi8fe2pHTAKDwU9Hvtkkez9dz4h/ZtTeX7O07yMzMtIvL0oCoDnL2zmfz91N16mSz3taqryJKKnNW73HHN2a7jzcmtg9jxoxp0716E14tXEEQmD7rKYzFxWwW6zjZpNdNlPnRW2I3F0xVZUgV7Uw0UdptzIuJ3lpylND+NzoF6I4u8TfQu0+Yh539AAAYl0lEQVQc33zzDUnjbqWoqIgzFZUo/S+M/Pd9+bE9M60JutPHuEmqcJsR50gs2izWYSwuZvqspzrloMyBVwsXYMqUKdwwJIFzNisfm119tDIkPCz355xE4rRT2+pZcBe5cofNZMTWUM/pnVvZu/ojais8h5QH3/MA2zIzyf11H1qtFoPhQipN/v9lYAns0sx/K54txiqR8IcW6od9bK7hnM3KDUMSmDJlSqva7a14vXC1Wi2PTn+CyuJiVlvsubCNfaqDzhcNsVadbXcEramt6Q6JSm33AMiVnN65la3/O8ejgLsPGka3PnFkZGRgMBgoKSmh6/WD7AOyrZnNTASAhrOFDJLYgw5wwfXmcH9ts5hYbanDVlXNM8/N7nRJNU3xyshZUyZPnsw333zD/j17+bvkHIvUYfhJJM6Sov6CgNhgol5fjTIwuMMjaA6ELlFIA0Ow6quwlp7g9M6tlP53F91uHE6/2ya5mBC9R47iv5syyM/PJycnB6HXQPZnfI7suoRm53XkJgyR+znNhNNWC3st9uSd01aRk6KZ3lKBevVvsHLQVYDw4osv/uVKN+JSUSgUREREsPzjj9AFBRCClEGCEivgJ5HyY4OJGrEBv8jeyLVhWGqqaWhonqDjFksDtnoTmpi+WIwGLKamGbKuSORypP6BSIPCkagCsOkrqTl5jMLsTVSeKkSQyQjoGolKG8rhrZtRKpXs3bMHq1zJ6YP7ELrFNDunteosxtpqZisCKLeJLDXr+YfFwBaxnuNWC2crq4jq2ROLxcI5nY61X64hMiaGG264wU0LOwdeW0rfHX9d8Ar/XPEhAeGhvK8Ids6OeKuumq8sRsIGjyak3w2YKs62Oq3RZrJPnwm/eUKbjmt6vLXkqP3/hnokciXdhoykoeSEvWJNcAjUG5HfeLPb4y35uwDoLZWTi4jUZsNWVU2VsZbhQxJIffklxowZQ2lpKe+9+x6frViOSu3PL/kHO63J0KmEK4oiA/peB0CYWs0nqjD8JVK2WUy8UF9NaLferRKgeD5RXB6f0GbhNg7PNsaqr8JadRbqz79vFUEqXPhbFYA0pIt9Hwf1Rpf96k11lFSUMXxIAndPvZfx48e7rXv7wtwXWL5iOYsXL+bxxx9vsb3eSqcSLtjXPkuZ+kfq/BSMFJQsUoVwWDTzqKmSID9/ukx+GKu5/qK5uY2TWxQ2C0F/SMFcXoqh4qzdt3sep9DOC7LedGHKvCOxxkHjqepKVZNcA+v5Uv6NRGoyGlGp1ShVflRX2mcbP/LIIwwePNjp6jIYDOh0OrRarTNZ/MCBA/zud79j+JAEtmztnCtMdorBWWOGDh3K//vbQubPmcuOkGCW1J3jDoXaXqkGWuVZcPaaphqQCpiBM/9ZicVgwmQ0YjLWYgJC1P5EdOtKYFAQIRE9UalU+Pv7o1ap8W8ySKo1GjGajNTW1lJWVkZlZSVmQyNhOxalrjdSb6pj+M2J3HDDDZw4cYKv0tN5cPoM5r803/nTf+TIEVanfw7AlKn30q3bhVnLvXr1IjExkZycHA4cOMCAAQPa9zCvYjqdcAGmTZtGYWEh76WlsSo6mgYzBAhyqht5FjzRkJ+LTV+BRK50+SkXrNClRzSDhw7lurjr6Nu3L6GhoSiVSsLCwlAoFK2eHmMwGMjPz+fb/6znnys+pMe9TzjbVLkzi6pd27j77ruZPHkyBoOBnKwsjOe/TKIosnz5clJTU1m2bBn33Xdfs0CDRqPh5ptvJicnh+zsbJ9wvYn58+ejq9Lx2YrlZMbEINhsCBcxitSaAGznK8cASBVKTBVn0eds5PPPVnaYAPz8/OgaFkrfuOswGWtRhXXBaq5HqlA6Ax4lJfYVeDQaDX967DE+XroMwwtzAejXrx86nQ69Xs/x48dRqVTNkmmuv/56ALZu3cpDDz3km3PmTSx6axFGk5Gv0tPpFt0DrCKSehNShfuAgtFQA4YaJPUml/BuuVTaodUO6+rsdnBTMTnMGJXanxPHTzjL3w8bNoyFFQuprjUQ1bMX48aN468LXqGssgK1Sk2Xrl0IDg5mypQpTlOif397pZxtmZnodDqfcL2N999/H7VKzYaMtSgbrejYUhDCIeDGVFdXu933UggODsYEmCrOuhQjUanVHDh4gLq6OjQaDQMHDgTgzJkzxMfHIwgCL7+yoMVcBJVKRe/oHhw/dZJjx451uvTGTi9cQRBY9NYiysrL2PVjDkZDDe0pRlReXt7hbXP0gk1dbEqlnMJDRzCbzWg0GmcvWlhY6NwnPz+fffv2ARB5fl6Zw7MgiiJYGhg0NIHjp07S0NDQ4W2/0nh9rkJr6R3TE5PR6NHP2hJdgsM5dBmWXGqpnldJRRmGcxd6+ciwCGevL4oiZ86cISIigogI+/bc3Fzy8+15xw5TJCLcHmIODr48U5auJJ2+x3WgCQzAZKxt9/GH9zWftNgRNM31cmSFqYCCo8eI6mmviRAV2wuDvobS0lI0Gg0JCQkoFBcKiTi+BA6/LkBZub0n74yzfK8Z4Tp6HUfwoC1JNtLAEH7esu2ytCskLAKbyeiaxigVUKn9OXz4MAkJCRjOVSOTyag1GsHS4OyJ3WVNmBosqOQyqmsNbNu0mcTERBeBdxauGeFeChKVGhM4I1QdSeMBowNRKkGlVnPi+Alnrm5AQABFJ4s4VmRfcai6upry8nLMZnuykEKh4KabbiLY3243Z2ZmUmWs5c477+x0HgW4hoSrPh/JupS83GPHjjF06NCObBZhXbrS1F8hyFVYMFF0sojs7Gx+2fsLu7J/ospYS2ZmJmA3JULCIpwRtuDgYLtt668hc8v3fLx0GQCTJnmeRuTNXDPC1Wg09tKgphrKv/kYabdebhO2PaIO5vDhwx0iXIc9qlQqkav8sOqrEJrMeFCq/Ni/Zy+ZmZkkJiby5wUvExkZiUajYVPmJpavWM7Eu5O5Ls6eVFRdXc2af61h2/ffU3DMnomWnp7e6dxgDq4Z4SYkJBCi9qdad45gbRDWkqM0nC1E3qVnqwQcENWd06dPd3i7IiIiOFtS5fR2NE7gAdi+fXuziN2YMWPwV6s5WJDP5o0b7QvwAb0jI+l3ww3cde893HbbbR3+63A1cc0INyoqig1bvuODDz4gJyvLRcDWqrNIQ7q0KOAuweGcOHGiQxdzVsll9I7p6VxLot5UZ7d5pQLVlVXc+6cHiI9vPmlSEAReWfhXDAaD08Z10JacCW/mmhEuwIABA1iyZAnFhSf4z/9t5JNPPqHsZDHBgLWkxilgaWCI22Jzu7fvcEazOgq5nz3ZPbx7N/r168fu7TsoOnaUFenpTJw4scUviUajuSZE6o5Ol4/bFnQ6HV9//TVz5sxBBXSLjLzw5vnE7sazfA9vWUteXl6H2I3FhScA+NdXX3P2zFn+5+mnAJjz53lkZmZ22HU6K9dM5MwdWq2Wxx9/HJ1OxzvLlhHWpSvHS0qo1p2jvto+3caSv8v5UgG5uZcnEOHg+ji7aXA5ciM6E9e0cB0IgsC0adPY9P0W1q9fz/Rnn6bndX2pr2/geEmJU8wqtT8HDx7s0Gur1Wpnri3YFxoBu+vNh2euKRv3YgiCwOjRoxk9erRL6BQgOzub52bO5NChQx0zQJPJwdKAQqGgtrbWGfFyzCE7cuTIpZ2/k+PrcT2g0WiIiopyviZMmIBK7U/+vv2Ull562dLGgyqT6cJSU927dwdg165dLhVufLjiE24r0Wq1xA8eRMGxox36M65Wq6mpuZA3oZLLGD4kgV3ZPzVzdfm4gE+4bcBRtnPr91mXfK7GiS9NZ1eERIRTZayl4iILo1zL+GzcNjBw4EBC1P78vHvXJZ/LEfbVaDSYa2qor6+nvr6eyspKqso6Pmm9s+ETbhvo1asX8YMHUXjoCEeOHHFbjKOtBAcHU1pSwqJFiygrKyP/l18BiIvtQ1hY2EWOvnbxmQptQKPRcNOw4ZRUlJGXl9ch5wwNDcUE7Poxh5ycHHtZpVG/Z9WXazpt+aSOwCfcNjJl6r0ArFq16pLO43CnOfJnlUo5GRkZlJaW8uWXX3ZIb96Z8Qm3jURGRpKYmEjm+WnfbUUURXQ6nTPki0zO8CEJ1Nc3EBcXd83mHrQVn43bRrRaLbfeeit7c3KYNm0aNw0bzo0JQ0gYNBBNUDAKhQI/P79mAQpRFNHr9RjOVVNda6Curg6DwcDBgwfRGw2UVJS5+HN9tMw1nWTTXhxF5SLDIlxqifWO7kG/6/sT0yMGbYjWOc/NaDRi0Nc464eVl5dTeOQoRceOolL7AxDRrSsZ6//jS6xpJT7htpPVq1eTnp5OTk4O4Dpbt639ZnJyMi+//LLPrm0DPuFeIqIokp+fz7Fjx5yTFx09bGPkfkoUCgVqtZrg4GA0Go1LIQ8fbcMnXB9eic+r4MMr8QnXh1fiE64Pr8QnXB9eiU+4PrwSn3B9eCU+4frwSnzCvQyIonjZ5osZDAZ7xfFrHF+STRsRRZENGzZQUlJCdXU1uiqdc/0yR5KMTqdDJpPx1VdfdVi217p161i2bBmVlZUEBQWRnJzMjBkzOqwclLfhE24b0ev1vPrqqxQUFLS4X0xM88Wk28vq1auZOXOmy7adO3dSfubsRRcx6ay0KeR74MABsrOz21zh2mw2d6reobi4mDNnzrDmX2tYvmK5231iYmL4+eefL7nHNRgMLqtGNsVdNcdrgTb1uPv27SM1NbVdF+pMi8Q5ai0MHTqUopNFzmLLl4OLlTbdt2/fNSncNg3O7rvvPvLy8li2bBnJyckt7hsTE0NaWhpZWVnOBTc6I3fddddlPf/FJkz269fvsl7/aqVNwhUEgaioKKZNm8bKlStbFO9DDz3EU089xdChQzutaMFemPlyotVqWbBggdv3kpOTGTx48GW9/tVKu91hgiBw8803e3zflxTdccydO7eZeGdMn8HSpUs7zbihrVw2r0Jn7mWvBHPnzmXu3LkUFxfTrVu3a1awDnzuMC/DNyfNzlUbOTMYDL9plOhyRru8iY5+Do7zufscRVFs9+d71fS4BoOBHTt2sGvXLkpKSpyLPqtUKiLCI+jVuxeT/jDBuURoU0RRdK5hq9PpqK6uprKykurqagwGg7PCd2O3nE6nY+PGjfyy9xfKyu3Tw8PDw4mMjOTee+/tcDvd4f+9GPHx8fj5+bV4P0ajkbKyMh588EGXXrg1z8FoNPLYY48557oZDAa2bNnCf3P3cryo0OU5TJo0qU3uNlEU+emnn8jJyaGkpMQZUWz8OY4fP57u3bvz1htvUlZZwfvvv99200ev19va+1q8eLENcPvKyMho9XmWLVvW7PgZ02fYEhMTm21PTk625eXlteoc7l65ubmt3n/x4sUXbXtGRobbY2NiYmylpaUu+z4/+7lWtTErK8uWnp7eqn3Xr1/vco2srKw2PQdP7W/8Sk1NbdXnmJGRYYuLi2vV9WNiYmyALTIsotlzas3ripoKxcXFDB8+3CWcmZiYiE6nY9Fbi9i4cSPLli1zOWbt2rX079+fLVu2uGwfNmwYCxYsIOR8nQJ3ON6bNWtWsxCqO+bMmcPq1avbckst8tj0J0hPT3eWK21MZFgEaWlpbN++naFDh9K/f39SU1NbvB93dO3alQULFhAXF9fifiq5jNdee4277777oudMS0tj6dKlLe7jOFfjUHhqaiqlpaXo9Xr0ej15eXnMmD4DgKKiIsC+Sny7uFI9bl5enttv5/bt2132Ky0ttQ0fktBir9H4VVRUZBsxYoTb/UPU/s5zzZg+w5aenm5bv369bcGCBR7vIy4uzlZUVNQhPa7jtX79epd9ly1b5nHf0tJSW0pKSqt7XMdLp9PZkpKSPB7neEYpKSnO55CWlmYLUft7PMbTc2h6P46Xp2fW9NfEq3rcOXPmNEtUSUpKolcvVxtWo9Ew2MMKie+++26zbVqtlnnz5rndv8pYy669uWRlZbHorUVMnjyZ0aNHM3fuXBYvXuz2mIKCgg6tQK7T6XjhhRcAewAhLy+PadOmeXQfajQaXnzxxTZfRxAEZs2a5fH9nTt3kpGRwZIlS5zP4amnnuK95R94PCY7O7vZNlEUWblyZbPtLSUZTZ482ePzbi1XRLjr1q1zG9+/Pi7e7QfYpWsXt+dJT093OwLu2rWrx2tnZGS4XSo0KSmJyDD3UbDDhw97PF9b0Ol03H777RQUFJCWlsbKlStb5d5qrwvMsZ6EO9LT0xk3blyz7ZMnT/Z4zH9z9zbbptfr2bZpc7PtRUVFLS7A8vjjj5OYmOjx/YtxRYT78ssvu90e7kGgjhpc7tixY0ebru2pJ+jWrRtRse49Fh2xhm9xcTGjRo2ioKCArKwsnnrqqSsaREhISPD4nqdnVGs0ut1eZaz1eI2PPvqI4uJit++npqa2O/3zNxduceEJp2HuDscyTcXFxRQXF6PT6VpcxKOsrJ3GvRtkssvjHTxw4AATJkxw3rejjP6VpKXKkCqVyuN7TVEoFC0OBOfMmUP//v0ZPnw4H330EXv27HH6bkePHs3+/fvbFWX9zf242ds995BvLvwbH3zwARaDCZPR6PGb3Bijh17gasDPz489e/bwyCOPuHxZH330UTZt2tQpaoZpNBruuusu0tLSWtyvoKCAOXPmADBixAjuu+8+7r///nanBngUbmPb0V291/bS0lKfd0xJbrPdM3DgwEtt0mVBpVLxww8/uHU3FRQU8MEHHzB//vwr0LKO58EHH7yocBuzc+dOdu7cyYoVK1i1alW7Aj1uhbtu3ToXX2NSUhKLFy++7HHyxMREpk2bdlmv8VtRUFDQoo80LS2N4cOHux0geRtRUVFkZWUxduzYNh1XUFBAQkJCuxbcbmbjNhUtQGZmJv379++QGHZL0346YhB0NfH87OdanDFy9913t6sc/9XI0KFDKSoqcgYY2sLrr7/e5mOaCbdppKoxbRnBy+Vyt9t79uzp8ZizZ862+vxXOzExMcyd92fmzZvH8CGeR/CzZ8/+DVvV8TgG0mD3oS96axFFRUUsW7aMlJQUjy7GxmRnZ3v0PHjCRbiOkbwnmva4LY32Y2Nj3W5vyQ2zLXtbp+mBHAiCQNpbizy+v3btWtatW/cbtqhj+fjjj+nfv7/L56bVapk2bRpLlixhe+5u1q9f7zbM7aAlL5Mn2uQOi4yMdPl/586dbvcbMWKExxGzVqv1OAArKCggNze31e2ZNWsWBw4caPX+V4qhQ4d6nH4D9qVW29rjXC04Oq8vvvjC7ftarZbRo0ezZMkSMjIyOuy6LsLVarV0CXU/OS8lJcUl4mQwGFi7dq3bfR955JEW3Rwt2X3z589vlS09a9Ys0tPTWbhwoVdUdnnuuecYMWKEx/dfeuklr7iPpjjGLKmpqS1GygDGjRtHUlJSs+3tWSbLRbgajYabR41qtlNKSgrvv/++yzZP37DhQxIu6hkYPXq0x5+OgoICJt8x0eNDOHLkCFOnTiU9PZ0QtT/Lly+/7BGojljFXBAE3nnnHY/vr127ljVr1rh9ryVBt+Re/C1Qq9XOvx944IGL/nK4C25MnTq1zT7tZqbCY9OfcPk/OTm5WaLvli1bnM7kxsTExPDJ5+mtuvCbb77pUby79uaSkJDAQw89xNKlS1m9ejWrV69m1qxZjL95NJmZmcTExLD5x23NblgURbfJIA42b97sVgjHjx/3+NC/+OILt++JoujxV6eoqKhZ6uWAAQN4fvZzHts2c+ZMtmzZ0qx9GzZs8HjMqlWrPLZ727ZtHo/797//7XFWgqcqPduytzUzzRqH4wsKCnjkkUc8mm+iKDbLa4iLi+Oxxx7z2E6PuEsZa5yMHBMTY0tLS7OtX7/elp6ebpsxfYbbFDZPCd4tvUpLS1tMKfT0cnet0tJS24zpM2zJyckXPT4pKcmWnp5u0+v1ttzcXNuM6TM8pk42fqWkpNi2b99uy8vL85jo7q6ty5Ytc2lna9q3YMECW2pqaospjY5XiNrflpKSYsvLy7MVFRXZUlNTW/UcEhMTnW0rKipq9T2lpKTYsrKyXFIUm6ZDpqam2vLy8mylpaW20tJSW25ubrM2jRgxosWU0ZZeHvNx8/LyWnXzw4cktGm2g7tXbm5uq2YHJCYmesw/LSoqapP4n5/9XIu5pJ5eGRkZtu3bt7fpmJSUFJe2tmb2RUt5sZ5eji9Ve9qWm5vbpuMcgncId/HixbasrCyPHVvjV1xcnLPjaO/rorXDHHPBCgsLXbaHh4czatSoDo+3HzlyhKKiIudkSY1GQ3BwcKcvLOKtOJKimk6Zd3yOjiSojv4cfeuc+fBKrtrp6T58tIRPuD68Ep9wfXglPuH68Ep8wvXhlfiE68Mr8QnXh1fiE64Pr8QnXB9eiU+4PryS/w8aNA2l0KgOEwAAAABJRU5ErkJggg==;" parent="1" vertex="1">
          <mxGeometry x="-10" y="711" width="94.91" height="90" as="geometry" />
        </mxCell>
        <mxCell id="Xq1n-c8aseyyMUb2qtHi-57" value="" style="sketch=0;aspect=fixed;html=1;points=[];align=center;image;fontSize=12;image=img/lib/mscae/Docker.svg;gradientColor=none;" parent="1" vertex="1">
          <mxGeometry x="170" y="720" width="73.71" height="60.44" as="geometry" />
        </mxCell>
        <mxCell id="Xq1n-c8aseyyMUb2qtHi-59" value="Build" style="rounded=0;whiteSpace=wrap;html=1;fontSize=18;gradientColor=none;" parent="1" vertex="1">
          <mxGeometry x="164.07" y="790" width="91.86" height="44.78" as="geometry" />
        </mxCell>
        <mxCell id="Xq1n-c8aseyyMUb2qtHi-61" value="Test" style="rounded=0;whiteSpace=wrap;html=1;fontSize=18;gradientColor=none;" parent="1" vertex="1">
          <mxGeometry x="164.07" y="850" width="91.86" height="44.78" as="geometry" />
        </mxCell>
        <mxCell id="Xq1n-c8aseyyMUb2qtHi-62" value="Package" style="rounded=0;whiteSpace=wrap;html=1;fontSize=18;gradientColor=none;" parent="1" vertex="1">
          <mxGeometry x="164.07" y="910" width="91.86" height="44.78" as="geometry" />
        </mxCell>
        <mxCell id="Xq1n-c8aseyyMUb2qtHi-63" value="E2E Test" style="rounded=0;whiteSpace=wrap;html=1;fontSize=18;gradientColor=none;" parent="1" vertex="1">
          <mxGeometry x="164.07" y="970" width="91.86" height="44.78" as="geometry" />
        </mxCell>
        <mxCell id="Xq1n-c8aseyyMUb2qtHi-66" style="edgeStyle=orthogonalEdgeStyle;rounded=0;orthogonalLoop=1;jettySize=auto;html=1;entryX=0.5;entryY=1;entryDx=0;entryDy=0;fontSize=18;entryPerimeter=0;" parent="1" source="Xq1n-c8aseyyMUb2qtHi-64" target="Pfn9qGPlzArYa6WnRj2U-5" edge="1">
          <mxGeometry relative="1" as="geometry">
            <mxPoint x="630" y="512.5" as="targetPoint" />
          </mxGeometry>
        </mxCell>
        <mxCell id="Xq1n-c8aseyyMUb2qtHi-64" value="Publish" style="rounded=0;whiteSpace=wrap;html=1;fontSize=18;gradientColor=none;" parent="1" vertex="1">
          <mxGeometry x="164.07" y="1030" width="91.86" height="44.78" as="geometry" />
        </mxCell>
        <mxCell id="Xq1n-c8aseyyMUb2qtHi-68" value="" style="shape=image;html=1;verticalAlign=top;verticalLabelPosition=bottom;labelBackgroundColor=#ffffff;imageAspect=0;aspect=fixed;image=https://cdn0.iconfinder.com/data/icons/octicons/1024/mark-github-128.png;fontSize=18;gradientColor=none;" parent="1" vertex="1">
          <mxGeometry x="-630" y="651" width="60" height="60" as="geometry" />
        </mxCell>
        <mxCell id="Xq1n-c8aseyyMUb2qtHi-71" style="edgeStyle=orthogonalEdgeStyle;rounded=0;orthogonalLoop=1;jettySize=auto;html=1;entryX=0;entryY=0.5;entryDx=0;entryDy=0;fontSize=18;" parent="1" source="Xq1n-c8aseyyMUb2qtHi-70" target="Xq1n-c8aseyyMUb2qtHi-55" edge="1">
          <mxGeometry relative="1" as="geometry" />
        </mxCell>
        <mxCell id="Xq1n-c8aseyyMUb2qtHi-70" value="Dev repo" style="rounded=1;whiteSpace=wrap;html=1;fontSize=18;gradientColor=none;" parent="1" vertex="1">
          <mxGeometry x="-330" y="709" width="80" height="60" as="geometry" />
        </mxCell>
        <mxCell id="Xq1n-c8aseyyMUb2qtHi-74" style="edgeStyle=orthogonalEdgeStyle;rounded=0;orthogonalLoop=1;jettySize=auto;html=1;entryX=0.5;entryY=1;entryDx=0;entryDy=0;fontSize=18;" parent="1" source="Xq1n-c8aseyyMUb2qtHi-73" target="Xq1n-c8aseyyMUb2qtHi-76" edge="1">
          <mxGeometry relative="1" as="geometry" />
        </mxCell>
        <mxCell id="Xq1n-c8aseyyMUb2qtHi-73" value="Tag" style="rounded=0;whiteSpace=wrap;html=1;fontSize=18;gradientColor=none;" parent="1" vertex="1">
          <mxGeometry x="164.07" y="1090" width="91.86" height="44.78" as="geometry" />
        </mxCell>
        <mxCell id="Xq1n-c8aseyyMUb2qtHi-81" style="edgeStyle=orthogonalEdgeStyle;rounded=0;orthogonalLoop=1;jettySize=auto;html=1;fontSize=18;entryX=0;entryY=0.5;entryDx=0;entryDy=0;" parent="1" source="Xq1n-c8aseyyMUb2qtHi-75" target="Xq1n-c8aseyyMUb2qtHi-80" edge="1">
          <mxGeometry relative="1" as="geometry">
            <mxPoint x="-400" y="520" as="targetPoint" />
            <Array as="points">
              <mxPoint x="-405" y="520" />
            </Array>
          </mxGeometry>
        </mxCell>
        <mxCell id="Xq1n-c8aseyyMUb2qtHi-75" value="DevOps repo" style="rounded=1;whiteSpace=wrap;html=1;fontSize=18;gradientColor=none;" parent="1" vertex="1">
          <mxGeometry x="-460" y="710" width="110" height="59" as="geometry" />
        </mxCell>
        <mxCell id="Pfn9qGPlzArYa6WnRj2U-9" style="edgeStyle=orthogonalEdgeStyle;rounded=0;orthogonalLoop=1;jettySize=auto;html=1;exitX=0.5;exitY=0;exitDx=0;exitDy=0;entryX=0.5;entryY=1;entryDx=0;entryDy=0;fontSize=18;" edge="1" parent="1" source="Xq1n-c8aseyyMUb2qtHi-76" target="Xq1n-c8aseyyMUb2qtHi-28">
          <mxGeometry relative="1" as="geometry">
            <Array as="points">
              <mxPoint x="-530" y="610" />
              <mxPoint x="369" y="610" />
            </Array>
          </mxGeometry>
        </mxCell>
        <mxCell id="Xq1n-c8aseyyMUb2qtHi-76" value="GitOps repo" style="rounded=1;whiteSpace=wrap;html=1;fontSize=18;gradientColor=none;" parent="1" vertex="1">
          <mxGeometry x="-580" y="710" width="100" height="60" as="geometry" />
        </mxCell>
        <mxCell id="Xq1n-c8aseyyMUb2qtHi-78" value="" style="shape=image;imageAspect=0;aspect=fixed;verticalLabelPosition=bottom;verticalAlign=top;fontSize=18;gradientColor=none;image=data:image/png,iVBORw0KGgoAAAANSUhEUgAAAMwAAADeCAYAAABxPO9iAAAABHNCSVQICAgIfAhkiAAAIABJREFUeJzt3fmP3Pd93/Hn53vNzM7szt73fZLck6RIkZZoSYwt25LrwE2aIEfRX9KkBQL0p15/QYsABRoUBdq0dYEUbRzXbpH4SJRIsixFlHiI5C73vu/7vmbme/aH7w6lWryW3GNm9/MA+JMse7zD136O9/vz+QjP8zwkSXomynF/AElKJzIwkrQPMjCStA8yMJK0DzIwkrQP2uP+gefC6rKD50JWjoIREEf5uSQpJT02MI7jMdRjsbLgUt2kUV6tEclUUB/7b0jSyff4EcaDlQWX9/5yl/xihZeuBTnXYZBfrBIICoQccKRT6Knjxdaqx+K0zWjfDo2tJq+9FaLtkkEgJFDkCkg6ZZ4aGEUDoYJtevR+ZjLSa1HdqPHmr4VouRjACMjRRjo9nhoYsfcH4U/T4jGP4R6bxekdWi9bXPtmkNIqlVBYkSOOdOLtawmfHElsy2NlyeH2h3HmZ2zaLhs0tuoUl2uEMxVU9TA+qiQdv+fa8xKKP+rsbHkMPrBYX3aZHLVpajWoO6tTVKoSCst5mnTyvNAmsaICHsxPO2ysuyxMO8yM2TS26VTVaxSWanK0kU6UF6+qCD84iV2P8QGbxRmHiRGbhhaNjpcDFJVpZGXL+o10MhzcX2Px+TRtqMtkatRi8IHFy68FOXfeIL/Er9/IjQEpnR3s7/290QYEiV0Y6LSYHnV4cMfk2jeCNLUZRKICVZVb0VJ6OrSJklBANwRm3KPzE5O++yatlwK8+maQpjadzKgcaqT0c/grC+EXP20Tum+bzIzZnD2vc+2bISpqNAIhOdpI6eNIluJir/ppmR5L8w47H7pMjTi0XjbouGJQWKqRERZ70zlJSl1Huncl9mZh21seO/0W66sOM+M2zRcNas9oFJSohDJkx4CUuo5ls1dRgL1u6M31BItzDlNjOo0tfv0mr9DfUZOkVHN81ZG9HTXbgvEBi5UFh9kJm8YWg/pzGmXVGrkFqhxtpJRy7OVEIUDVhN9m02UxO24z1KNxtkOn42qQwhKVYFA8nM5J0nE69sAkCQGuCxsrHhurJmMDNp03Td7+zTB1Z3UiWQJVkztq0vFKmcCAHxqhAZ4gtu0x2Gkx3L3OhVcD/Mp3Mqg/p8umTulYpVRgHtpb3whF4LnQ+YnJ+KDN+VcCXLoWoKpBIxyRczTp6KVmYPYI4W9FOy6sLbvcfC/O9KjNuQsGzRd0Sio02TEgHamUDgzgjzYC8GB702Okz2J53mGs36L9ikFTq0FBiSqPSktHIvUDk7Q3TXMsWJ532Fh1WVt2mRp2OHdRp6JWI69AxZD1G+kQpU9g9ggFVEVg2zA2YLMw4zA3bdPYqtPYYlBWrZKVraDpMjjSwUu7wCQpiv8nEffov28xO+UwPmRzrsOgoVWnpFwlnCnXN9LBStvAJCUbOzdXXbpvm4wNWNR26lx+LUDLxQCRLIGm7Z1uk6QXlPaBSUoWPrfW9s7f3LWoaozzW/8kQmW9hi6naNIBOFFzluQ2tFDAsjxGey3+zT9b50//eIvhXovdbRfHOe5PKaWzEzPCPIrjguV43Px5gulRh/YrBs0XDcqqNDIicsSR9u9EB8Zv7ITYrsfEkMX6qsvkiM258zr1zTqFJSoZsmNA2ocTHZgkVfXXN8sLDjubDoszNhPDNufOG1Q1aBSXa/IYgfRMTkVgABB+cOJxmBxxWFl0WZhxqD2j03HVn6aFI4o8Ji090ekJzJ7kac+dbb9+Mz3iMD9j8+Z3M6g9oxMMybWN9HincyIi9gqfKuxsuzy4ZbIw42AmvOP+ZFKKO52B+SIBmi7wPEDmRXoKGZhnYFmeHyjpRPM8/7t+EhmYJ3Bd/0jB3Y/jLM3Z2E/5YUrpyzQdpqe3+fjjWWIx57G/IE/don+/4jseP/xPO5y9FKDjqkF1vU5WjoKmH/cnkw7C7q7N0lKMgYF1btyYZ2Rkl46OQoLBR2+XysA8iQeu4zE54rC9G2dx1uZMu0FDs05plUZWjnxtLV05Diwt7TI8vE5X1yoPHqwxMrLJ7i44zuNnEjIwTyNAMwSb6y79nRZL8w5TozYNLTq1ZzS/fiOPEaQNz4O1tQRTU1t0d6/y4MEqIyObLC0lcBwPXdeeeHJXBuYZqaoAD5ZmXTZWEkyP2YwNaLS/HKD2jE5eoeJ3RMsyTkryPDATLrNz23R3r3LnziIDAxssLSWwLBdVFSjK0788GZj9+MJtnfNTDssLLuNDNq2XAlz6qkFxmUY4ef5GShmW5bK+bjI5scO7703S1bXK3FwMy3JRFP+9omclA/M8hN/Y6dge85MOC9O73L8Z59qbIS6+GqCoVEXV5Gtrx811PSzLZXx8i/ffn+GDD2ZYXExg2x6q+ny/2GRgXpBQwHNhedbl/3xvh1sfJHjlzSAvvRogt1CRo80xsW2Pubkd3nlnknfemWF+Pu53r6u80HciA3MAHt77LGB2wuYn/3OHns8SXLke5Ey7QXaeHxx5DdTh8jw/KEtLO9y8ucD7788zPLxJPG6jKBzIz18G5gAlj0lvb3oMdNksz+/Sfcfiyq8EqK7XyMpW5WvSh8S2XVZW4gwOrvPOO9MMDW2ysuIv6MVe7+BBkF/fARMChApmwmN+yr8/bXnepuVSgLPtOqWV/ja0DM7BSCQcVlcTTE5u0dm5wmefrTA+vkUs5hxoUJLk13ZIkl9UbMcfbdZX3L33b3RqmnSKy1UiWXJX4Hm5LqyvJxgf36S3d43u7jWGhzeZm4uh6+LQCsoyMIdMKKApsDjrsL7qMj1qU3fO7xioPaORX+Rfcys9u91di5mZXXp7/cJjf/86s7MxbNvFMA73ZykDc0RUTWBbMD1ms7zgMD5k0diqc/ErQUqrNLJzFflo1FM4jsfSUozh4XU++miOnp51FhbimKaz73rK85KBOULJ19asBEwNO8xPuvTfs7jwSoDXvx0iM6qgG7J+88scxyMed1haivPDHw5x69YSS0t+PUVRnq1Cf1BkYI7DXuHTtj1mxh2mR3f45P04b/1mmIuvBsjOlYlJchyYn4/x/vvT/OhHo6ysmHieX0s5jhqXDMwxEwogBKuLLj/4k23u3ohz9XqQsx0G0dzTW/i0bY/lpRi3bi/y3nuz9PVtkEjYD6ddx1XTkoFJAUL4RbfYrv9M4fKcy0CXRfvLBnVnDXLyT8+IY9se8/M7DPSvceOTRXp61lldjROPuwdWfHwRMjApRFHATMD8tMPWhsvcpENjm03rSwallf5rayf1GijH8VhdTTAxscnHH8/T07PO9PQOOzv2w5aWVCADk2LE3jVQ2xt7r60tOEwM2bS/bFDbpFNc4d/WeVI2BlwHtrctJia36Opa4f79FQYHN1hfN4GDLzy+KBmYVLR3jMDzYHXRZXnOZHXRD865CwZV9Rp5RSqhjPRe32xvW8zO7jI0uMG9+8v09q4xObmLEH438XFPvx5FBibFKar/Z2rUZmneYXrcpqnV4GyHTlWDf0w63TYGTNNldTVOf/8ad+4s0dm5wuxsDNN0954lSd3/PzIwaULTBZYJ4wM2s+MOffdNOq4avHQtSGGJSiicun/JkjwPtrdNJiZ2+MUvprlzZ4mZmRjxuPPc51OOmgxMGkm+tmaaHpPDNjPjNrc/TPD62yG+/t2MlNhFehzX9YjFXL7//SH+6q+mWV5OIIRfpD2KCv1BkYFJQ8nguC7MTzr84D/v8MFPY/zq74Y5e94gKzt1NgVcF9ZWE9y6Pc/3vje4V3h00yokXyQDk+Y8/NrFwrTDD/5kmzPnDc5fNag/pxPNVY9tO9ZxYG0tTk/PKh99NMfdu6ssLcUejiqpOhI+jQxMmkuev/FcWF5wuX8jweKMw0S7zZl2nYpaney8ox1uFhdjjIxscO/eCl1dK0xO7rC1Ze31fR3pRzlwMjAnxV5xb2fLY2zAYnXJYWrMpqnNpqnNoKTcr98c1m921/XY3LSYmtrk/v0VOjtXGR3dYm0tget6abGgfxZPDIzrergu8iLudLFXv3EdWJ532VgzWZh2mB51aL6oU92gU1CsYgQPrsbhuf51q9Mz2wwObnDnzgKDg5ssLMSx7We/7ytdPD4wAiJRQSgsiMc8PBd5XiNd7L3t6Vj+pRzL8w4zExZNrXuP4lZrRHOVFz5sFY/bLC8nGB3Z4pNP5+jv32B8fOvhNUbpurB/kscGRlUFzecDDPfa9N+z2Fh1sS0Pj/RdsJ02QgFV8Q+ujfbazE25DHb7TZ2tlwKUVqmEQvvvT3Mcj50di+HhDW7eXODOnSXGx3cwTTdt6inP67GBURQoLFX5h3+YSX+XyQc/jdFzxyK+6/k7Lyf3Z3LiCMW/H9qMeYwP2EyN2Dy4Y3L1awEufiVIdt6z76bZtsvSkn8+5f33Zxkb28Gy3GM7n3LUnrroDwQFLRcMaht0+jpNPn43zmCnRWzXX9jIaVr6SH5XrgMjPTaTQzaf/I3JG38vyKWvBglmPH5t43kQ3/X4y5+M8OMfTzMzs4PneQjxYhfjpZunBkbsPWmXmS1ouxyguEJj8IFJ502T0V6b7S0X2OsqPT0/t/Qm/PDYFowPWfzwvzrc+yTBd34nTHmNhv5La5vdXZvOzmV+9KMxhoa22Nw0cV3vVE7Nn3lbWSgQCgvKqlWiuUGqGnTufpxgqMdieswmtu09fGxVSn0PuwUcWFtxeXDbpLhcJacgTHbu/5+EzU2T996b4f79FUzTPRH1lOe17zqMpgmycwWZUYVIpqC6QaPvvsnYgMXCjEtsx5OjTRoRCigCEjGPlUUX5xHPElqWy+JijETCTdm2+6Py3IVLVYXSKo2cfJXiCpWqBo2BLouxfpuVBRfLksFJJ0Ik7xd49D9TVRCnOSl7XrjSHwoLqht08otUKmp0Bmosej4zmRqz2FjxUDS5DS2dHAfWGhPJUqg7q1BapdLYqnPrwzh3/y7Bxqrnvz4sZHCk9HegvWSKCuFMhYYWhYo6jVe/HuRP/3ibiSEb2/bk9ExKe4ey1yEEhDIElfU6/+rfZfN7/zqT5ks6wZDAk71pUho71G5lRQEjKOh4OUBZlUbvXZPOmwkmhmx2NmXhU0o/R9LeH8oQlFaqZEWDlNdo9HeaDHabTAw47O74+/oyOFI6OLLzMJomyM4ThMI6eUUKNU0avXctBros5qcczIT3+damJKWoIz9AFggKiss0cvNVCks1yqo1BjpNxof8ZyCshGyzkVLXsZy4FMIPTkW1Rm6+4ncLdJr03rWYHLbZWnfl+RspJR3vEWXhb0PXnlEoLFWpadC592mCB7dMVhYcEnE52kipJWXO9EeyFJraDcprNc51GHzwsxjdtyxcz8N1Pm8WlKTjlDKBAb9fKStboeNqgLMdBsN9Fv/jP2yxNOvg2Ph3CsmOAekYpeQqQQgIhASNLTr/4o+y+Y3fD9PQqhMKCwSy8Ckdn5QaYb5ICDACgrxClavXQ1TW6fTeM+nvtJgZt9necFFOeau5dPRSNjBfFM1V/PpNoUplnUZ/p8VQj8nchEMi7t9QItc30lFIi8CAP9oUlalkZisUlqhU1msMdlkMdVsszDgAJ/Z1Lil1pE1gkjLCgso6nYISjap6neLKBN23TOYmHbY3XRxXHpOWDk/aBQaSxwgE1WGNvEKFhnM6tz9MMNBlsjTnkojJ8zfS4UjLwCQJxd+GzuowKKvSGOjWufVBgr57FjubLq6LDI50oNI6MF+UlaNw6VqQplaDrlsmP/9JjJEeC9vyUDUhC5/SgTgxgUnKzFK4/FqAhmadns9MPvjZLvNTDrEd7+HbJDI40vM6cYERir+jll+scum1ANVNGrc/TNDfaTI77hDf9fy8yNBIz+HEBSZJVSEzqhDOVAhH/I7ogS6T4V6bhWmH3W1PbkNL+3ZiA5OkKPj1m6hCYZlKZb3NcI/FaJ/F7ORej5okPaMTH5ikjIigqk6noEilokajvEaj+47J5IhFbAe/sVOSnuLUBAb80SaSpRAKKxSUqNQ0atz7JMHgA5tASPalSU93qgKTlDxGkJllUFGrMzlqE8oQaLpMjPRkpzIwSULxp2pn2vTj/ihSmpBdV5K0DzIwT/KFGZo8tHayeZ7/dufTyMA8gQCMkOD8NZ28YgU8Pj8qLZ0YjuN3gVRWZnD9ehHBoPLYDaBTvYZ5KuGvcb75GxkMd9sMdVtMjthsrrt4jjx/k+4cx0NRBAUFQZqaorS359HWlkcg8PgvVgbmCYQAwxCcbTcoKtH8055dFkPdJvNTDjtb8tGodOS64Hke0ahBRUWYtrY8LlzIp6Ymk4KC0BP/XRmYZ6CqgoISlew8lbJqPzjdd0xGei1WFl1sS7bZpAPPA9f10HWFsrIIra25XLiQx5kzORQWhNGNp/93yMDsg274bTbZeQpVDf6l6p++m2By1CYR/7ypUxZAU4vn+SOK5wkiEYOGhkzefruS9rYC8vKDaPtIgQzMcwgEBRU1GmWVGhe/EuTH39/mxjsm8V3/CXYPGZpUIgS4riAYNPi1X6vg13+9gaws/bm+IxmYF6CokFOg8Dv/NJM33nJ478e73P/UZH3ZvxtajjbHy3E8VFWhrCzEq68W8dZb1ZSUZKBpj98FexoZmCfwPLAsj9i2RySqoD5inSIEaLqgtErl7/+jCO0vW9z/xKTvvn8/tOPI0Bw12/bXKdXVYTo68rhypYhz53KIRHQ07cUqKTIwT+B5sLvl8cP/vs1L1wJU1+tkRhXUR/zUNF0QzRWc7TDIK/CfYe+9ZzI2YLE44/jv28uq16FJFh49D6qr/QX9xQsF1DdEKSgIEA4fTPuTDMyTeGDFPT59J878pEPrZYPGFp3SKo3MqPLI65xCGYKyGpVorkJZlcpwn/9U4fiAfw0UyBcJDpq7925qbq7B2bNRLl4soqUlh/KyCOGIfqDXbsnAPIXnwdaax0Cnxcaqy8yYTUOrTu0ZnaISlUj0y99G8rW1SFSnoESlvFqj66bJSJ/F/HTyfgH5/s2Lcl2/Qh+N6lRWRjh3LpsrVwqpqMgiJ8d44enXo8jAPI0ALeBfRbsw7bC+6jAzaTM5YtPYqlPbpFNUqvlbk780amiaILfAH20KS1RqmjR6PrMYHbBYXXIw5fs3zyW5TRwKaZSWZtDSksPFiwU0NEQpLQ0f6v+2DMwzEsLfFbMSMD3isDTrMjZgUd+sc+WNECXlKpGsL69vhPCDU1qlkV+kUtOk03PPpPPTBOODNrtbHq4LirwG6pm4rv8zzc0N0tyczSuvFHP+fD75+SE07fB/gDIw+7W3VWzGPaZGHGYnHHrvWbz+VoiOlw3yClX0gHjkvNkICsprNIrKNM606dz8IM6Nv02wtuziecjbbJ4g2S0uhKC8PMS3vlXJV6+VUloWfuTu5WGRgXleew8GOBYsTDr82X/c4pN3dd74dojzXwmQk//4+bNuQFW9TlmVzitfz+DH/2uH2x8ksC0PPPna2i9zXX8HLBBQefvtMn77t5soKAj6rzYcMRmYF5RcuCsIpkZsfvAn23TdSnD1a0Ga2gwiWeKxUwVNh+Iyld/6gwhXXg/w0d/EGOmz2VxzcSxOfeEz2fdVWhqkvT2Xr32tktraTDIzjWMJC8jAHBih7NVtdjx6PrNYnHNoaDHpuGpQd8YgkvXobWhV89+/OdNhkFekMtBl0tdpMj5gs7rkPpyznyaO46FpCiUlIZqbs7l8uZCWllzy80NPbL0/CjIwB0gIECokEh6zEw4bqy6Tww6tlxxaLxmUlGtkRMQjO5uDIUFZtV/fKavWGO6zGOwymRxxWF10Tvxra8lOYoDi4gyamqJ0tOdz9mw2ZeUZRKOBY/6EPhmYQ5AcSbbWPbbWLNZXXGYmbJrPG1Q3ahSWqmREvjziKApk5ymEM3Xyi/36zVC3xVCPxXCPhWNzIus3n7fdq7S15dDWlkdray61NVlEo4FHdlYclxT6KCePogIeLM/brK84zE851DfrNLXqVDVo5BWqBENfHjZ0Q1BQrBLNUSip1Khu0snKjjM9ZrM872CZfmjSfcRJ1lMCAZWSkhA1NVl84xvlVFdnkZcXxDBS7zeDDMxhE6BqAteFyWGL5XmHqVGLplaDM+06lbU60bxHr2+MgKCoVCW3QKGyVqXrlsm9GwmmRm22Nz3cND0m7QcFdF0hO9ugri6TV75SSHtHARUVERQldX8TyMAcEbEXnHjMY7TXZnrMofeeyfmrAS6/HiAnXyUY/HKDZvKYdHG5Rk6eSn2z/9ravRsJFqcd3L2/fOkw2iRrKZ4HhqFSV5fJa6+V8OqrxZQUh9PiIkUZmCOW/IttxjzGB2wmhmze/YsYv/kHEc5fMQhnPv6sRiAkqG3SqarTuPiKwYd/HefmzxPsbu49wZ56M5iHPM9vuwfIzzf4xjcq+PrXK6ipyTy2LeLnIQNzXL5QY9led/neH21x5rzO62/59ZvMbPHYv0iqJqhu9HvYXn4tyHs/2aX/rs3WhpOSj0Ylp2AFBQFeecU/yFVRESYU0tIqLCADkzIcx2Owy2R5zuHcBZOOqwFqGnUi0UcXPjVNEIkK6pt1svMjDF6wuP1RgpmxvcKnc/yNnX49RVBQEKCpKcr162U0NuZQUBBKyQX9s5CBSQV7jZ22BYuzDjvbLrOTDk3tOufOG1RUa0SiX56qCeHfL1BSoZGZpVBSpTLQaTHYbTE1YrOx6h+VPuqNAdcFRRGUlARpaMiipSWXtrZ8KisjhMMaIh0WXI8hA5NChAJ4sL3h7V3h5DA1YtN80aD+rE5xuUYw48uNnYriP4obiRrkFqhU1GoM9fj1m9kJm+0N78i2oR3HIy8vSE1NJh3teTQ351BeEaGgIHSgB7mOiwxMqtkbbVwHludc1pZMluYcxgcsWl8KUFnvHxMIPKJ+oyhQWJKs36hU1Gn03zcZ7rGYmXD8behDmKYljwdrmqCxMUpbWy4dHXk0NuT4bfcn6HEEGZhUlQyOC1MjNvNTDnNTDmc7DJradSpqNLKylUduxSanaTn5frdAVYPFzZ/HH442nnsw3QLJxbyiCPLyAlRXR/jmN8tpbs6lsPD4+74OgwxMikvWbxwbRvtsFmYcBntM2i4FaH0pQFGZSij86D6zYEhQUatRWKZy7rzOz38S4/4Nk7VlF8vynrt+88WXDIJBldLSMK+9Vsibb1aRmxskEHj+a4xSnQxMmkiOCDtbHkNdNuP9Dp2fmrz6zSAvXQuQEfa7BR61MRDcG3H+we9FuPKGzd/+3xidNxMP1zb75fd+QV6ewbVrRXz3u7VUVGSip0Hh8UXJwKSZ5OEy2/IY7rUY7bf42Z/t8tt/GKGxRScj/Pjf7rouqGrQ+d0/VLn8RoBP34/Tc8dkc81vs3naMx6u6992n59vcPVqEV/7WjlNTdkYhpp29ZTnJQOTrgTg+ZsDS/MO/+3fbtH+FYOr14NU1WuEM5VHbierKmREFM62GxSWqDRfMLh3I8FAp/2wzeaX+Yt6KCsL0dycwxuvl9PQECUn1ziR65QnkYFJY8nRxvNgY83l7t8lWJhxaL6oc7bDoKxSIyPzyx0DQvjrm+Jyf+OgtFKjtslC0TwM48sjRTCo0tqay2uvBWlpyaW8PEJGSEvpVpzDIgNzAggBqu6vb0b7LNaWHKZGbRpbDerO6pRWaIQzvxwEVYXMqEJGWCEnTyGR8AiFv/yfy8oyuH69jGjUICfneM7SpwoZmBMkWb9ZnHXZWDOZm3SYHrE5e16nsk6nuFxF07+8o6ZqkFf0+KlVIKBSVxc95E+fHmRgThrhB8BMwMyow8qCf9qzusmi40qAskqNaK6C/oipl/R0MjAnVLKiH9/1GO7x3+YcG7C5cDXAuQsGJRUqoYxHbwxIjycDc5KJZOOlwDZhrM9mfsKhr9Pk5dcDtFwMEM1T0LSTfcHGQZKBOSWSO1rxmEfPHYuBTovGVpPrvxqi7SWDYIZMzLOQgTlt9m6dcRwY6DSZm7C53aZz/TshKut0QuFHX3Mr+eSP5hQSIvnuI6yvunTdMvnTf7/NrQ/ixHbc4/54KU0G5hQTiv8ntuMxNWIzPmSRiB/3p0ptMjASQgFF84jHPbxH9cZID8nASNI+yMBI0j7IwEjSPsjASNI+yMBI0j7IwEjSPsjASNI+yMBI0j7IwEjSPsjASNI+yMBI0j7IwEjSPsjASNI+yMBI0j7IwEjSPsjASNI+yMBI0j7IwEjSPsjASNI+yMBI0j7IwEjSPsjASNI+yMBI0j7IwEjSPsjASNI+yMBI0j7IwEjSPsjASNI+yMBI0j7IwEjSPsjAPIEQoOmQlS9wHQ/XAeRrEKeaDMwTCAGhiMLrb4douWyQmS3wPGRwTjH5xuWTCAgEBV/9Voj6Zo2++xYjvRbzUw47W97Dp72l00MG5ikUBUoqVPILFUordarqTXrumoz22qwuOSQSoMq37k8NGZhnpAcEJRUq2XlBKuo0+u+b3LthMj5ks7s32giBHHFOOBmYfQplCKrrdUorNJraDD56J8ZHP01gWR7J5yGFDM2JJQPznIyAoKZRp7JW5/q3bf78v2zTd88kEePh2kYG5+SRgXlBqgYlFRr/+J9nMdBtcefDOAMPLDZWXFxXhuakkYE5AKoGWTkKLRcMistUGlstuj8zGR+0WF1w5WhzgsjAHKBQWFBWpZGZrVBcrjLUrTH4wGS412Z320NR96ZrUtqSgTlgigrZuQoZYZ28QoWKOpWiMovRfou5SYd4zEMIEDI4aUkG5pAYAUFRmUZOgUpJucZIv86D2wkmBm1WFl3MhCx8piMZmEMkBAQCgtIqjbwilap6jd67Jl23TCaHbXa2XBwXFFm/SRsyMEckEBRU1mkUl6vUN+vc/jDOvY9NluYdHNufosmNgdQnA3PEjICg/pxOeY1GxxWLd/8ixs33E+B4qKrw1zYyOClLBuaYBIKChmad0ir8mQUFAAACmklEQVSN198K8bM/32V8yCK24+G5yK3oFCUDc0z8szaCrGxBY6tOfnEmXbcS9N03GR+02ViVhc9UJANzzMTeEYKSCpVQRpCKWo2hHpPBBxaTww7rKw6KKmRwUoQMTArJzlPIiOjkF6uUVWn0d1kM91jMjDnEdj1UVdZvjpsMTIoxAoLCEpXMqEJhqb8V3fOZf3Btac7fUVNUOVU7LjIwKSqUIaio0Sks1ahp1Om6bXL/kwQz4zY7W/7GgBxtjp4MTAoTCgRDgrJqjfwilXPnDT5+N0b3bZPlORfT9A/gyNHm6MjApAEhIJghqG7QKCmP0H7Z5KO/jnPvhklsx1/byNrN0ZCBSTOBoOBsR4CaBoOr103e/+ku/fdtdjZdNE3Iadohk4FJN8K/dCMjU3CmwyC/WKXvvsmtX+ytbzb9o9KysfNwyMCkKSH89U1JpUZmVKH2jE7nrQSDDyymx2y21j08x99Rkw6ODEyaU1WI5ipEcxUiUYWqOp2BBybDvRZzE/L+tIMmA3OCFJWqRHMUCkoVymo0hh5YjPZZzM842KYcbQ6CDMwJEwwJyqp08gpUKms1quo0Om+ZjA1YbK7t3Z8mNwaemwzMCaSqEM5UqAorFJdpNLTqfPTXcTpvmGxu+Kc9PU8G53nIwJxgiuJfzFFVr1P6+xpXrtv81f/epe+uye6251+oLtc2+yIDcwoI8fnBtd//l1l0f5bgw5/F6b9vkYh/fmOn9HQyMKdI8ihB68UAJeUaAw8sOm8mGO612Fjx5BMez0AG5pQRAgIhQXG5f39aeY1Gf6dJ710TPXDcny71ycCcUqoGWdkKoQxBTp5CTaPG1oZLMCQXNU8iPE/OYE87zwPH8dja8MiKKqjy1+hjycBI0j78P/Pgry2QZkJeAAAAAElFTkSuQmCC;" parent="1" vertex="1">
          <mxGeometry x="-300" y="500" width="54" height="58.76" as="geometry" />
        </mxCell>
        <mxCell id="Xq1n-c8aseyyMUb2qtHi-79" value="&lt;div&gt;Terraform&lt;/div&gt;" style="text;html=1;resizable=0;autosize=1;align=center;verticalAlign=middle;points=[];fillColor=none;strokeColor=none;rounded=0;fontSize=18;" parent="1" vertex="1">
          <mxGeometry x="-318" y="475" width="90" height="30" as="geometry" />
        </mxCell>
        <mxCell id="Xq1n-c8aseyyMUb2qtHi-82" style="edgeStyle=orthogonalEdgeStyle;rounded=0;orthogonalLoop=1;jettySize=auto;html=1;entryX=-0.007;entryY=0.786;entryDx=0;entryDy=0;entryPerimeter=0;fontSize=18;" parent="1" source="Xq1n-c8aseyyMUb2qtHi-80" target="bWGEidWGkiljW06ko3HO-2" edge="1">
          <mxGeometry relative="1" as="geometry" />
        </mxCell>
        <mxCell id="Xq1n-c8aseyyMUb2qtHi-83" value="git pull" style="text;html=1;resizable=0;autosize=1;align=center;verticalAlign=middle;points=[];fillColor=none;strokeColor=none;rounded=0;fontSize=18;" parent="1" vertex="1">
          <mxGeometry x="-195" y="709" width="70" height="30" as="geometry" />
        </mxCell>
        <mxCell id="Xq1n-c8aseyyMUb2qtHi-85" value="git tag" style="text;html=1;resizable=0;autosize=1;align=center;verticalAlign=middle;points=[];fillColor=none;strokeColor=none;rounded=0;fontSize=18;" parent="1" vertex="1">
          <mxGeometry x="-166.04" y="1080" width="60" height="30" as="geometry" />
        </mxCell>
        <mxCell id="Xq1n-c8aseyyMUb2qtHi-86" value="Provision Cluster" style="text;html=1;resizable=0;autosize=1;align=center;verticalAlign=middle;points=[];fillColor=none;strokeColor=none;rounded=0;fontSize=18;" parent="1" vertex="1">
          <mxGeometry x="-200" y="490" width="150" height="30" as="geometry" />
        </mxCell>
        <mxCell id="Pfn9qGPlzArYa6WnRj2U-3" value="" style="outlineConnect=0;dashed=0;verticalLabelPosition=bottom;verticalAlign=top;align=center;html=1;shape=mxgraph.aws3.cloud_2;fillColor=#F58534;gradientColor=none;" vertex="1" parent="1">
          <mxGeometry x="645" y="60.95999999999998" width="75" height="75" as="geometry" />
        </mxCell>
        <mxCell id="Pfn9qGPlzArYa6WnRj2U-4" value="" style="sketch=0;points=[[0,0,0],[0.25,0,0],[0.5,0,0],[0.75,0,0],[1,0,0],[0,1,0],[0.25,1,0],[0.5,1,0],[0.75,1,0],[1,1,0],[0,0.25,0],[0,0.5,0],[0,0.75,0],[1,0.25,0],[1,0.5,0],[1,0.75,0]];outlineConnect=0;fontColor=#232F3E;gradientColor=#F78E04;gradientDirection=north;fillColor=#D05C17;strokeColor=#ffffff;dashed=0;verticalLabelPosition=bottom;verticalAlign=top;align=center;html=1;fontSize=12;fontStyle=0;aspect=fixed;shape=mxgraph.aws4.resourceIcon;resIcon=mxgraph.aws4.eks;" vertex="1" parent="1">
          <mxGeometry x="452" y="141.81" width="78" height="78" as="geometry" />
        </mxCell>
        <mxCell id="Pfn9qGPlzArYa6WnRj2U-12" style="rounded=0;orthogonalLoop=1;jettySize=auto;html=1;fontSize=18;" edge="1" parent="1">
          <mxGeometry relative="1" as="geometry">
            <mxPoint x="580" y="570" as="sourcePoint" />
            <mxPoint x="440" y="570" as="targetPoint" />
            <Array as="points">
              <mxPoint x="440" y="570" />
            </Array>
          </mxGeometry>
        </mxCell>
        <mxCell id="Pfn9qGPlzArYa6WnRj2U-5" value="" style="outlineConnect=0;dashed=0;verticalLabelPosition=bottom;verticalAlign=top;align=center;html=1;shape=mxgraph.aws3.ecr_registry;fillColor=#F58534;gradientColor=none;fontSize=18;" vertex="1" parent="1">
          <mxGeometry x="581.5" y="520" width="77" height="80.62" as="geometry" />
        </mxCell>
        <mxCell id="Pfn9qGPlzArYa6WnRj2U-10" value="Deploy" style="text;html=1;resizable=0;autosize=1;align=center;verticalAlign=middle;points=[];fillColor=none;strokeColor=none;rounded=0;fontSize=18;rotation=45;" vertex="1" parent="1">
          <mxGeometry x="245" y="455" width="70" height="30" as="geometry" />
        </mxCell>
      </root>
    </mxGraphModel>
  </diagram>
</mxfile>
